  0
SECTION
  2
HEADER
  9
$ACADVER
  1
AC1014
  9
$HANDSEED
  5
FFFF
  9
$MEASUREMENT
 70
     1
  0
ENDSEC
  0
SECTION
  2
TABLES
  0
TABLE
  2
VPORT
  5
8
330
0
100
AcDbSymbolTable
 70
     4
  0
VPORT
  5
2E
330
8
100
AcDbSymbolTableRecord
100
AcDbViewportTableRecord
  2
*ACTIVE
 70
     0
 10
0.0
 20
0.0
 11
1.0
 21
1.0
 12
210.0
 22
148.5
 13
0.0
 23
0.0
 14
10.0
 24
10.0
 15
10.0
 25
10.0
 16
0.0
 26
0.0
 36
1.0
 17
0.0
 27
0.0
 37
0.0
 40
341.0
 41
1.24
 42
50.0
 43
0.0
 44
0.0
 50
0.0
 51
0.0
 71
     0
 72
   100
 73
     1
 74
     3
 75
     0
 76
     0
 77
     0
 78
     0
  0
ENDTAB
  0
TABLE
  2
LTYPE
  5
5
330
0
100
AcDbSymbolTable
 70
     1
  0
LTYPE
  5
14
330
5
100
AcDbSymbolTableRecord
100
AcDbLinetypeTableRecord
  2
BYBLOCK
 70
     0
  3

 72
    65
 73
     0
 40
0.0
  0
LTYPE
  5
15
330
5
100
AcDbSymbolTableRecord
100
AcDbLinetypeTableRecord
  2
BYLAYER
 70
     0
  3

 72
    65
 73
     0
 40
0.0
  0
LTYPE
  5
16
330
5
100
AcDbSymbolTableRecord
100
AcDbLinetypeTableRecord
  2
CONTINUOUS
 70
     0
  3
Solid line
 72
    65
 73
     0
 40
0.0
  0
ENDTAB
  0
TABLE
  2
LAYER
  5
2
100
AcDbSymbolTable
 70
2
  0
LAYER
  5
50
100
AcDbSymbolTableRecord
100
AcDbLayerTableRecord
  2
0
 70
0
  6
CONTINUOUS
  0
LAYER
  5
51
100
AcDbSymbolTableRecord
100
AcDbLayerTableRecord
  2
Layer_1
 70
0
  6
CONTINUOUS
  0
ENDTAB
  0
TABLE
  2
STYLE
  5
3
330
0
100
AcDbSymbolTable
 70
     1
  0
STYLE
  5
11
330
3
100
AcDbSymbolTableRecord
100
AcDbTextStyleTableRecord
  2
STANDARD
 70
     0
 40
0.0
 41
1.0
 50
0.0
 71
     0
 42
2.5
  3
txt
  4

  0
ENDTAB
  0
TABLE
  2
VIEW
  5
6
330
0
100
AcDbSymbolTable
 70
     0
  0
ENDTAB
  0
TABLE
  2
UCS
  5
7
330
0
100
AcDbSymbolTable
 70
     0
  0
ENDTAB
  0
TABLE
  2
APPID
  5
9
330
0
100
AcDbSymbolTable
 70
     2
  0
APPID
  5
12
330
9
100
AcDbSymbolTableRecord
100
AcDbRegAppTableRecord
  2
ACAD
 70
     0
  0
ENDTAB
  0
TABLE
  2
DIMSTYLE
  5
A
330
0
100
AcDbSymbolTable
 70
     1
  0
DIMSTYLE
105
27
330
A
100
AcDbSymbolTableRecord
100
AcDbDimStyleTableRecord
  2
ISO-25
 70
     0
  3

  4

  5

  6

  7

 40
1.0
 41
2.5
 42
0.625
 43
3.75
 44
1.25
 45
0.0
 46
0.0
 47
0.0
 48
0.0
140
2.5
141
2.5
142
0.0
143
0.03937007874016
144
1.0
145
0.0
146
1.0
147
0.625
 71
     0
 72
     0
 73
     0
 74
     0
 75
     0
 76
     0
 77
     1
 78
     8
170
     0
171
     3
172
     1
173
     0
174
     0
175
     0
176
     0
177
     0
178
     0
270
     2
271
     2
272
     2
273
     2
274
     3
340
11
275
     0
280
     0
281
     0
282
     0
283
     0
284
     8
285
     0
286
     0
287
     3
288
     0
  0
ENDTAB
  0
TABLE
  2
BLOCK_RECORD
  5
1
330
0
100
AcDbSymbolTable
 70
     1
  0
BLOCK_RECORD
  5
1F
330
1
100
AcDbSymbolTableRecord
100
AcDbBlockTableRecord
  2
*MODEL_SPACE
  0
BLOCK_RECORD
  5
1B
330
1
100
AcDbSymbolTableRecord
100
AcDbBlockTableRecord
  2
*PAPER_SPACE
  0
ENDTAB
  0
ENDSEC
  0
SECTION
  2
BLOCKS
  0
BLOCK
  5
20
330
1F
100
AcDbEntity
  8
0
100
AcDbBlockBegin
  2
*MODEL_SPACE
 70
     0
 10
0.0
 20
0.0
 30
0.0
  3
*MODEL_SPACE
  1

  0
ENDBLK
  5
21
330
1F
100
AcDbEntity
  8
0
100
AcDbBlockEnd
  0
BLOCK
  5
1C
330
1B
100
AcDbEntity
 67
     1
  8
0
100
AcDbBlockBegin
  2
*PAPER_SPACE
  1

  0
ENDBLK
  5
1D
330
1B
100
AcDbEntity
 67
     1
  8
0
100
AcDbBlockEnd
  0
ENDSEC
  0
SECTION
  2
ENTITIES
  0
SPLINE
  5
100
100
AcDbEntity
  8
Layer_1
 62
7
100
AcDbSpline
 70
8
 71
3
 72
8
 73
4
 74
0
 40
0
 40
0
 40
0
 40
0
 40
1
 40
1
 40
1
 40
1
 10
98.214008
 20
61.841020
 30
0.0
 10
90.923384
 20
62.539440
 30
0.0
 10
85.862204
 20
63.398370
 30
0.0
 10
80.596334
 20
64.830930
 30
0.0
  0
SPLINE
  5
101
100
AcDbEntity
  8
Layer_1
 62
7
100
AcDbSpline
 70
8
 71
3
 72
8
 73
4
 74
0
 40
0
 40
0
 40
0
 40
0
 40
1
 40
1
 40
1
 40
1
 10
80.596334
 20
64.830930
 30
0.0
 10
60.574771
 20
70.277700
 30
0.0
 10
43.383051
 20
82.105390
 30
0.0
 10
30.823986
 20
99.073680
 30
0.0
  0
SPLINE
  5
102
100
AcDbEntity
  8
Layer_1
 62
7
100
AcDbSpline
 70
8
 71
3
 72
8
 73
4
 74
0
 40
0
 40
0
 40
0
 40
0
 40
1
 40
1
 40
1
 40
1
 10
30.823986
 20
99.073680
 30
0.0
 10
23.157371
 20
109.431880
 30
0.0
 10
17.491572
 20
122.542930
 30
0.0
 10
14.996447
 20
135.699670
 30
0.0
  0
SPLINE
  5
103
100
AcDbEntity
  8
Layer_1
 62
7
100
AcDbSpline
 70
8
 71
3
 72
8
 73
4
 74
0
 40
0
 40
0
 40
0
 40
0
 40
1
 40
1
 40
1
 40
1
 10
14.996447
 20
135.699670
 30
0.0
 10
13.804962
 20
141.982340
 30
0.0
 10
13.535093
 20
145.195720
 30
0.0
 10
13.552645
 20
152.891110
 30
0.0
  0
SPLINE
  5
104
100
AcDbEntity
  8
Layer_1
 62
7
100
AcDbSpline
 70
8
 71
3
 72
8
 73
4
 74
0
 40
0
 40
0
 40
0
 40
0
 40
1
 40
1
 40
1
 40
1
 10
13.552645
 20
152.891110
 30
0.0
 10
13.570205
 20
160.574640
 30
0.0
 10
13.919405
 20
164.267180
 30
0.0
 10
15.248047
 20
170.817120
 30
0.0
  0
SPLINE
  5
105
100
AcDbEntity
  8
Layer_1
 62
7
100
AcDbSpline
 70
8
 71
3
 72
8
 73
4
 74
0
 40
0
 40
0
 40
0
 40
0
 40
1
 40
1
 40
1
 40
1
 10
15.248047
 20
170.817120
 30
0.0
 10
22.465655
 20
206.398537
 30
0.0
 10
50.517719
 20
234.435399
 30
0.0
 10
86.164815
 20
241.695479
 30
0.0
  0
SPLINE
  5
106
100
AcDbEntity
  8
Layer_1
 62
7
100
AcDbSpline
 70
8
 71
3
 72
8
 73
4
 74
0
 40
0
 40
0
 40
0
 40
0
 40
1
 40
1
 40
1
 40
1
 10
86.164815
 20
241.695479
 30
0.0
 10
92.969034
 20
243.081263
 30
0.0
 10
96.019748
 20
243.361094
 30
0.0
 10
104.323360
 20
243.361094
 30
0.0
  0
SPLINE
  5
107
100
AcDbEntity
  8
Layer_1
 62
7
100
AcDbSpline
 70
8
 71
3
 72
8
 73
4
 74
0
 40
0
 40
0
 40
0
 40
0
 40
1
 40
1
 40
1
 40
1
 10
104.323360
 20
243.361094
 30
0.0
 10
114.053650
 20
243.361094
 30
0.0
 10
120.201630
 20
242.575558
 30
0.0
 10
128.500810
 20
240.271905
 30
0.0
  0
SPLINE
  5
108
100
AcDbEntity
  8
Layer_1
 62
7
100
AcDbSpline
 70
8
 71
3
 72
8
 73
4
 74
0
 40
0
 40
0
 40
0
 40
0
 40
1
 40
1
 40
1
 40
1
 10
128.500810
 20
240.271905
 30
0.0
 10
150.359960
 20
234.204333
 30
0.0
 10
169.339010
 20
220.067152
 30
0.0
 10
181.383440
 20
200.880497
 30
0.0
  0
SPLINE
  5
109
100
AcDbEntity
  8
Layer_1
 62
7
100
AcDbSpline
 70
8
 71
3
 72
8
 73
4
 74
0
 40
0
 40
0
 40
0
 40
0
 40
1
 40
1
 40
1
 40
1
 10
181.383440
 20
200.880497
 30
0.0
 10
188.330510
 20
189.813900
 30
0.0
 10
192.689390
 20
177.544910
 30
0.0
 10
194.596690
 20
163.689040
 30
0.0
  0
SPLINE
  5
10a
100
AcDbEntity
  8
Layer_1
 62
7
100
AcDbSpline
 70
8
 71
3
 72
8
 73
4
 74
0
 40
0
 40
0
 40
0
 40
0
 40
1
 40
1
 40
1
 40
1
 10
194.596690
 20
163.689040
 30
0.0
 10
195.291620
 20
158.640650
 30
0.0
 10
195.279980
 20
146.498240
 30
0.0
 10
194.575290
 20
141.382780
 30
0.0
  0
SPLINE
  5
10b
100
AcDbEntity
  8
Layer_1
 62
7
100
AcDbSpline
 70
8
 71
3
 72
8
 73
4
 74
0
 40
0
 40
0
 40
0
 40
0
 40
1
 40
1
 40
1
 40
1
 10
194.575290
 20
141.382780
 30
0.0
 10
191.689600
 20
120.434320
 30
0.0
 10
183.076800
 20
102.880190
 30
0.0
 10
168.563460
 20
88.366840
 30
0.0
  0
SPLINE
  5
10c
100
AcDbEntity
  8
Layer_1
 62
7
100
AcDbSpline
 70
8
 71
3
 72
8
 73
4
 74
0
 40
0
 40
0
 40
0
 40
0
 40
1
 40
1
 40
1
 40
1
 10
168.563460
 20
88.366840
 30
0.0
 10
154.112620
 20
73.916010
 30
0.0
 10
136.374000
 20
65.182300
 30
0.0
 10
115.790000
 20
62.383540
 30
0.0
  0
SPLINE
  5
10d
100
AcDbEntity
  8
Layer_1
 62
7
100
AcDbSpline
 70
8
 71
3
 72
8
 73
4
 74
0
 40
0
 40
0
 40
0
 40
0
 40
1
 40
1
 40
1
 40
1
 10
115.790000
 20
62.383540
 30
0.0
 10
112.615780
 20
61.951950
 30
0.0
 10
100.847840
 20
61.588710
 30
0.0
 10
98.213990
 20
61.841020
 30
0.0
  0
LINE
  5
10e
100
AcDbEntity
  8
Layer_1
 62
7
100
AcDbLine
 10
98.213990
 20
61.841020
 30
0.0
 11
98.214008
 21
61.841020
 31
0.0
  0
SPLINE
  5
10f
100
AcDbEntity
  8
Layer_1
 62
7
100
AcDbSpline
 70
8
 71
3
 72
8
 73
4
 74
0
 40
0
 40
0
 40
0
 40
0
 40
1
 40
1
 40
1
 40
1
 10
111.569350
 20
68.496590
 30
0.0
 10
155.383010
 20
72.470680
 30
0.0
 10
188.717250
 20
108.813280
 30
0.0
 10
188.717250
 20
152.606960
 30
0.0
  0
SPLINE
  5
110
100
AcDbEntity
  8
Layer_1
 62
7
100
AcDbSpline
 70
8
 71
3
 72
8
 73
4
 74
0
 40
0
 40
0
 40
0
 40
0
 40
1
 40
1
 40
1
 40
1
 10
188.717250
 20
152.606960
 30
0.0
 10
188.717250
 20
199.192368
 30
0.0
 10
150.908780
 20
237.000840
 30
0.0
 10
104.323360
 20
237.000840
 30
0.0
  0
SPLINE
  5
111
100
AcDbEntity
  8
Layer_1
 62
7
100
AcDbSpline
 70
8
 71
3
 72
8
 73
4
 74
0
 40
0
 40
0
 40
0
 40
0
 40
1
 40
1
 40
1
 40
1
 10
104.323360
 20
237.000840
 30
0.0
 10
57.755069
 20
237.000840
 30
0.0
 10
19.929483
 20
199.175251
 30
0.0
 10
19.929483
 20
152.606960
 30
0.0
  0
SPLINE
  5
112
100
AcDbEntity
  8
Layer_1
 62
7
100
AcDbSpline
 70
8
 71
3
 72
8
 73
4
 74
0
 40
0
 40
0
 40
0
 40
0
 40
1
 40
1
 40
1
 40
1
 10
19.929483
 20
152.606960
 30
0.0
 10
19.929483
 20
111.138540
 30
0.0
 10
50.053181
 20
75.851570
 30
0.0
 10
91.110103
 20
69.225810
 30
0.0
  0
SPLINE
  5
113
100
AcDbEntity
  8
Layer_1
 62
7
100
AcDbSpline
 70
8
 71
3
 72
8
 73
4
 74
0
 40
0
 40
0
 40
0
 40
0
 40
1
 40
1
 40
1
 40
1
 10
91.110103
 20
69.225810
 30
0.0
 10
97.179608
 20
68.246320
 30
0.0
 10
105.529160
 20
67.948720
 30
0.0
 10
111.569350
 20
68.496590
 30
0.0
  0
LINE
  5
114
100
AcDbEntity
  8
Layer_1
 62
7
100
AcDbLine
 10
111.569350
 20
68.496590
 30
0.0
 11
111.569350
 21
68.496590
 31
0.0
  0
SPLINE
  5
115
100
AcDbEntity
  8
Layer_1
 62
7
100
AcDbSpline
 70
8
 71
3
 72
8
 73
4
 74
0
 40
0
 40
0
 40
0
 40
0
 40
1
 40
1
 40
1
 40
1
 10
103.312090
 20
70.320700
 30
0.0
 10
102.783650
 20
70.706940
 30
0.0
 10
102.760510
 20
71.155820
 30
0.0
 10
102.760510
 20
81.016700
 30
0.0
  0
LINE
  5
116
100
AcDbEntity
  8
Layer_1
 62
7
100
AcDbLine
 10
102.760510
 20
81.016700
 30
0.0
 11
102.760510
 21
91.309530
 31
0.0
  0
LINE
  5
117
100
AcDbEntity
  8
Layer_1
 62
7
100
AcDbLine
 10
102.760510
 20
91.309530
 30
0.0
 11
103.541930
 21
91.893180
 31
0.0
  0
LINE
  5
118
100
AcDbEntity
  8
Layer_1
 62
7
100
AcDbLine
 10
103.541930
 20
91.893180
 30
0.0
 11
104.323360
 21
92.476830
 31
0.0
  0
LINE
  5
119
100
AcDbEntity
  8
Layer_1
 62
7
100
AcDbLine
 10
104.323360
 20
92.476830
 30
0.0
 11
105.104790
 21
91.893180
 31
0.0
  0
LINE
  5
11a
100
AcDbEntity
  8
Layer_1
 62
7
100
AcDbLine
 10
105.104790
 20
91.893180
 30
0.0
 11
105.886220
 21
91.309530
 31
0.0
  0
LINE
  5
11b
100
AcDbEntity
  8
Layer_1
 62
7
100
AcDbLine
 10
105.886220
 20
91.309530
 30
0.0
 11
105.886220
 21
81.016700
 31
0.0
  0
SPLINE
  5
11c
100
AcDbEntity
  8
Layer_1
 62
7
100
AcDbSpline
 70
8
 71
3
 72
8
 73
4
 74
0
 40
0
 40
0
 40
0
 40
0
 40
1
 40
1
 40
1
 40
1
 10
105.886220
 20
81.016700
 30
0.0
 10
105.886220
 20
71.155820
 30
0.0
 10
105.863020
 20
70.706940
 30
0.0
 10
105.334640
 20
70.320700
 30
0.0
  0
SPLINE
  5
11d
100
AcDbEntity
  8
Layer_1
 62
7
100
AcDbSpline
 70
8
 71
3
 72
8
 73
4
 74
0
 40
0
 40
0
 40
0
 40
0
 40
1
 40
1
 40
1
 40
1
 10
105.334640
 20
70.320700
 30
0.0
 10
105.031270
 20
70.098960
 30
0.0
 10
104.576200
 20
69.917530
 30
0.0
 10
104.323360
 20
69.917530
 30
0.0
  0
SPLINE
  5
11e
100
AcDbEntity
  8
Layer_1
 62
7
100
AcDbSpline
 70
8
 71
3
 72
8
 73
4
 74
0
 40
0
 40
0
 40
0
 40
0
 40
1
 40
1
 40
1
 40
1
 10
104.323360
 20
69.917530
 30
0.0
 10
104.070540
 20
69.917530
 30
0.0
 10
103.615460
 20
70.098960
 30
0.0
 10
103.312090
 20
70.320700
 30
0.0
  0
LINE
  5
11f
100
AcDbEntity
  8
Layer_1
 62
7
100
AcDbLine
 10
103.312090
 20
70.320700
 30
0.0
 11
103.312090
 21
70.320700
 31
0.0
  0
SPLINE
  5
120
100
AcDbEntity
  8
Layer_1
 62
7
100
AcDbSpline
 70
8
 71
3
 72
8
 73
4
 74
0
 40
0
 40
0
 40
0
 40
0
 40
1
 40
1
 40
1
 40
1
 10
63.120730
 20
81.081430
 30
0.0
 10
61.668921
 20
81.812230
 30
0.0
 10
61.912837
 20
82.446850
 30
0.0
 10
67.104409
 20
91.446130
 30
0.0
  0
SPLINE
  5
121
100
AcDbEntity
  8
Layer_1
 62
7
100
AcDbSpline
 70
8
 71
3
 72
8
 73
4
 74
0
 40
0
 40
0
 40
0
 40
0
 40
1
 40
1
 40
1
 40
1
 10
67.104409
 20
91.446130
 30
0.0
 10
69.785456
 20
96.093550
 30
0.0
 10
72.184148
 20
100.055840
 30
0.0
 10
72.434846
 20
100.251190
 30
0.0
  0
SPLINE
  5
122
100
AcDbEntity
  8
Layer_1
 62
7
100
AcDbSpline
 70
8
 71
3
 72
8
 73
4
 74
0
 40
0
 40
0
 40
0
 40
0
 40
1
 40
1
 40
1
 40
1
 10
72.434846
 20
100.251190
 30
0.0
 10
73.461328
 20
101.051090
 30
0.0
 10
74.874369
 20
100.326990
 30
0.0
 10
74.851638
 20
99.012720
 30
0.0
  0
SPLINE
  5
123
100
AcDbEntity
  8
Layer_1
 62
7
100
AcDbSpline
 70
8
 71
3
 72
8
 73
4
 74
0
 40
0
 40
0
 40
0
 40
0
 40
1
 40
1
 40
1
 40
1
 10
74.851638
 20
99.012720
 30
0.0
 10
74.835928
 20
98.106000
 30
0.0
 10
65.748534
 20
82.068300
 30
0.0
 10
64.765669
 20
81.212740
 30
0.0
  0
SPLINE
  5
124
100
AcDbEntity
  8
Layer_1
 62
7
100
AcDbSpline
 70
8
 71
3
 72
8
 73
4
 74
0
 40
0
 40
0
 40
0
 40
0
 40
1
 40
1
 40
1
 40
1
 10
64.765669
 20
81.212740
 30
0.0
 10
64.088903
 20
80.623630
 30
0.0
 10
64.038230
 20
80.619590
 30
0.0
 10
63.120730
 20
81.081430
 30
0.0
  0
LINE
  5
125
100
AcDbEntity
  8
Layer_1
 62
7
100
AcDbLine
 10
63.120730
 20
81.081430
 30
0.0
 11
63.120730
 21
81.081430
 31
0.0
  0
SPLINE
  5
126
100
AcDbEntity
  8
Layer_1
 62
7
100
AcDbSpline
 70
8
 71
3
 72
8
 73
4
 74
0
 40
0
 40
0
 40
0
 40
0
 40
1
 40
1
 40
1
 40
1
 10
143.889190
 20
81.206160
 30
0.0
 10
142.901170
 20
82.065360
 30
0.0
 10
133.810860
 20
98.101180
 30
0.0
 10
133.795090
 20
99.012720
 30
0.0
  0
SPLINE
  5
127
100
AcDbEntity
  8
Layer_1
 62
7
100
AcDbSpline
 70
8
 71
3
 72
8
 73
4
 74
0
 40
0
 40
0
 40
0
 40
0
 40
1
 40
1
 40
1
 40
1
 10
133.795090
 20
99.012720
 30
0.0
 10
133.772390
 20
100.326970
 30
0.0
 10
135.185400
 20
101.051090
 30
0.0
 10
136.211880
 20
100.251190
 30
0.0
  0
SPLINE
  5
128
100
AcDbEntity
  8
Layer_1
 62
7
100
AcDbSpline
 70
8
 71
3
 72
8
 73
4
 74
0
 40
0
 40
0
 40
0
 40
0
 40
1
 40
1
 40
1
 40
1
 10
136.211880
 20
100.251190
 30
0.0
 10
136.988440
 20
99.646050
 30
0.0
 10
146.378470
 20
83.112350
 30
0.0
 10
146.378470
 20
82.350140
 30
0.0
  0
SPLINE
  5
129
100
AcDbEntity
  8
Layer_1
 62
7
100
AcDbSpline
 70
8
 71
3
 72
8
 73
4
 74
0
 40
0
 40
0
 40
0
 40
0
 40
1
 40
1
 40
1
 40
1
 10
146.378470
 20
82.350140
 30
0.0
 10
146.378470
 20
81.092760
 30
0.0
 10
144.835160
 20
80.383520
 30
0.0
 10
143.889190
 20
81.206160
 30
0.0
  0
LINE
  5
12a
100
AcDbEntity
  8
Layer_1
 62
7
100
AcDbLine
 10
143.889190
 20
81.206160
 30
0.0
 11
143.889190
 21
81.206160
 31
0.0
  0
SPLINE
  5
12b
100
AcDbEntity
  8
Layer_1
 62
7
100
AcDbSpline
 70
8
 71
3
 72
8
 73
4
 74
0
 40
0
 40
0
 40
0
 40
0
 40
1
 40
1
 40
1
 40
1
 10
32.824352
 20
111.273880
 30
0.0
 10
32.459211
 20
111.831160
 30
0.0
 10
32.419042
 20
112.144680
 30
0.0
 10
32.648322
 20
112.647900
 30
0.0
  0
SPLINE
  5
12c
100
AcDbEntity
  8
Layer_1
 62
7
100
AcDbSpline
 70
8
 71
3
 72
8
 73
4
 74
0
 40
0
 40
0
 40
0
 40
0
 40
1
 40
1
 40
1
 40
1
 10
32.648322
 20
112.647900
 30
0.0
 10
32.845915
 20
113.081570
 30
0.0
 10
35.594887
 20
114.826230
 30
0.0
 10
40.858115
 20
117.858300
 30
0.0
  0
SPLINE
  5
12d
100
AcDbEntity
  8
Layer_1
 62
7
100
AcDbSpline
 70
8
 71
3
 72
8
 73
4
 74
0
 40
0
 40
0
 40
0
 40
0
 40
1
 40
1
 40
1
 40
1
 10
40.858115
 20
117.858300
 30
0.0
 10
50.863004
 20
123.621990
 30
0.0
 10
50.418636
 20
123.400560
 30
0.0
 10
51.304344
 20
123.063810
 30
0.0
  0
SPLINE
  5
12e
100
AcDbEntity
  8
Layer_1
 62
7
100
AcDbSpline
 70
8
 71
3
 72
8
 73
4
 74
0
 40
0
 40
0
 40
0
 40
0
 40
1
 40
1
 40
1
 40
1
 10
51.304344
 20
123.063810
 30
0.0
 10
52.119153
 20
122.754020
 30
0.0
 10
52.510932
 20
121.660550
 30
0.0
 10
52.087135
 20
120.878980
 30
0.0
  0
SPLINE
  5
12f
100
AcDbEntity
  8
Layer_1
 62
7
100
AcDbSpline
 70
8
 71
3
 72
8
 73
4
 74
0
 40
0
 40
0
 40
0
 40
0
 40
1
 40
1
 40
1
 40
1
 10
52.087135
 20
120.878980
 30
0.0
 10
51.682695
 20
120.133090
 30
0.0
 10
34.929696
 20
110.551850
 30
0.0
 10
34.029941
 20
110.551850
 30
0.0
  0
SPLINE
  5
130
100
AcDbEntity
  8
Layer_1
 62
7
100
AcDbSpline
 70
8
 71
3
 72
8
 73
4
 74
0
 40
0
 40
0
 40
0
 40
0
 40
1
 40
1
 40
1
 40
1
 10
34.029941
 20
110.551850
 30
0.0
 10
33.559024
 20
110.551850
 30
0.0
 10
33.128502
 20
110.809690
 30
0.0
 10
32.824352
 20
111.273880
 30
0.0
  0
LINE
  5
131
100
AcDbEntity
  8
Layer_1
 62
7
100
AcDbLine
 10
32.824352
 20
111.273880
 30
0.0
 11
32.824352
 21
111.273880
 31
0.0
  0
SPLINE
  5
132
100
AcDbEntity
  8
Layer_1
 62
7
100
AcDbSpline
 70
8
 71
3
 72
8
 73
4
 74
0
 40
0
 40
0
 40
0
 40
0
 40
1
 40
1
 40
1
 40
1
 10
165.316250
 20
115.480570
 30
0.0
 10
160.650450
 20
118.180600
 30
0.0
 10
156.706890
 20
120.614990
 30
0.0
 10
156.552810
 20
120.890330
 30
0.0
  0
SPLINE
  5
133
100
AcDbEntity
  8
Layer_1
 62
7
100
AcDbSpline
 70
8
 71
3
 72
8
 73
4
 74
0
 40
0
 40
0
 40
0
 40
0
 40
1
 40
1
 40
1
 40
1
 10
156.552810
 20
120.890330
 30
0.0
 10
156.129510
 20
121.646730
 30
0.0
 10
156.532410
 20
122.755860
 30
0.0
 10
157.342380
 20
123.063810
 30
0.0
  0
SPLINE
  5
134
100
AcDbEntity
  8
Layer_1
 62
7
100
AcDbSpline
 70
8
 71
3
 72
8
 73
4
 74
0
 40
0
 40
0
 40
0
 40
0
 40
1
 40
1
 40
1
 40
1
 10
157.342380
 20
123.063810
 30
0.0
 10
158.228090
 20
123.400560
 30
0.0
 10
157.783720
 20
123.621990
 30
0.0
 10
167.788610
 20
117.858300
 30
0.0
  0
SPLINE
  5
135
100
AcDbEntity
  8
Layer_1
 62
7
100
AcDbSpline
 70
8
 71
3
 72
8
 73
4
 74
0
 40
0
 40
0
 40
0
 40
0
 40
1
 40
1
 40
1
 40
1
 10
167.788610
 20
117.858300
 30
0.0
 10
173.051840
 20
114.826230
 30
0.0
 10
175.800810
 20
113.081570
 30
0.0
 10
175.998410
 20
112.647900
 30
0.0
  0
SPLINE
  5
136
100
AcDbEntity
  8
Layer_1
 62
7
100
AcDbSpline
 70
8
 71
3
 72
8
 73
4
 74
0
 40
0
 40
0
 40
0
 40
0
 40
1
 40
1
 40
1
 40
1
 10
175.998410
 20
112.647900
 30
0.0
 10
176.422380
 20
111.717360
 30
0.0
 10
175.624490
 20
110.548380
 30
0.0
 10
174.574410
 20
110.561630
 30
0.0
  0
SPLINE
  5
137
100
AcDbEntity
  8
Layer_1
 62
7
100
AcDbSpline
 70
8
 71
3
 72
8
 73
4
 74
0
 40
0
 40
0
 40
0
 40
0
 40
1
 40
1
 40
1
 40
1
 10
174.574410
 20
110.561630
 30
0.0
 10
174.100510
 20
110.567630
 30
0.0
 10
170.504360
 20
112.478280
 30
0.0
 10
165.316250
 20
115.480570
 30
0.0
  0
LINE
  5
138
100
AcDbEntity
  8
Layer_1
 62
7
100
AcDbLine
 10
165.316250
 20
115.480570
 30
0.0
 11
165.316250
 21
115.480570
 31
0.0
  0
LINE
  5
139
100
AcDbEntity
  8
Layer_1
 62
7
100
AcDbLine
 10
106.332210
 20
136.301750
 30
0.0
 11
108.492310
 21
142.134100
 31
0.0
  0
LINE
  5
13a
100
AcDbEntity
  8
Layer_1
 62
7
100
AcDbLine
 10
108.492310
 20
142.134100
 30
0.0
 11
108.290260
 21
145.794970
 31
0.0
  0
SPLINE
  5
13b
100
AcDbEntity
  8
Layer_1
 62
7
100
AcDbSpline
 70
8
 71
3
 72
8
 73
4
 74
0
 40
0
 40
0
 40
0
 40
0
 40
1
 40
1
 40
1
 40
1
 10
108.290260
 20
145.794970
 30
0.0
 10
108.083510
 20
149.541760
 30
0.0
 10
107.169160
 20
164.706290
 30
0.0
 10
105.985550
 20
184.019320
 30
0.0
  0
SPLINE
  5
13c
100
AcDbEntity
  8
Layer_1
 62
7
100
AcDbSpline
 70
8
 71
3
 72
8
 73
4
 74
0
 40
0
 40
0
 40
0
 40
0
 40
1
 40
1
 40
1
 40
1
 10
105.985550
 20
184.019320
 30
0.0
 10
105.619700
 20
189.988880
 30
0.0
 10
105.091040
 20
198.653642
 30
0.0
 10
104.810730
 20
203.274327
 30
0.0
  0
SPLINE
  5
13d
100
AcDbEntity
  8
Layer_1
 62
7
100
AcDbSpline
 70
8
 71
3
 72
8
 73
4
 74
0
 40
0
 40
0
 40
0
 40
0
 40
1
 40
1
 40
1
 40
1
 10
104.810730
 20
203.274327
 30
0.0
 10
104.530420
 20
207.895011
 30
0.0
 10
104.242490
 20
211.716143
 30
0.0
 10
104.170890
 20
211.765732
 30
0.0
  0
SPLINE
  5
13e
100
AcDbEntity
  8
Layer_1
 62
7
100
AcDbSpline
 70
8
 71
3
 72
8
 73
4
 74
0
 40
0
 40
0
 40
0
 40
0
 40
1
 40
1
 40
1
 40
1
 10
104.170890
 20
211.765732
 30
0.0
 10
104.099290
 20
211.815312
 30
0.0
 10
103.945670
 20
210.174562
 30
0.0
 10
103.829510
 20
208.119602
 30
0.0
  0
SPLINE
  5
13f
100
AcDbEntity
  8
Layer_1
 62
7
100
AcDbSpline
 70
8
 71
3
 72
8
 73
4
 74
0
 40
0
 40
0
 40
0
 40
0
 40
1
 40
1
 40
1
 40
1
 10
103.829510
 20
208.119602
 30
0.0
 10
103.713350
 20
206.064640
 30
0.0
 10
102.725900
 20
190.380290
 30
0.0
 10
101.635170
 20
173.265480
 30
0.0
  0
LINE
  5
140
100
AcDbEntity
  8
Layer_1
 62
7
100
AcDbLine
 10
101.635170
 20
173.265480
 30
0.0
 11
99.652023
 21
142.147630
 31
0.0
  0
LINE
  5
141
100
AcDbEntity
  8
Layer_1
 62
7
100
AcDbLine
 10
99.652023
 20
142.147630
 30
0.0
 11
101.775300
 21
136.396620
 31
0.0
  0
SPLINE
  5
142
100
AcDbEntity
  8
Layer_1
 62
7
100
AcDbSpline
 70
8
 71
3
 72
8
 73
4
 74
0
 40
0
 40
0
 40
0
 40
0
 40
1
 40
1
 40
1
 40
1
 10
101.775300
 20
136.396620
 30
0.0
 10
102.943110
 20
133.233560
 30
0.0
 10
103.960140
 20
130.605960
 30
0.0
 10
104.035380
 20
130.557510
 30
0.0
  0
SPLINE
  5
143
100
AcDbEntity
  8
Layer_1
 62
7
100
AcDbSpline
 70
8
 71
3
 72
8
 73
4
 74
0
 40
0
 40
0
 40
0
 40
0
 40
1
 40
1
 40
1
 40
1
 10
104.035380
 20
130.557510
 30
0.0
 10
104.110680
 20
130.509110
 30
0.0
 10
105.144210
 20
133.093970
 30
0.0
 10
106.332260
 20
136.301760
 30
0.0
  0
LINE
  5
144
100
AcDbEntity
  8
Layer_1
 62
7
100
AcDbLine
 10
106.332260
 20
136.301760
 30
0.0
 11
106.332210
 21
136.301750
 31
0.0
  0
SPLINE
  5
145
100
AcDbEntity
  8
Layer_1
 62
7
100
AcDbSpline
 70
8
 71
3
 72
8
 73
4
 74
0
 40
0
 40
0
 40
0
 40
0
 40
1
 40
1
 40
1
 40
1
 10
97.873153
 20
134.595880
 30
0.0
 10
98.727303
 20
134.951990
 30
0.0
 10
99.481223
 20
135.322890
 30
0.0
 10
99.548553
 20
135.420090
 30
0.0
  0
SPLINE
  5
146
100
AcDbEntity
  8
Layer_1
 62
7
100
AcDbSpline
 70
8
 71
3
 72
8
 73
4
 74
0
 40
0
 40
0
 40
0
 40
0
 40
1
 40
1
 40
1
 40
1
 10
99.548553
 20
135.420090
 30
0.0
 10
99.653533
 20
135.571670
 30
0.0
 10
99.059373
 20
137.357110
 30
0.0
 10
98.132583
 20
139.674980
 30
0.0
  0
SPLINE
  5
147
100
AcDbEntity
  8
Layer_1
 62
7
100
AcDbSpline
 70
8
 71
3
 72
8
 73
4
 74
0
 40
0
 40
0
 40
0
 40
0
 40
1
 40
1
 40
1
 40
1
 10
98.132583
 20
139.674980
 30
0.0
 10
97.886543
 20
140.290330
 30
0.0
 10
97.862923
 20
140.292580
 30
0.0
 10
97.610684
 20
139.724580
 30
0.0
  0
SPLINE
  5
148
100
AcDbEntity
  8
Layer_1
 62
7
100
AcDbSpline
 70
8
 71
3
 72
8
 73
4
 74
0
 40
0
 40
0
 40
0
 40
0
 40
1
 40
1
 40
1
 40
1
 10
97.610684
 20
139.724580
 30
0.0
 10
96.790719
 20
137.878200
 30
0.0
 10
95.630531
 20
133.767520
 30
0.0
 10
95.953251
 20
133.852160
 30
0.0
  0
SPLINE
  5
149
100
AcDbEntity
  8
Layer_1
 62
7
100
AcDbSpline
 70
8
 71
3
 72
8
 73
4
 74
0
 40
0
 40
0
 40
0
 40
0
 40
1
 40
1
 40
1
 40
1
 10
95.953251
 20
133.852160
 30
0.0
 10
96.155054
 20
133.905060
 30
0.0
 10
97.019015
 20
134.239750
 30
0.0
 10
97.873153
 20
134.595870
 30
0.0
  0
LINE
  5
14a
100
AcDbEntity
  8
Layer_1
 62
7
100
AcDbLine
 10
97.873153
 20
134.595870
 30
0.0
 11
97.873153
 21
134.595880
 31
0.0
  0
SPLINE
  5
14b
100
AcDbEntity
  8
Layer_1
 62
7
100
AcDbSpline
 70
8
 71
3
 72
8
 73
4
 74
0
 40
0
 40
0
 40
0
 40
0
 40
1
 40
1
 40
1
 40
1
 10
22.202455
 20
151.470330
 30
0.0
 10
21.533470
 20
152.139310
 30
0.0
 10
21.478520
 20
152.853690
 30
0.0
 10
22.037234
 20
153.618230
 30
0.0
  0
SPLINE
  5
14c
100
AcDbEntity
  8
Layer_1
 62
7
100
AcDbSpline
 70
8
 71
3
 72
8
 73
4
 74
0
 40
0
 40
0
 40
0
 40
0
 40
1
 40
1
 40
1
 40
1
 10
22.037234
 20
153.618230
 30
0.0
 10
22.421602
 20
154.144190
 30
0.0
 10
22.913405
 20
154.172970
 30
0.0
 10
32.622046
 20
154.237880
 30
0.0
  0
SPLINE
  5
14d
100
AcDbEntity
  8
Layer_1
 62
7
100
AcDbSpline
 70
8
 71
3
 72
8
 73
4
 74
0
 40
0
 40
0
 40
0
 40
0
 40
1
 40
1
 40
1
 40
1
 10
32.622046
 20
154.237880
 30
0.0
 10
43.854321
 20
154.312980
 30
0.0
 10
43.893032
 20
154.307380
 30
0.0
 10
43.893032
 20
152.606960
 30
0.0
  0
SPLINE
  5
14e
100
AcDbEntity
  8
Layer_1
 62
7
100
AcDbSpline
 70
8
 71
3
 72
8
 73
4
 74
0
 40
0
 40
0
 40
0
 40
0
 40
1
 40
1
 40
1
 40
1
 10
43.893032
 20
152.606960
 30
0.0
 10
43.893032
 20
150.932900
 30
0.0
 10
43.815142
 20
150.921000
 30
0.0
 10
32.787266
 20
150.911050
 30
0.0
  0
SPLINE
  5
14f
100
AcDbEntity
  8
Layer_1
 62
7
100
AcDbSpline
 70
8
 71
3
 72
8
 73
4
 74
0
 40
0
 40
0
 40
0
 40
0
 40
1
 40
1
 40
1
 40
1
 10
32.787266
 20
150.911050
 30
0.0
 10
23.143282
 20
150.902050
 30
0.0
 10
22.749635
 20
150.923150
 30
0.0
 10
22.202455
 20
151.470330
 30
0.0
  0
LINE
  5
150
100
AcDbEntity
  8
Layer_1
 62
7
100
AcDbLine
 10
22.202455
 20
151.470330
 30
0.0
 11
22.202455
 21
151.470330
 31
0.0
  0
SPLINE
  5
151
100
AcDbEntity
  8
Layer_1
 62
7
100
AcDbSpline
 70
8
 71
3
 72
8
 73
4
 74
0
 40
0
 40
0
 40
0
 40
0
 40
1
 40
1
 40
1
 40
1
 10
165.148610
 20
151.657060
 30
0.0
 10
164.503710
 20
152.476930
 30
0.0
 10
164.593200
 20
153.337150
 30
0.0
 10
165.387430
 20
153.952630
 30
0.0
  0
SPLINE
  5
152
100
AcDbEntity
  8
Layer_1
 62
7
100
AcDbSpline
 70
8
 71
3
 72
8
 73
4
 74
0
 40
0
 40
0
 40
0
 40
0
 40
1
 40
1
 40
1
 40
1
 10
165.387430
 20
153.952630
 30
0.0
 10
165.735320
 20
154.222240
 30
0.0
 10
168.255890
 20
154.289820
 30
0.0
 10
176.025080
 20
154.237880
 30
0.0
  0
SPLINE
  5
153
100
AcDbEntity
  8
Layer_1
 62
7
100
AcDbSpline
 70
8
 71
3
 72
8
 73
4
 74
0
 40
0
 40
0
 40
0
 40
0
 40
1
 40
1
 40
1
 40
1
 10
176.025080
 20
154.237880
 30
0.0
 10
185.733720
 20
154.172980
 30
0.0
 10
186.225530
 20
154.144180
 30
0.0
 10
186.609890
 20
153.618230
 30
0.0
  0
SPLINE
  5
154
100
AcDbEntity
  8
Layer_1
 62
7
100
AcDbSpline
 70
8
 71
3
 72
8
 73
4
 74
0
 40
0
 40
0
 40
0
 40
0
 40
1
 40
1
 40
1
 40
1
 10
186.609890
 20
153.618230
 30
0.0
 10
187.168600
 20
152.853690
 30
0.0
 10
187.113650
 20
152.139310
 30
0.0
 10
186.444670
 20
151.470330
 30
0.0
  0
SPLINE
  5
155
100
AcDbEntity
  8
Layer_1
 62
7
100
AcDbSpline
 70
8
 71
3
 72
8
 73
4
 74
0
 40
0
 40
0
 40
0
 40
0
 40
1
 40
1
 40
1
 40
1
 10
186.444670
 20
151.470330
 30
0.0
 10
185.897750
 20
150.923400
 30
0.0
 10
185.497490
 20
150.902020
 30
0.0
 10
175.809440
 20
150.902020
 30
0.0
  0
LINE
  5
156
100
AcDbEntity
  8
Layer_1
 62
7
100
AcDbLine
 10
175.809440
 20
150.902020
 30
0.0
 11
165.742520
 21
150.902020
 31
0.0
  0
LINE
  5
157
100
AcDbEntity
  8
Layer_1
 62
7
100
AcDbLine
 10
165.742520
 20
150.902020
 30
0.0
 11
165.148610
 21
151.657060
 31
0.0
  0
SPLINE
  5
158
100
AcDbEntity
  8
Layer_1
 62
7
100
AcDbSpline
 70
8
 71
3
 72
8
 73
4
 74
0
 40
0
 40
0
 40
0
 40
0
 40
1
 40
1
 40
1
 40
1
 10
115.438260
 20
151.127110
 30
0.0
 10
117.897880
 20
154.201730
 30
0.0
 10
122.812040
 20
160.317350
 30
0.0
 10
126.358620
 20
164.717380
 30
0.0
  0
SPLINE
  5
159
100
AcDbEntity
  8
Layer_1
 62
7
100
AcDbSpline
 70
8
 71
3
 72
8
 73
4
 74
0
 40
0
 40
0
 40
0
 40
0
 40
1
 40
1
 40
1
 40
1
 10
126.358620
 20
164.717380
 30
0.0
 10
129.905200
 20
169.117410
 30
0.0
 10
133.033980
 20
172.999880
 30
0.0
 10
133.311430
 20
173.345080
 30
0.0
  0
SPLINE
  5
15a
100
AcDbEntity
  8
Layer_1
 62
7
100
AcDbSpline
 70
8
 71
3
 72
8
 73
4
 74
0
 40
0
 40
0
 40
0
 40
0
 40
1
 40
1
 40
1
 40
1
 10
133.311430
 20
173.345080
 30
0.0
 10
134.157480
 20
174.397740
 30
0.0
 10
132.476960
 20
172.932720
 30
0.0
 10
120.974440
 20
162.590170
 30
0.0
  0
LINE
  5
15b
100
AcDbEntity
  8
Layer_1
 62
7
100
AcDbLine
 10
120.974440
 20
162.590170
 30
0.0
 11
110.144650
 21
152.852530
 31
0.0
  0
LINE
  5
15c
100
AcDbEntity
  8
Layer_1
 62
7
100
AcDbLine
 10
110.144650
 20
152.852530
 30
0.0
 11
110.381730
 21
149.651170
 31
0.0
  0
SPLINE
  5
15d
100
AcDbEntity
  8
Layer_1
 62
7
100
AcDbSpline
 70
8
 71
3
 72
8
 73
4
 74
0
 40
0
 40
0
 40
0
 40
0
 40
1
 40
1
 40
1
 40
1
 10
110.381730
 20
149.651170
 30
0.0
 10
110.512130
 20
147.890420
 30
0.0
 10
110.595530
 20
146.218140
 30
0.0
 10
110.567070
 20
145.935010
 30
0.0
  0
SPLINE
  5
15e
100
AcDbEntity
  8
Layer_1
 62
7
100
AcDbSpline
 70
8
 71
3
 72
8
 73
4
 74
0
 40
0
 40
0
 40
0
 40
0
 40
1
 40
1
 40
1
 40
1
 10
110.567070
 20
145.935010
 30
0.0
 10
110.538570
 20
145.651860
 30
0.0
 10
110.616770
 20
145.446450
 30
0.0
 10
110.740830
 20
145.478560
 30
0.0
  0
SPLINE
  5
15f
100
AcDbEntity
  8
Layer_1
 62
7
100
AcDbSpline
 70
8
 71
3
 72
8
 73
4
 74
0
 40
0
 40
0
 40
0
 40
0
 40
1
 40
1
 40
1
 40
1
 10
110.740830
 20
145.478560
 30
0.0
 10
110.864910
 20
145.510260
 30
0.0
 10
112.978700
 20
148.052520
 30
0.0
 10
115.438310
 20
151.127120
 30
0.0
  0
LINE
  5
160
100
AcDbEntity
  8
Layer_1
 62
7
100
AcDbLine
 10
115.438310
 20
151.127120
 30
0.0
 11
115.438260
 21
151.127110
 31
0.0
  0
SPLINE
  5
161
100
AcDbEntity
  8
Layer_1
 62
7
100
AcDbSpline
 70
8
 71
3
 72
8
 73
4
 74
0
 40
0
 40
0
 40
0
 40
0
 40
1
 40
1
 40
1
 40
1
 10
49.623320
 20
182.351060
 30
0.0
 10
49.154457
 20
182.597670
 30
0.0
 10
45.210117
 20
184.850230
 30
0.0
 10
40.858115
 20
187.356740
 30
0.0
  0
SPLINE
  5
162
100
AcDbEntity
  8
Layer_1
 62
7
100
AcDbSpline
 70
8
 71
3
 72
8
 73
4
 74
0
 40
0
 40
0
 40
0
 40
0
 40
1
 40
1
 40
1
 40
1
 10
40.858115
 20
187.356740
 30
0.0
 10
35.593977
 20
190.388590
 30
0.0
 10
32.845955
 20
192.132260
 30
0.0
 10
32.648322
 20
192.566020
 30
0.0
  0
SPLINE
  5
163
100
AcDbEntity
  8
Layer_1
 62
7
100
AcDbSpline
 70
8
 71
3
 72
8
 73
4
 74
0
 40
0
 40
0
 40
0
 40
0
 40
1
 40
1
 40
1
 40
1
 10
32.648322
 20
192.566020
 30
0.0
 10
32.235625
 20
193.471780
 30
0.0
 10
33.021542
 20
194.662060
 30
0.0
 10
34.032285
 20
194.662060
 30
0.0
  0
SPLINE
  5
164
100
AcDbEntity
  8
Layer_1
 62
7
100
AcDbSpline
 70
8
 71
3
 72
8
 73
4
 74
0
 40
0
 40
0
 40
0
 40
0
 40
1
 40
1
 40
1
 40
1
 10
34.032285
 20
194.662060
 30
0.0
 10
34.826329
 20
194.662060
 30
0.0
 10
51.361727
 20
185.297290
 30
0.0
 10
51.967602
 20
184.504460
 30
0.0
  0
SPLINE
  5
165
100
AcDbEntity
  8
Layer_1
 62
7
100
AcDbSpline
 70
8
 71
3
 72
8
 73
4
 74
0
 40
0
 40
0
 40
0
 40
0
 40
1
 40
1
 40
1
 40
1
 10
51.967602
 20
184.504460
 30
0.0
 10
53.096581
 20
183.027110
 30
0.0
 10
51.363909
 20
181.435510
 30
0.0
 10
49.623320
 20
182.351060
 30
0.0
  0
LINE
  5
166
100
AcDbEntity
  8
Layer_1
 62
7
100
AcDbLine
 10
49.623320
 20
182.351060
 30
0.0
 11
49.623320
 21
182.351060
 31
0.0
  0
SPLINE
  5
167
100
AcDbEntity
  8
Layer_1
 62
7
100
AcDbSpline
 70
8
 71
3
 72
8
 73
4
 74
0
 40
0
 40
0
 40
0
 40
0
 40
1
 40
1
 40
1
 40
1
 10
157.255940
 20
182.164890
 30
0.0
 10
156.515250
 20
182.462940
 30
0.0
 10
156.154650
 20
183.589490
 30
0.0
 10
156.561340
 20
184.334930
 30
0.0
  0
SPLINE
  5
168
100
AcDbEntity
  8
Layer_1
 62
7
100
AcDbSpline
 70
8
 71
3
 72
8
 73
4
 74
0
 40
0
 40
0
 40
0
 40
0
 40
1
 40
1
 40
1
 40
1
 10
156.561340
 20
184.334930
 30
0.0
 10
156.968480
 20
185.081190
 30
0.0
 10
173.720160
 20
194.662060
 30
0.0
 10
174.617820
 20
194.662060
 30
0.0
  0
SPLINE
  5
169
100
AcDbEntity
  8
Layer_1
 62
7
100
AcDbSpline
 70
8
 71
3
 72
8
 73
4
 74
0
 40
0
 40
0
 40
0
 40
0
 40
1
 40
1
 40
1
 40
1
 10
174.617820
 20
194.662060
 30
0.0
 10
175.625180
 20
194.662060
 30
0.0
 10
176.410310
 20
193.470050
 30
0.0
 10
175.998410
 20
192.566020
 30
0.0
  0
SPLINE
  5
16a
100
AcDbEntity
  8
Layer_1
 62
7
100
AcDbSpline
 70
8
 71
3
 72
8
 73
4
 74
0
 40
0
 40
0
 40
0
 40
0
 40
1
 40
1
 40
1
 40
1
 10
175.998410
 20
192.566020
 30
0.0
 10
175.800810
 20
192.132340
 30
0.0
 10
173.051840
 20
190.387690
 30
0.0
 10
167.788610
 20
187.355600
 30
0.0
  0
SPLINE
  5
16b
100
AcDbEntity
  8
Layer_1
 62
7
100
AcDbSpline
 70
8
 71
3
 72
8
 73
4
 74
0
 40
0
 40
0
 40
0
 40
0
 40
1
 40
1
 40
1
 40
1
 10
167.788610
 20
187.355600
 30
0.0
 10
160.264310
 20
183.020960
 30
0.0
 10
158.164250
 20
181.852360
 30
0.0
 10
157.971940
 20
181.893040
 30
0.0
  0
SPLINE
  5
16c
100
AcDbEntity
  8
Layer_1
 62
7
100
AcDbSpline
 70
8
 71
3
 72
8
 73
4
 74
0
 40
0
 40
0
 40
0
 40
0
 40
1
 40
1
 40
1
 40
1
 10
157.971940
 20
181.893040
 30
0.0
 10
157.925140
 20
181.903040
 30
0.0
 10
157.602900
 20
182.025290
 30
0.0
 10
157.255940
 20
182.164890
 30
0.0
  0
LINE
  5
16d
100
AcDbEntity
  8
Layer_1
 62
7
100
AcDbLine
 10
157.255940
 20
182.164890
 30
0.0
 11
157.255940
 21
182.164890
 31
0.0
  0
SPLINE
  5
16e
100
AcDbEntity
  8
Layer_1
 62
7
100
AcDbSpline
 70
8
 71
3
 72
8
 73
4
 74
0
 40
0
 40
0
 40
0
 40
0
 40
1
 40
1
 40
1
 40
1
 10
72.434846
 20
204.962716
 30
0.0
 10
72.184148
 20
205.158073
 30
0.0
 10
69.785456
 20
209.120354
 30
0.0
 10
67.104409
 20
213.767784
 30
0.0
  0
SPLINE
  5
16f
100
AcDbEntity
  8
Layer_1
 62
7
100
AcDbSpline
 70
8
 71
3
 72
8
 73
4
 74
0
 40
0
 40
0
 40
0
 40
0
 40
1
 40
1
 40
1
 40
1
 10
67.104409
 20
213.767784
 30
0.0
 10
61.864935
 20
222.850103
 30
0.0
 10
61.649598
 20
223.420938
 30
0.0
 10
63.186336
 20
224.154056
 30
0.0
  0
SPLINE
  5
170
100
AcDbEntity
  8
Layer_1
 62
7
100
AcDbSpline
 70
8
 71
3
 72
8
 73
4
 74
0
 40
0
 40
0
 40
0
 40
0
 40
1
 40
1
 40
1
 40
1
 10
63.186336
 20
224.154056
 30
0.0
 10
63.736932
 20
224.416718
 30
0.0
 10
64.119254
 20
224.440275
 30
0.0
 10
64.502542
 20
224.235146
 30
0.0
  0
SPLINE
  5
171
100
AcDbEntity
  8
Layer_1
 62
7
100
AcDbSpline
 70
8
 71
3
 72
8
 73
4
 74
0
 40
0
 40
0
 40
0
 40
0
 40
1
 40
1
 40
1
 40
1
 10
64.502542
 20
224.235146
 30
0.0
 10
65.306381
 20
223.804943
 30
0.0
 10
74.832878
 20
207.203395
 30
0.0
 10
74.850994
 20
206.201194
 30
0.0
  0
SPLINE
  5
172
100
AcDbEntity
  8
Layer_1
 62
7
100
AcDbSpline
 70
8
 71
3
 72
8
 73
4
 74
0
 40
0
 40
0
 40
0
 40
0
 40
1
 40
1
 40
1
 40
1
 10
74.850994
 20
206.201194
 30
0.0
 10
74.874754
 20
204.887026
 30
0.0
 10
73.461554
 20
204.162644
 30
0.0
 10
72.434846
 20
204.962714
 30
0.0
  0
LINE
  5
173
100
AcDbEntity
  8
Layer_1
 62
7
100
AcDbLine
 10
72.434846
 20
204.962714
 30
0.0
 11
72.434846
 21
204.962716
 31
0.0
  0
SPLINE
  5
174
100
AcDbEntity
  8
Layer_1
 62
7
100
AcDbSpline
 70
8
 71
3
 72
8
 73
4
 74
0
 40
0
 40
0
 40
0
 40
0
 40
1
 40
1
 40
1
 40
1
 10
134.308780
 20
204.993536
 30
0.0
 10
133.996460
 20
205.221915
 30
0.0
 10
133.786940
 20
205.715085
 30
0.0
 10
133.795730
 20
206.201200
 30
0.0
  0
SPLINE
  5
175
100
AcDbEntity
  8
Layer_1
 62
7
100
AcDbSpline
 70
8
 71
3
 72
8
 73
4
 74
0
 40
0
 40
0
 40
0
 40
0
 40
1
 40
1
 40
1
 40
1
 10
133.795730
 20
206.201200
 30
0.0
 10
133.813830
 20
207.203401
 30
0.0
 10
143.340340
 20
223.804948
 30
0.0
 10
144.144190
 20
224.235152
 30
0.0
  0
SPLINE
  5
176
100
AcDbEntity
  8
Layer_1
 62
7
100
AcDbSpline
 70
8
 71
3
 72
8
 73
4
 74
0
 40
0
 40
0
 40
0
 40
0
 40
1
 40
1
 40
1
 40
1
 10
144.144190
 20
224.235152
 30
0.0
 10
144.968870
 20
224.676512
 30
0.0
 10
146.214350
 20
223.974816
 30
0.0
 10
146.326180
 20
223.005833
 30
0.0
  0
SPLINE
  5
177
100
AcDbEntity
  8
Layer_1
 62
7
100
AcDbSpline
 70
8
 71
3
 72
8
 73
4
 74
0
 40
0
 40
0
 40
0
 40
0
 40
1
 40
1
 40
1
 40
1
 10
146.326180
 20
223.005833
 30
0.0
 10
146.414080
 20
222.244036
 30
0.0
 10
145.470140
 20
220.492597
 30
0.0
 10
138.630960
 20
208.727787
 30
0.0
  0
SPLINE
  5
178
100
AcDbEntity
  8
Layer_1
 62
7
100
AcDbSpline
 70
8
 71
3
 72
8
 73
4
 74
0
 40
0
 40
0
 40
0
 40
0
 40
1
 40
1
 40
1
 40
1
 10
138.630960
 20
208.727787
 30
0.0
 10
136.159500
 20
204.476384
 30
0.0
 10
135.635350
 20
204.023526
 30
0.0
 10
134.308780
 20
204.993536
 30
0.0
  0
LINE
  5
179
100
AcDbEntity
  8
Layer_1
 62
7
100
AcDbLine
 10
134.308780
 20
204.993536
 30
0.0
 11
134.308780
 21
204.993536
 31
0.0
  0
LINE
  5
17a
100
AcDbEntity
  8
Layer_1
 62
7
100
AcDbLine
 10
103.356990
 20
213.444972
 30
0.0
 11
102.598130
 21
214.041893
 31
0.0
  0
LINE
  5
17b
100
AcDbEntity
  8
Layer_1
 62
7
100
AcDbLine
 10
102.598130
 20
214.041893
 30
0.0
 11
102.679330
 21
224.266045
 31
0.0
  0
SPLINE
  5
17c
100
AcDbEntity
  8
Layer_1
 62
7
100
AcDbSpline
 70
8
 71
3
 72
8
 73
4
 74
0
 40
0
 40
0
 40
0
 40
0
 40
1
 40
1
 40
1
 40
1
 10
102.679330
 20
224.266045
 30
0.0
 10
102.756730
 20
234.008504
 30
0.0
 10
102.786500
 20
234.509188
 30
0.0
 10
103.312100
 20
234.893290
 30
0.0
  0
SPLINE
  5
17d
100
AcDbEntity
  8
Layer_1
 62
7
100
AcDbSpline
 70
8
 71
3
 72
8
 73
4
 74
0
 40
0
 40
0
 40
0
 40
0
 40
1
 40
1
 40
1
 40
1
 10
103.312100
 20
234.893290
 30
0.0
 10
104.011680
 20
235.404540
 30
0.0
 10
104.635060
 20
235.404540
 30
0.0
 10
105.334640
 20
234.893290
 30
0.0
  0
SPLINE
  5
17e
100
AcDbEntity
  8
Layer_1
 62
7
100
AcDbSpline
 70
8
 71
3
 72
8
 73
4
 74
0
 40
0
 40
0
 40
0
 40
0
 40
1
 40
1
 40
1
 40
1
 10
105.334640
 20
234.893290
 30
0.0
 10
105.860250
 20
234.509188
 30
0.0
 10
105.890060
 20
234.008504
 30
0.0
 10
105.967420
 20
224.266045
 30
0.0
  0
LINE
  5
17f
100
AcDbEntity
  8
Layer_1
 62
7
100
AcDbLine
 10
105.967420
 20
224.266045
 30
0.0
 11
106.048620
 21
214.041893
 31
0.0
  0
LINE
  5
180
100
AcDbEntity
  8
Layer_1
 62
7
100
AcDbLine
 10
106.048620
 20
214.041893
 30
0.0
 11
105.289760
 21
213.444972
 31
0.0
  0
SPLINE
  5
181
100
AcDbEntity
  8
Layer_1
 62
7
100
AcDbSpline
 70
8
 71
3
 72
8
 73
4
 74
0
 40
0
 40
0
 40
0
 40
0
 40
1
 40
1
 40
1
 40
1
 10
105.289760
 20
213.444972
 30
0.0
 10
104.872380
 20
213.116667
 30
0.0
 10
104.437520
 20
212.848051
 30
0.0
 10
104.323380
 20
212.848051
 30
0.0
  0
SPLINE
  5
182
100
AcDbEntity
  8
Layer_1
 62
7
100
AcDbSpline
 70
8
 71
3
 72
8
 73
4
 74
0
 40
0
 40
0
 40
0
 40
0
 40
1
 40
1
 40
1
 40
1
 10
104.323380
 20
212.848051
 30
0.0
 10
104.209250
 20
212.848051
 30
0.0
 10
103.774380
 20
213.116667
 30
0.0
 10
103.357010
 20
213.444972
 30
0.0
  0
LINE
  5
183
100
AcDbEntity
  8
Layer_1
 62
7
100
AcDbLine
 10
103.357010
 20
213.444972
 30
0.0
 11
103.356990
 21
213.444972
 31
0.0
  0
ENDSEC
  0
SECTION
  2
OBJECTS
  0
DICTIONARY
  5
C
330
0
100
AcDbDictionary
  3
ACAD_GROUP
350
D
  3
ACAD_MLINESTYLE
350
17
  0
DICTIONARY
  5
D
330
C
100
AcDbDictionary
  0
DICTIONARY
  5
1A
330
C
100
AcDbDictionary
  0
DICTIONARY
  5
17
330
C
100
AcDbDictionary
  3
STANDARD
350
18
  0
DICTIONARY
  5
19
330
C
100
AcDbDictionary
  0
ENDSEC
  0
EOF
