  0
SECTION
  2
HEADER
  9
$ACADVER
  1
AC1014
  9
$HANDSEED
  5
FFFF
  9
$MEASUREMENT
 70
     1
  0
ENDSEC
  0
SECTION
  2
TABLES
  0
TABLE
  2
VPORT
  5
8
330
0
100
AcDbSymbolTable
 70
     4
  0
VPORT
  5
2E
330
8
100
AcDbSymbolTableRecord
100
AcDbViewportTableRecord
  2
*ACTIVE
 70
     0
 10
0.0
 20
0.0
 11
1.0
 21
1.0
 12
210.0
 22
148.5
 13
0.0
 23
0.0
 14
10.0
 24
10.0
 15
10.0
 25
10.0
 16
0.0
 26
0.0
 36
1.0
 17
0.0
 27
0.0
 37
0.0
 40
341.0
 41
1.24
 42
50.0
 43
0.0
 44
0.0
 50
0.0
 51
0.0
 71
     0
 72
   100
 73
     1
 74
     3
 75
     0
 76
     0
 77
     0
 78
     0
  0
ENDTAB
  0
TABLE
  2
LTYPE
  5
5
330
0
100
AcDbSymbolTable
 70
     1
  0
LTYPE
  5
14
330
5
100
AcDbSymbolTableRecord
100
AcDbLinetypeTableRecord
  2
BYBLOCK
 70
     0
  3

 72
    65
 73
     0
 40
0.0
  0
LTYPE
  5
15
330
5
100
AcDbSymbolTableRecord
100
AcDbLinetypeTableRecord
  2
BYLAYER
 70
     0
  3

 72
    65
 73
     0
 40
0.0
  0
LTYPE
  5
16
330
5
100
AcDbSymbolTableRecord
100
AcDbLinetypeTableRecord
  2
CONTINUOUS
 70
     0
  3
Solid line
 72
    65
 73
     0
 40
0.0
  0
ENDTAB
  0
TABLE
  2
LAYER
  5
2
100
AcDbSymbolTable
 70
2
  0
LAYER
  5
50
100
AcDbSymbolTableRecord
100
AcDbLayerTableRecord
  2
0
 70
0
  6
CONTINUOUS
  0
LAYER
  5
51
100
AcDbSymbolTableRecord
100
AcDbLayerTableRecord
  2
Layer_1
 70
0
  6
CONTINUOUS
  0
ENDTAB
  0
TABLE
  2
STYLE
  5
3
330
0
100
AcDbSymbolTable
 70
     1
  0
STYLE
  5
11
330
3
100
AcDbSymbolTableRecord
100
AcDbTextStyleTableRecord
  2
STANDARD
 70
     0
 40
0.0
 41
1.0
 50
0.0
 71
     0
 42
2.5
  3
txt
  4

  0
ENDTAB
  0
TABLE
  2
VIEW
  5
6
330
0
100
AcDbSymbolTable
 70
     0
  0
ENDTAB
  0
TABLE
  2
UCS
  5
7
330
0
100
AcDbSymbolTable
 70
     0
  0
ENDTAB
  0
TABLE
  2
APPID
  5
9
330
0
100
AcDbSymbolTable
 70
     2
  0
APPID
  5
12
330
9
100
AcDbSymbolTableRecord
100
AcDbRegAppTableRecord
  2
ACAD
 70
     0
  0
ENDTAB
  0
TABLE
  2
DIMSTYLE
  5
A
330
0
100
AcDbSymbolTable
 70
     1
  0
DIMSTYLE
105
27
330
A
100
AcDbSymbolTableRecord
100
AcDbDimStyleTableRecord
  2
ISO-25
 70
     0
  3

  4

  5

  6

  7

 40
1.0
 41
2.5
 42
0.625
 43
3.75
 44
1.25
 45
0.0
 46
0.0
 47
0.0
 48
0.0
140
2.5
141
2.5
142
0.0
143
0.03937007874016
144
1.0
145
0.0
146
1.0
147
0.625
 71
     0
 72
     0
 73
     0
 74
     0
 75
     0
 76
     0
 77
     1
 78
     8
170
     0
171
     3
172
     1
173
     0
174
     0
175
     0
176
     0
177
     0
178
     0
270
     2
271
     2
272
     2
273
     2
274
     3
340
11
275
     0
280
     0
281
     0
282
     0
283
     0
284
     8
285
     0
286
     0
287
     3
288
     0
  0
ENDTAB
  0
TABLE
  2
BLOCK_RECORD
  5
1
330
0
100
AcDbSymbolTable
 70
     1
  0
BLOCK_RECORD
  5
1F
330
1
100
AcDbSymbolTableRecord
100
AcDbBlockTableRecord
  2
*MODEL_SPACE
  0
BLOCK_RECORD
  5
1B
330
1
100
AcDbSymbolTableRecord
100
AcDbBlockTableRecord
  2
*PAPER_SPACE
  0
ENDTAB
  0
ENDSEC
  0
SECTION
  2
BLOCKS
  0
BLOCK
  5
20
330
1F
100
AcDbEntity
  8
0
100
AcDbBlockBegin
  2
*MODEL_SPACE
 70
     0
 10
0.0
 20
0.0
 30
0.0
  3
*MODEL_SPACE
  1

  0
ENDBLK
  5
21
330
1F
100
AcDbEntity
  8
0
100
AcDbBlockEnd
  0
BLOCK
  5
1C
330
1B
100
AcDbEntity
 67
     1
  8
0
100
AcDbBlockBegin
  2
*PAPER_SPACE
  1

  0
ENDBLK
  5
1D
330
1B
100
AcDbEntity
 67
     1
  8
0
100
AcDbBlockEnd
  0
ENDSEC
  0
SECTION
  2
ENTITIES
  0
SPLINE
  5
100
100
AcDbEntity
  8
Layer_1
 62
7
100
AcDbSpline
 70
8
 71
3
 72
8
 73
4
 74
0
 40
0
 40
0
 40
0
 40
0
 40
1
 40
1
 40
1
 40
1
 10
8.073296
 20
256.646530
 30
0.0
 10
11.837225
 20
256.646529
 30
0.0
 10
14.888588
 20
253.596006
 30
0.0
 10
14.888931
 20
249.832772
 30
0.0
  0
LINE
  5
101
100
AcDbEntity
  8
Layer_1
 62
7
100
AcDbLine
 10
14.888931
 20
249.832772
 30
0.0
 11
14.888931
 21
249.461853
 31
0.0
  0
SPLINE
  5
102
100
AcDbEntity
  8
Layer_1
 62
7
100
AcDbSpline
 70
8
 71
3
 72
8
 73
4
 74
0
 40
0
 40
0
 40
0
 40
0
 40
1
 40
1
 40
1
 40
1
 10
14.888931
 20
249.461853
 30
0.0
 10
14.888957
 20
247.654533
 30
0.0
 10
14.170888
 20
245.921226
 30
0.0
 10
12.892693
 20
244.643248
 30
0.0
  0
SPLINE
  5
103
100
AcDbEntity
  8
Layer_1
 62
7
100
AcDbSpline
 70
8
 71
3
 72
8
 73
4
 74
0
 40
0
 40
0
 40
0
 40
0
 40
1
 40
1
 40
1
 40
1
 10
12.892693
 20
244.643248
 30
0.0
 10
11.614497
 20
243.365271
 30
0.0
 10
9.880882
 20
242.647309
 30
0.0
 10
8.073228
 20
242.647309
 30
0.0
  0
LINE
  5
104
100
AcDbEntity
  8
Layer_1
 62
7
100
AcDbLine
 10
8.073228
 20
242.647309
 30
0.0
 11
7.702237
 21
242.647309
 31
0.0
  0
SPLINE
  5
105
100
AcDbEntity
  8
Layer_1
 62
7
100
AcDbSpline
 70
8
 71
3
 72
8
 73
4
 74
0
 40
0
 40
0
 40
0
 40
0
 40
1
 40
1
 40
1
 40
1
 10
7.702237
 20
242.647309
 30
0.0
 10
5.894705
 20
242.647309
 30
0.0
 10
4.161226
 20
243.365314
 30
0.0
 10
2.883241
 20
244.643330
 30
0.0
  0
SPLINE
  5
106
100
AcDbEntity
  8
Layer_1
 62
7
100
AcDbSpline
 70
8
 71
3
 72
8
 73
4
 74
0
 40
0
 40
0
 40
0
 40
0
 40
1
 40
1
 40
1
 40
1
 10
2.883241
 20
244.643330
 30
0.0
 10
1.605256
 20
245.921345
 30
0.0
 10
0.887481
 20
247.654654
 30
0.0
 10
0.887857
 20
249.461853
 30
0.0
  0
LINE
  5
107
100
AcDbEntity
  8
Layer_1
 62
7
100
AcDbLine
 10
0.887857
 20
249.461853
 30
0.0
 11
0.887857
 21
249.647291
 31
0.0
  0
LINE
  5
108
100
AcDbEntity
  8
Layer_1
 62
7
100
AcDbLine
 10
0.887857
 20
249.647291
 30
0.0
 11
0.424117
 21
249.647291
 31
0.0
  0
LINE
  5
109
100
AcDbEntity
  8
Layer_1
 62
7
100
AcDbLine
 10
0.424117
 20
249.647291
 30
0.0
 11
0.424117
 21
249.461853
 31
0.0
  0
SPLINE
  5
10a
100
AcDbEntity
  8
Layer_1
 62
7
100
AcDbSpline
 70
8
 71
3
 72
8
 73
4
 74
0
 40
0
 40
0
 40
0
 40
0
 40
1
 40
1
 40
1
 40
1
 10
0.424117
 20
249.461853
 30
0.0
 10
0.424109
 20
245.442766
 30
0.0
 10
3.682408
 20
242.184429
 30
0.0
 10
7.702237
 20
242.183651
 30
0.0
  0
LINE
  5
10b
100
AcDbEntity
  8
Layer_1
 62
7
100
AcDbLine
 10
7.702237
 20
242.183651
 30
0.0
 11
8.073228
 21
242.183651
 31
0.0
  0
SPLINE
  5
10c
100
AcDbEntity
  8
Layer_1
 62
7
100
AcDbSpline
 70
8
 71
3
 72
8
 73
4
 74
0
 40
0
 40
0
 40
0
 40
0
 40
1
 40
1
 40
1
 40
1
 10
8.073228
 20
242.183651
 30
0.0
 10
12.093572
 20
242.183700
 30
0.0
 10
15.352676
 20
245.442250
 30
0.0
 10
15.352668
 20
249.461853
 30
0.0
  0
LINE
  5
10d
100
AcDbEntity
  8
Layer_1
 62
7
100
AcDbLine
 10
15.352668
 20
249.461853
 30
0.0
 11
15.352668
 21
249.832772
 31
0.0
  0
SPLINE
  5
10e
100
AcDbEntity
  8
Layer_1
 62
7
100
AcDbSpline
 70
8
 71
3
 72
8
 73
4
 74
0
 40
0
 40
0
 40
0
 40
0
 40
1
 40
1
 40
1
 40
1
 10
15.352668
 20
249.832772
 30
0.0
 10
15.352332
 20
253.852078
 30
0.0
 10
12.093344
 20
257.110191
 30
0.0
 10
8.073296
 20
257.110191
 30
0.0
  0
LINE
  5
10f
100
AcDbEntity
  8
Layer_1
 62
7
100
AcDbLine
 10
8.073296
 20
257.110191
 30
0.0
 11
7.887797
 21
257.110191
 31
0.0
  0
LINE
  5
110
100
AcDbEntity
  8
Layer_1
 62
7
100
AcDbLine
 10
7.887797
 20
257.110191
 30
0.0
 11
7.887797
 21
256.646530
 31
0.0
  0
LINE
  5
111
100
AcDbEntity
  8
Layer_1
 62
7
100
AcDbLine
 10
7.887797
 20
256.646530
 30
0.0
 11
8.073296
 21
256.646530
 31
0.0
  0
SPLINE
  5
112
100
AcDbEntity
  8
Layer_1
 62
7
100
AcDbSpline
 70
8
 71
3
 72
8
 73
4
 74
0
 40
0
 40
0
 40
0
 40
0
 40
1
 40
1
 40
1
 40
1
 10
7.401470
 20
243.144585
 30
0.0
 10
6.878810
 20
243.194652
 30
0.0
 10
6.515977
 20
243.256231
 30
0.0
 10
6.138467
 20
243.358929
 30
0.0
  0
SPLINE
  5
113
100
AcDbEntity
  8
Layer_1
 62
7
100
AcDbSpline
 70
8
 71
3
 72
8
 73
4
 74
0
 40
0
 40
0
 40
0
 40
0
 40
1
 40
1
 40
1
 40
1
 10
6.138467
 20
243.358929
 30
0.0
 10
4.703131
 20
243.749405
 30
0.0
 10
3.470666
 20
244.597328
 30
0.0
 10
2.570311
 20
245.813777
 30
0.0
  0
SPLINE
  5
114
100
AcDbEntity
  8
Layer_1
 62
7
100
AcDbSpline
 70
8
 71
3
 72
8
 73
4
 74
0
 40
0
 40
0
 40
0
 40
0
 40
1
 40
1
 40
1
 40
1
 10
2.570311
 20
245.813777
 30
0.0
 10
2.020696
 20
246.556351
 30
0.0
 10
1.614516
 20
247.496276
 30
0.0
 10
1.435642
 20
248.439475
 30
0.0
  0
SPLINE
  5
115
100
AcDbEntity
  8
Layer_1
 62
7
100
AcDbSpline
 70
8
 71
3
 72
8
 73
4
 74
0
 40
0
 40
0
 40
0
 40
0
 40
1
 40
1
 40
1
 40
1
 10
1.435642
 20
248.439475
 30
0.0
 10
1.350226
 20
248.889880
 30
0.0
 10
1.330878
 20
249.120245
 30
0.0
 10
1.332137
 20
249.671924
 30
0.0
  0
SPLINE
  5
116
100
AcDbEntity
  8
Layer_1
 62
7
100
AcDbSpline
 70
8
 71
3
 72
8
 73
4
 74
0
 40
0
 40
0
 40
0
 40
0
 40
1
 40
1
 40
1
 40
1
 10
1.332137
 20
249.671924
 30
0.0
 10
1.333460
 20
250.222751
 30
0.0
 10
1.358436
 20
250.487467
 30
0.0
 10
1.453678
 20
250.957030
 30
0.0
  0
SPLINE
  5
117
100
AcDbEntity
  8
Layer_1
 62
7
100
AcDbSpline
 70
8
 71
3
 72
8
 73
4
 74
0
 40
0
 40
0
 40
0
 40
0
 40
1
 40
1
 40
1
 40
1
 10
1.453678
 20
250.957030
 30
0.0
 10
1.971108
 20
253.507846
 30
0.0
 10
3.982145
 20
255.517795
 30
0.0
 10
6.537670
 20
256.038267
 30
0.0
  0
SPLINE
  5
118
100
AcDbEntity
  8
Layer_1
 62
7
100
AcDbSpline
 70
8
 71
3
 72
8
 73
4
 74
0
 40
0
 40
0
 40
0
 40
0
 40
1
 40
1
 40
1
 40
1
 10
6.537670
 20
256.038267
 30
0.0
 10
7.025460
 20
256.137613
 30
0.0
 10
7.244165
 20
256.157673
 30
0.0
 10
7.839447
 20
256.157673
 30
0.0
  0
SPLINE
  5
119
100
AcDbEntity
  8
Layer_1
 62
7
100
AcDbSpline
 70
8
 71
3
 72
8
 73
4
 74
0
 40
0
 40
0
 40
0
 40
0
 40
1
 40
1
 40
1
 40
1
 10
7.839447
 20
256.157673
 30
0.0
 10
8.537007
 20
256.157673
 30
0.0
 10
8.977752
 20
256.101360
 30
0.0
 10
9.572717
 20
255.936212
 30
0.0
  0
SPLINE
  5
11a
100
AcDbEntity
  8
Layer_1
 62
7
100
AcDbSpline
 70
8
 71
3
 72
8
 73
4
 74
0
 40
0
 40
0
 40
0
 40
0
 40
1
 40
1
 40
1
 40
1
 10
9.572717
 20
255.936212
 30
0.0
 10
11.139790
 20
255.501230
 30
0.0
 10
12.500389
 20
254.487742
 30
0.0
 10
13.363848
 20
253.112260
 30
0.0
  0
SPLINE
  5
11b
100
AcDbEntity
  8
Layer_1
 62
7
100
AcDbSpline
 70
8
 71
3
 72
8
 73
4
 74
0
 40
0
 40
0
 40
0
 40
0
 40
1
 40
1
 40
1
 40
1
 10
13.363848
 20
253.112260
 30
0.0
 10
13.861880
 20
252.318900
 30
0.0
 10
14.174366
 20
251.439344
 30
0.0
 10
14.311100
 20
250.446020
 30
0.0
  0
SPLINE
  5
11c
100
AcDbEntity
  8
Layer_1
 62
7
100
AcDbSpline
 70
8
 71
3
 72
8
 73
4
 74
0
 40
0
 40
0
 40
0
 40
0
 40
1
 40
1
 40
1
 40
1
 10
14.311100
 20
250.446020
 30
0.0
 10
14.360918
 20
250.084105
 30
0.0
 10
14.360085
 20
249.213621
 30
0.0
 10
14.309512
 20
248.846896
 30
0.0
  0
SPLINE
  5
11d
100
AcDbEntity
  8
Layer_1
 62
7
100
AcDbSpline
 70
8
 71
3
 72
8
 73
4
 74
0
 40
0
 40
0
 40
0
 40
0
 40
1
 40
1
 40
1
 40
1
 10
14.309512
 20
248.846896
 30
0.0
 10
14.102638
 20
247.345110
 30
0.0
 10
13.485191
 20
246.086663
 30
0.0
 10
12.444737
 20
245.046209
 30
0.0
  0
SPLINE
  5
11e
100
AcDbEntity
  8
Layer_1
 62
7
100
AcDbSpline
 70
8
 71
3
 72
8
 73
4
 74
0
 40
0
 40
0
 40
0
 40
0
 40
1
 40
1
 40
1
 40
1
 10
12.444737
 20
245.046209
 30
0.0
 10
11.408762
 20
244.010234
 30
0.0
 10
10.137089
 20
243.384119
 30
0.0
 10
8.661430
 20
243.183478
 30
0.0
  0
SPLINE
  5
11f
100
AcDbEntity
  8
Layer_1
 62
7
100
AcDbSpline
 70
8
 71
3
 72
8
 73
4
 74
0
 40
0
 40
0
 40
0
 40
0
 40
1
 40
1
 40
1
 40
1
 10
8.661430
 20
243.183478
 30
0.0
 10
8.433873
 20
243.152538
 30
0.0
 10
7.590234
 20
243.126495
 30
0.0
 10
7.401414
 20
243.144585
 30
0.0
  0
LINE
  5
120
100
AcDbEntity
  8
Layer_1
 62
7
100
AcDbLine
 10
7.401414
 20
243.144585
 30
0.0
 11
7.401470
 21
243.144585
 31
0.0
  0
SPLINE
  5
121
100
AcDbEntity
  8
Layer_1
 62
7
100
AcDbSpline
 70
8
 71
3
 72
8
 73
4
 74
0
 40
0
 40
0
 40
0
 40
0
 40
1
 40
1
 40
1
 40
1
 10
8.358908
 20
243.621718
 30
0.0
 10
11.499890
 20
243.906618
 30
0.0
 10
13.889606
 20
246.512004
 30
0.0
 10
13.889606
 20
249.651551
 30
0.0
  0
SPLINE
  5
122
100
AcDbEntity
  8
Layer_1
 62
7
100
AcDbSpline
 70
8
 71
3
 72
8
 73
4
 74
0
 40
0
 40
0
 40
0
 40
0
 40
1
 40
1
 40
1
 40
1
 10
13.889606
 20
249.651551
 30
0.0
 10
13.889606
 20
252.991239
 30
0.0
 10
11.179133
 20
255.701710
 30
0.0
 10
7.839447
 20
255.701710
 30
0.0
  0
SPLINE
  5
123
100
AcDbEntity
  8
Layer_1
 62
7
100
AcDbSpline
 70
8
 71
3
 72
8
 73
4
 74
0
 40
0
 40
0
 40
0
 40
0
 40
1
 40
1
 40
1
 40
1
 10
7.839447
 20
255.701710
 30
0.0
 10
4.500989
 20
255.701710
 30
0.0
 10
1.789289
 20
252.990012
 30
0.0
 10
1.789289
 20
249.651551
 30
0.0
  0
SPLINE
  5
124
100
AcDbEntity
  8
Layer_1
 62
7
100
AcDbSpline
 70
8
 71
3
 72
8
 73
4
 74
0
 40
0
 40
0
 40
0
 40
0
 40
1
 40
1
 40
1
 40
1
 10
1.789289
 20
249.651551
 30
0.0
 10
1.789289
 20
246.678702
 30
0.0
 10
3.948844
 20
244.148995
 30
0.0
 10
6.892195
 20
243.673994
 30
0.0
  0
SPLINE
  5
125
100
AcDbEntity
  8
Layer_1
 62
7
100
AcDbSpline
 70
8
 71
3
 72
8
 73
4
 74
0
 40
0
 40
0
 40
0
 40
0
 40
1
 40
1
 40
1
 40
1
 10
6.892195
 20
243.673994
 30
0.0
 10
7.327315
 20
243.603776
 30
0.0
 10
7.925889
 20
243.582440
 30
0.0
 10
8.358908
 20
243.621718
 30
0.0
  0
LINE
  5
126
100
AcDbEntity
  8
Layer_1
 62
7
100
AcDbLine
 10
8.358908
 20
243.621718
 30
0.0
 11
8.358908
 21
243.621718
 31
0.0
  0
SPLINE
  5
127
100
AcDbEntity
  8
Layer_1
 62
7
100
AcDbSpline
 70
8
 71
3
 72
8
 73
4
 74
0
 40
0
 40
0
 40
0
 40
0
 40
1
 40
1
 40
1
 40
1
 10
7.766949
 20
243.752488
 30
0.0
 10
7.729066
 20
243.780176
 30
0.0
 10
7.727407
 20
243.812358
 30
0.0
 10
7.727407
 20
244.519278
 30
0.0
  0
LINE
  5
128
100
AcDbEntity
  8
Layer_1
 62
7
100
AcDbLine
 10
7.727407
 20
244.519278
 30
0.0
 11
7.727407
 21
245.257169
 31
0.0
  0
LINE
  5
129
100
AcDbEntity
  8
Layer_1
 62
7
100
AcDbLine
 10
7.727407
 20
245.257169
 30
0.0
 11
7.783427
 21
245.299010
 31
0.0
  0
LINE
  5
12a
100
AcDbEntity
  8
Layer_1
 62
7
100
AcDbLine
 10
7.783427
 20
245.299010
 30
0.0
 11
7.839447
 21
245.340851
 31
0.0
  0
LINE
  5
12b
100
AcDbEntity
  8
Layer_1
 62
7
100
AcDbLine
 10
7.839447
 20
245.340851
 30
0.0
 11
7.895467
 21
245.299010
 31
0.0
  0
LINE
  5
12c
100
AcDbEntity
  8
Layer_1
 62
7
100
AcDbLine
 10
7.895467
 20
245.299010
 30
0.0
 11
7.951488
 21
245.257169
 31
0.0
  0
LINE
  5
12d
100
AcDbEntity
  8
Layer_1
 62
7
100
AcDbLine
 10
7.951488
 20
245.257169
 30
0.0
 11
7.951488
 21
244.519278
 31
0.0
  0
SPLINE
  5
12e
100
AcDbEntity
  8
Layer_1
 62
7
100
AcDbSpline
 70
8
 71
3
 72
8
 73
4
 74
0
 40
0
 40
0
 40
0
 40
0
 40
1
 40
1
 40
1
 40
1
 10
7.951488
 20
244.519278
 30
0.0
 10
7.951488
 20
243.812358
 30
0.0
 10
7.949900
 20
243.780176
 30
0.0
 10
7.911946
 20
243.752488
 30
0.0
  0
SPLINE
  5
12f
100
AcDbEntity
  8
Layer_1
 62
7
100
AcDbSpline
 70
8
 71
3
 72
8
 73
4
 74
0
 40
0
 40
0
 40
0
 40
0
 40
1
 40
1
 40
1
 40
1
 10
7.911946
 20
243.752488
 30
0.0
 10
7.890197
 20
243.736586
 30
0.0
 10
7.857574
 20
243.723585
 30
0.0
 10
7.839447
 20
243.723585
 30
0.0
  0
SPLINE
  5
130
100
AcDbEntity
  8
Layer_1
 62
7
100
AcDbSpline
 70
8
 71
3
 72
8
 73
4
 74
0
 40
0
 40
0
 40
0
 40
0
 40
1
 40
1
 40
1
 40
1
 10
7.839447
 20
243.723585
 30
0.0
 10
7.821323
 20
243.723585
 30
0.0
 10
7.788698
 20
243.736602
 30
0.0
 10
7.766949
 20
243.752488
 30
0.0
  0
LINE
  5
131
100
AcDbEntity
  8
Layer_1
 62
7
100
AcDbLine
 10
7.766949
 20
243.752488
 30
0.0
 11
7.766949
 21
243.752488
 31
0.0
  0
SPLINE
  5
132
100
AcDbEntity
  8
Layer_1
 62
7
100
AcDbSpline
 70
8
 71
3
 72
8
 73
4
 74
0
 40
0
 40
0
 40
0
 40
0
 40
1
 40
1
 40
1
 40
1
 10
4.885651
 20
244.523919
 30
0.0
 10
4.781569
 20
244.576312
 30
0.0
 10
4.799055
 20
244.621807
 30
0.0
 10
5.171239
 20
245.266961
 30
0.0
  0
SPLINE
  5
133
100
AcDbEntity
  8
Layer_1
 62
7
100
AcDbSpline
 70
8
 71
3
 72
8
 73
4
 74
0
 40
0
 40
0
 40
0
 40
0
 40
1
 40
1
 40
1
 40
1
 10
5.171239
 20
245.266961
 30
0.0
 10
5.363440
 20
245.600132
 30
0.0
 10
5.535403
 20
245.884188
 30
0.0
 10
5.553373
 20
245.898190
 30
0.0
  0
SPLINE
  5
134
100
AcDbEntity
  8
Layer_1
 62
7
100
AcDbSpline
 70
8
 71
3
 72
8
 73
4
 74
0
 40
0
 40
0
 40
0
 40
0
 40
1
 40
1
 40
1
 40
1
 10
5.553373
 20
245.898190
 30
0.0
 10
5.626962
 20
245.955536
 30
0.0
 10
5.728263
 20
245.903614
 30
0.0
 10
5.726633
 20
245.809406
 30
0.0
  0
SPLINE
  5
135
100
AcDbEntity
  8
Layer_1
 62
7
100
AcDbSpline
 70
8
 71
3
 72
8
 73
4
 74
0
 40
0
 40
0
 40
0
 40
0
 40
1
 40
1
 40
1
 40
1
 10
5.726633
 20
245.809406
 30
0.0
 10
5.725575
 20
245.744404
 30
0.0
 10
5.074036
 20
244.594669
 30
0.0
 10
5.003575
 20
244.533333
 30
0.0
  0
SPLINE
  5
136
100
AcDbEntity
  8
Layer_1
 62
7
100
AcDbSpline
 70
8
 71
3
 72
8
 73
4
 74
0
 40
0
 40
0
 40
0
 40
0
 40
1
 40
1
 40
1
 40
1
 10
5.003575
 20
244.533333
 30
0.0
 10
4.955059
 20
244.491100
 30
0.0
 10
4.951426
 20
244.490812
 30
0.0
 10
4.885651
 20
244.523914
 30
0.0
  0
LINE
  5
137
100
AcDbEntity
  8
Layer_1
 62
7
100
AcDbLine
 10
4.885651
 20
244.523914
 30
0.0
 11
4.885651
 21
244.523919
 31
0.0
  0
SPLINE
  5
138
100
AcDbEntity
  8
Layer_1
 62
7
100
AcDbSpline
 70
8
 71
3
 72
8
 73
4
 74
0
 40
0
 40
0
 40
0
 40
0
 40
1
 40
1
 40
1
 40
1
 10
10.675904
 20
244.532862
 30
0.0
 10
10.605073
 20
244.594457
 30
0.0
 10
9.953391
 20
245.744057
 30
0.0
 10
9.952262
 20
245.809406
 30
0.0
  0
SPLINE
  5
139
100
AcDbEntity
  8
Layer_1
 62
7
100
AcDbSpline
 70
8
 71
3
 72
8
 73
4
 74
0
 40
0
 40
0
 40
0
 40
0
 40
1
 40
1
 40
1
 40
1
 10
9.952262
 20
245.809406
 30
0.0
 10
9.950674
 20
245.903624
 30
0.0
 10
10.051933
 20
245.955536
 30
0.0
 10
10.125521
 20
245.898190
 30
0.0
  0
SPLINE
  5
13a
100
AcDbEntity
  8
Layer_1
 62
7
100
AcDbSpline
 70
8
 71
3
 72
8
 73
4
 74
0
 40
0
 40
0
 40
0
 40
0
 40
1
 40
1
 40
1
 40
1
 10
10.125521
 20
245.898190
 30
0.0
 10
10.181192
 20
245.854809
 30
0.0
 10
10.854357
 20
244.669517
 30
0.0
 10
10.854357
 20
244.614872
 30
0.0
  0
SPLINE
  5
13b
100
AcDbEntity
  8
Layer_1
 62
7
100
AcDbSpline
 70
8
 71
3
 72
8
 73
4
 74
0
 40
0
 40
0
 40
0
 40
0
 40
1
 40
1
 40
1
 40
1
 10
10.854357
 20
244.614872
 30
0.0
 10
10.854357
 20
244.524732
 30
0.0
 10
10.743719
 20
244.473887
 30
0.0
 10
10.675904
 20
244.532862
 30
0.0
  0
LINE
  5
13c
100
AcDbEntity
  8
Layer_1
 62
7
100
AcDbLine
 10
10.675904
 20
244.532862
 30
0.0
 11
10.675904
 21
244.532862
 31
0.0
  0
SPLINE
  5
13d
100
AcDbEntity
  8
Layer_1
 62
7
100
AcDbSpline
 70
8
 71
3
 72
8
 73
4
 74
0
 40
0
 40
0
 40
0
 40
0
 40
1
 40
1
 40
1
 40
1
 10
2.713715
 20
246.688404
 30
0.0
 10
2.687548
 20
246.728353
 30
0.0
 10
2.684659
 20
246.750830
 30
0.0
 10
2.701095
 20
246.786906
 30
0.0
  0
SPLINE
  5
13e
100
AcDbEntity
  8
Layer_1
 62
7
100
AcDbSpline
 70
8
 71
3
 72
8
 73
4
 74
0
 40
0
 40
0
 40
0
 40
0
 40
1
 40
1
 40
1
 40
1
 10
2.701095
 20
246.786906
 30
0.0
 10
2.715250
 20
246.817994
 30
0.0
 10
2.912332
 20
246.943070
 30
0.0
 10
3.289652
 20
247.160436
 30
0.0
  0
SPLINE
  5
13f
100
AcDbEntity
  8
Layer_1
 62
7
100
AcDbSpline
 70
8
 71
3
 72
8
 73
4
 74
0
 40
0
 40
0
 40
0
 40
0
 40
1
 40
1
 40
1
 40
1
 10
3.289652
 20
247.160436
 30
0.0
 10
4.006896
 20
247.573633
 30
0.0
 10
3.975041
 20
247.557758
 30
0.0
 10
4.038535
 20
247.533617
 30
0.0
  0
SPLINE
  5
140
100
AcDbEntity
  8
Layer_1
 62
7
100
AcDbSpline
 70
8
 71
3
 72
8
 73
4
 74
0
 40
0
 40
0
 40
0
 40
0
 40
1
 40
1
 40
1
 40
1
 10
4.038535
 20
247.533617
 30
0.0
 10
4.096950
 20
247.511419
 30
0.0
 10
4.125035
 20
247.433017
 30
0.0
 10
4.094653
 20
247.376987
 30
0.0
  0
SPLINE
  5
141
100
AcDbEntity
  8
Layer_1
 62
7
100
AcDbSpline
 70
8
 71
3
 72
8
 73
4
 74
0
 40
0
 40
0
 40
0
 40
0
 40
1
 40
1
 40
1
 40
1
 10
4.094653
 20
247.376987
 30
0.0
 10
4.065660
 20
247.323514
 30
0.0
 10
2.864644
 20
246.636641
 30
0.0
 10
2.800141
 20
246.636641
 30
0.0
  0
SPLINE
  5
142
100
AcDbEntity
  8
Layer_1
 62
7
100
AcDbSpline
 70
8
 71
3
 72
8
 73
4
 74
0
 40
0
 40
0
 40
0
 40
0
 40
1
 40
1
 40
1
 40
1
 10
2.800141
 20
246.636641
 30
0.0
 10
2.766383
 20
246.636641
 30
0.0
 10
2.735520
 20
246.655135
 30
0.0
 10
2.713713
 20
246.688404
 30
0.0
  0
LINE
  5
143
100
AcDbEntity
  8
Layer_1
 62
7
100
AcDbLine
 10
2.713713
 20
246.688404
 30
0.0
 11
2.713715
 21
246.688404
 31
0.0
  0
SPLINE
  5
144
100
AcDbEntity
  8
Layer_1
 62
7
100
AcDbSpline
 70
8
 71
3
 72
8
 73
4
 74
0
 40
0
 40
0
 40
0
 40
0
 40
1
 40
1
 40
1
 40
1
 10
12.211999
 20
246.989978
 30
0.0
 10
11.877510
 20
247.183542
 30
0.0
 10
11.594798
 20
247.358064
 30
0.0
 10
11.583752
 20
247.377801
 30
0.0
  0
SPLINE
  5
145
100
AcDbEntity
  8
Layer_1
 62
7
100
AcDbSpline
 70
8
 71
3
 72
8
 73
4
 74
0
 40
0
 40
0
 40
0
 40
0
 40
1
 40
1
 40
1
 40
1
 10
11.583752
 20
247.377801
 30
0.0
 10
11.553407
 20
247.432028
 30
0.0
 10
11.582164
 20
247.511540
 30
0.0
 10
11.640357
 20
247.533617
 30
0.0
  0
SPLINE
  5
146
100
AcDbEntity
  8
Layer_1
 62
7
100
AcDbSpline
 70
8
 71
3
 72
8
 73
4
 74
0
 40
0
 40
0
 40
0
 40
0
 40
1
 40
1
 40
1
 40
1
 10
11.640357
 20
247.533617
 30
0.0
 10
11.703851
 20
247.557747
 30
0.0
 10
11.671996
 20
247.573633
 30
0.0
 10
12.389240
 20
247.160436
 30
0.0
  0
SPLINE
  5
147
100
AcDbEntity
  8
Layer_1
 62
7
100
AcDbSpline
 70
8
 71
3
 72
8
 73
4
 74
0
 40
0
 40
0
 40
0
 40
0
 40
1
 40
1
 40
1
 40
1
 10
12.389240
 20
247.160436
 30
0.0
 10
12.766560
 20
246.943070
 30
0.0
 10
12.963632
 20
246.817994
 30
0.0
 10
12.977797
 20
246.786906
 30
0.0
  0
SPLINE
  5
148
100
AcDbEntity
  8
Layer_1
 62
7
100
AcDbSpline
 70
8
 71
3
 72
8
 73
4
 74
0
 40
0
 40
0
 40
0
 40
0
 40
1
 40
1
 40
1
 40
1
 10
12.977797
 20
246.786906
 30
0.0
 10
13.008193
 20
246.720196
 30
0.0
 10
12.950992
 20
246.636392
 30
0.0
 10
12.875713
 20
246.637342
 30
0.0
  0
SPLINE
  5
149
100
AcDbEntity
  8
Layer_1
 62
7
100
AcDbSpline
 70
8
 71
3
 72
8
 73
4
 74
0
 40
0
 40
0
 40
0
 40
0
 40
1
 40
1
 40
1
 40
1
 10
12.875713
 20
246.637342
 30
0.0
 10
12.841738
 20
246.637871
 30
0.0
 10
12.583931
 20
246.774745
 30
0.0
 10
12.211999
 20
246.989978
 30
0.0
  0
LINE
  5
14a
100
AcDbEntity
  8
Layer_1
 62
7
100
AcDbLine
 10
12.211999
 20
246.989978
 30
0.0
 11
12.211999
 21
246.989978
 31
0.0
  0
LINE
  5
14b
100
AcDbEntity
  8
Layer_1
 62
7
100
AcDbLine
 10
7.983460
 20
248.482639
 30
0.0
 11
8.138318
 21
248.900757
 31
0.0
  0
LINE
  5
14c
100
AcDbEntity
  8
Layer_1
 62
7
100
AcDbLine
 10
8.138318
 20
248.900757
 30
0.0
 11
8.123819
 21
249.163205
 31
0.0
  0
SPLINE
  5
14d
100
AcDbEntity
  8
Layer_1
 62
7
100
AcDbSpline
 70
8
 71
3
 72
8
 73
4
 74
0
 40
0
 40
0
 40
0
 40
0
 40
1
 40
1
 40
1
 40
1
 10
8.123819
 20
249.163205
 30
0.0
 10
8.109002
 20
249.431810
 30
0.0
 10
8.043449
 20
250.518949
 30
0.0
 10
7.958594
 20
251.903491
 30
0.0
  0
SPLINE
  5
14e
100
AcDbEntity
  8
Layer_1
 62
7
100
AcDbSpline
 70
8
 71
3
 72
8
 73
4
 74
0
 40
0
 40
0
 40
0
 40
0
 40
1
 40
1
 40
1
 40
1
 10
7.958594
 20
251.903491
 30
0.0
 10
7.932374
 20
252.331443
 30
0.0
 10
7.894467
 20
252.952618
 30
0.0
 10
7.874372
 20
253.283873
 30
0.0
  0
SPLINE
  5
14f
100
AcDbEntity
  8
Layer_1
 62
7
100
AcDbSpline
 70
8
 71
3
 72
8
 73
4
 74
0
 40
0
 40
0
 40
0
 40
0
 40
1
 40
1
 40
1
 40
1
 10
7.874372
 20
253.283873
 30
0.0
 10
7.854290
 20
253.615126
 30
0.0
 10
7.833637
 20
253.889062
 30
0.0
 10
7.828504
 20
253.892618
 30
0.0
  0
SPLINE
  5
150
100
AcDbEntity
  8
Layer_1
 62
7
100
AcDbSpline
 70
8
 71
3
 72
8
 73
4
 74
0
 40
0
 40
0
 40
0
 40
0
 40
1
 40
1
 40
1
 40
1
 10
7.828504
 20
253.892618
 30
0.0
 10
7.823371
 20
253.896163
 30
0.0
 10
7.812365
 20
253.778546
 30
0.0
 10
7.804030
 20
253.631229
 30
0.0
  0
SPLINE
  5
151
100
AcDbEntity
  8
Layer_1
 62
7
100
AcDbSpline
 70
8
 71
3
 72
8
 73
4
 74
0
 40
0
 40
0
 40
0
 40
0
 40
1
 40
1
 40
1
 40
1
 10
7.804030
 20
253.631229
 30
0.0
 10
7.795696
 20
253.483909
 30
0.0
 10
7.724912
 20
252.359505
 30
0.0
 10
7.646720
 20
251.132552
 30
0.0
  0
LINE
  5
152
100
AcDbEntity
  8
Layer_1
 62
7
100
AcDbLine
 10
7.646720
 20
251.132552
 30
0.0
 11
7.504549
 21
248.901728
 31
0.0
  0
LINE
  5
153
100
AcDbEntity
  8
Layer_1
 62
7
100
AcDbLine
 10
7.504549
 20
248.901728
 30
0.0
 11
7.656763
 21
248.489442
 31
0.0
  0
SPLINE
  5
154
100
AcDbEntity
  8
Layer_1
 62
7
100
AcDbSpline
 70
8
 71
3
 72
8
 73
4
 74
0
 40
0
 40
0
 40
0
 40
0
 40
1
 40
1
 40
1
 40
1
 10
7.656763
 20
248.489442
 30
0.0
 10
7.740485
 20
248.262681
 30
0.0
 10
7.813394
 20
248.074311
 30
0.0
 10
7.818789
 20
248.070837
 30
0.0
  0
SPLINE
  5
155
100
AcDbEntity
  8
Layer_1
 62
7
100
AcDbSpline
 70
8
 71
3
 72
8
 73
4
 74
0
 40
0
 40
0
 40
0
 40
0
 40
1
 40
1
 40
1
 40
1
 10
7.818789
 20
248.070837
 30
0.0
 10
7.824186
 20
248.067371
 30
0.0
 10
7.898280
 20
248.252674
 30
0.0
 10
7.983452
 20
248.482639
 30
0.0
  0
LINE
  5
156
100
AcDbEntity
  8
Layer_1
 62
7
100
AcDbLine
 10
7.983452
 20
248.482639
 30
0.0
 11
7.983460
 21
248.482639
 31
0.0
  0
SPLINE
  5
157
100
AcDbEntity
  8
Layer_1
 62
7
100
AcDbSpline
 70
8
 71
3
 72
8
 73
4
 74
0
 40
0
 40
0
 40
0
 40
0
 40
1
 40
1
 40
1
 40
1
 10
7.377036
 20
248.360346
 30
0.0
 10
7.438268
 20
248.385879
 30
0.0
 10
7.492317
 20
248.412466
 30
0.0
 10
7.497143
 20
248.419433
 30
0.0
  0
SPLINE
  5
158
100
AcDbEntity
  8
Layer_1
 62
7
100
AcDbSpline
 70
8
 71
3
 72
8
 73
4
 74
0
 40
0
 40
0
 40
0
 40
0
 40
1
 40
1
 40
1
 40
1
 10
7.497143
 20
248.419433
 30
0.0
 10
7.504657
 20
248.430307
 30
0.0
 10
7.462075
 20
248.558297
 30
0.0
 10
7.395633
 20
248.724463
 30
0.0
  0
SPLINE
  5
159
100
AcDbEntity
  8
Layer_1
 62
7
100
AcDbSpline
 70
8
 71
3
 72
8
 73
4
 74
0
 40
0
 40
0
 40
0
 40
0
 40
1
 40
1
 40
1
 40
1
 10
7.395633
 20
248.724463
 30
0.0
 10
7.377985
 20
248.768579
 30
0.0
 10
7.376292
 20
248.768741
 30
0.0
 10
7.358218
 20
248.728035
 30
0.0
  0
SPLINE
  5
15a
100
AcDbEntity
  8
Layer_1
 62
7
100
AcDbSpline
 70
8
 71
3
 72
8
 73
4
 74
0
 40
0
 40
0
 40
0
 40
0
 40
1
 40
1
 40
1
 40
1
 10
7.358218
 20
248.728035
 30
0.0
 10
7.299436
 20
248.595666
 30
0.0
 10
7.216262
 20
248.300974
 30
0.0
 10
7.239397
 20
248.307041
 30
0.0
  0
SPLINE
  5
15b
100
AcDbEntity
  8
Layer_1
 62
7
100
AcDbSpline
 70
8
 71
3
 72
8
 73
4
 74
0
 40
0
 40
0
 40
0
 40
0
 40
1
 40
1
 40
1
 40
1
 10
7.239397
 20
248.307041
 30
0.0
 10
7.253870
 20
248.310824
 30
0.0
 10
7.315803
 20
248.334827
 30
0.0
 10
7.377036
 20
248.360360
 30
0.0
  0
LINE
  5
15c
100
AcDbEntity
  8
Layer_1
 62
7
100
AcDbLine
 10
7.377036
 20
248.360360
 30
0.0
 11
7.377036
 21
248.360346
 31
0.0
  0
SPLINE
  5
15d
100
AcDbEntity
  8
Layer_1
 62
7
100
AcDbSpline
 70
8
 71
3
 72
8
 73
4
 74
0
 40
0
 40
0
 40
0
 40
0
 40
1
 40
1
 40
1
 40
1
 10
1.952237
 20
249.570067
 30
0.0
 10
1.904279
 20
249.618026
 30
0.0
 10
1.900340
 20
249.669238
 30
0.0
 10
1.940384
 20
249.724049
 30
0.0
  0
SPLINE
  5
15e
100
AcDbEntity
  8
Layer_1
 62
7
100
AcDbSpline
 70
8
 71
3
 72
8
 73
4
 74
0
 40
0
 40
0
 40
0
 40
0
 40
1
 40
1
 40
1
 40
1
 10
1.940384
 20
249.724049
 30
0.0
 10
1.967940
 20
249.761755
 30
0.0
 10
2.003196
 20
249.763819
 30
0.0
 10
2.699206
 20
249.768473
 30
0.0
  0
SPLINE
  5
15f
100
AcDbEntity
  8
Layer_1
 62
7
100
AcDbSpline
 70
8
 71
3
 72
8
 73
4
 74
0
 40
0
 40
0
 40
0
 40
0
 40
1
 40
1
 40
1
 40
1
 10
2.699206
 20
249.768473
 30
0.0
 10
3.504443
 20
249.773870
 30
0.0
 10
3.507218
 20
249.773447
 30
0.0
 10
3.507218
 20
249.651551
 30
0.0
  0
SPLINE
  5
160
100
AcDbEntity
  8
Layer_1
 62
7
100
AcDbSpline
 70
8
 71
3
 72
8
 73
4
 74
0
 40
0
 40
0
 40
0
 40
0
 40
1
 40
1
 40
1
 40
1
 10
3.507218
 20
249.651551
 30
0.0
 10
3.507218
 20
249.531539
 30
0.0
 10
3.501636
 20
249.530687
 30
0.0
 10
2.711051
 20
249.529972
 30
0.0
  0
SPLINE
  5
161
100
AcDbEntity
  8
Layer_1
 62
7
100
AcDbSpline
 70
8
 71
3
 72
8
 73
4
 74
0
 40
0
 40
0
 40
0
 40
0
 40
1
 40
1
 40
1
 40
1
 10
2.711051
 20
249.529972
 30
0.0
 10
2.019677
 20
249.529443
 30
0.0
 10
1.991457
 20
249.530766
 30
0.0
 10
1.952230
 20
249.570067
 30
0.0
  0
LINE
  5
162
100
AcDbEntity
  8
Layer_1
 62
7
100
AcDbLine
 10
1.952230
 20
249.570067
 30
0.0
 11
1.952237
 21
249.570067
 31
0.0
  0
SPLINE
  5
163
100
AcDbEntity
  8
Layer_1
 62
7
100
AcDbSpline
 70
8
 71
3
 72
8
 73
4
 74
0
 40
0
 40
0
 40
0
 40
0
 40
1
 40
1
 40
1
 40
1
 10
12.199982
 20
249.583455
 30
0.0
 10
12.153748
 20
249.642235
 30
0.0
 10
12.160164
 20
249.703901
 30
0.0
 10
12.217100
 20
249.748026
 30
0.0
  0
SPLINE
  5
164
100
AcDbEntity
  8
Layer_1
 62
7
100
AcDbSpline
 70
8
 71
3
 72
8
 73
4
 74
0
 40
0
 40
0
 40
0
 40
0
 40
1
 40
1
 40
1
 40
1
 10
12.217100
 20
249.748026
 30
0.0
 10
12.242050
 20
249.767340
 30
0.0
 10
12.422737
 20
249.772209
 30
0.0
 10
12.979708
 20
249.768478
 30
0.0
  0
SPLINE
  5
165
100
AcDbEntity
  8
Layer_1
 62
7
100
AcDbSpline
 70
8
 71
3
 72
8
 73
4
 74
0
 40
0
 40
0
 40
0
 40
0
 40
1
 40
1
 40
1
 40
1
 10
12.979708
 20
249.768478
 30
0.0
 10
13.675714
 20
249.763822
 30
0.0
 10
13.710973
 20
249.761758
 30
0.0
 10
13.738526
 20
249.724055
 30
0.0
  0
SPLINE
  5
166
100
AcDbEntity
  8
Layer_1
 62
7
100
AcDbSpline
 70
8
 71
3
 72
8
 73
4
 74
0
 40
0
 40
0
 40
0
 40
0
 40
1
 40
1
 40
1
 40
1
 10
13.738526
 20
249.724055
 30
0.0
 10
13.778582
 20
249.669244
 30
0.0
 10
13.774642
 20
249.618031
 30
0.0
 10
13.726673
 20
249.570073
 30
0.0
  0
SPLINE
  5
167
100
AcDbEntity
  8
Layer_1
 62
7
100
AcDbSpline
 70
8
 71
3
 72
8
 73
4
 74
0
 40
0
 40
0
 40
0
 40
0
 40
1
 40
1
 40
1
 40
1
 10
13.726673
 20
249.570073
 30
0.0
 10
13.687465
 20
249.530864
 30
0.0
 10
13.658771
 20
249.529330
 30
0.0
 10
12.964237
 20
249.529330
 30
0.0
  0
LINE
  5
168
100
AcDbEntity
  8
Layer_1
 62
7
100
AcDbLine
 10
12.964237
 20
249.529330
 30
0.0
 11
12.242545
 21
249.529330
 31
0.0
  0
LINE
  5
169
100
AcDbEntity
  8
Layer_1
 62
7
100
AcDbLine
 10
12.242545
 20
249.529330
 30
0.0
 11
12.199982
 21
249.583455
 31
0.0
  0
SPLINE
  5
16a
100
AcDbEntity
  8
Layer_1
 62
7
100
AcDbSpline
 70
8
 71
3
 72
8
 73
4
 74
0
 40
0
 40
0
 40
0
 40
0
 40
1
 40
1
 40
1
 40
1
 10
8.636268
 20
249.545466
 30
0.0
 10
8.812599
 20
249.765883
 30
0.0
 10
9.164892
 20
250.204307
 30
0.0
 10
9.419145
 20
250.519746
 30
0.0
  0
SPLINE
  5
16b
100
AcDbEntity
  8
Layer_1
 62
7
100
AcDbSpline
 70
8
 71
3
 72
8
 73
4
 74
0
 40
0
 40
0
 40
0
 40
0
 40
1
 40
1
 40
1
 40
1
 10
9.419145
 20
250.519746
 30
0.0
 10
9.673396
 20
250.835182
 30
0.0
 10
9.897699
 20
251.113512
 30
0.0
 10
9.917588
 20
251.138261
 30
0.0
  0
SPLINE
  5
16c
100
AcDbEntity
  8
Layer_1
 62
7
100
AcDbSpline
 70
8
 71
3
 72
8
 73
4
 74
0
 40
0
 40
0
 40
0
 40
0
 40
1
 40
1
 40
1
 40
1
 10
9.917588
 20
251.138261
 30
0.0
 10
9.978241
 20
251.213726
 30
0.0
 10
9.857766
 20
251.108700
 30
0.0
 10
9.033156
 20
250.367245
 30
0.0
  0
LINE
  5
16d
100
AcDbEntity
  8
Layer_1
 62
7
100
AcDbLine
 10
9.033156
 20
250.367245
 30
0.0
 11
8.256771
 21
249.669159
 31
0.0
  0
LINE
  5
16e
100
AcDbEntity
  8
Layer_1
 62
7
100
AcDbLine
 10
8.256771
 20
249.669159
 30
0.0
 11
8.273758
 21
249.439654
 31
0.0
  0
SPLINE
  5
16f
100
AcDbEntity
  8
Layer_1
 62
7
100
AcDbSpline
 70
8
 71
3
 72
8
 73
4
 74
0
 40
0
 40
0
 40
0
 40
0
 40
1
 40
1
 40
1
 40
1
 10
8.273758
 20
249.439654
 30
0.0
 10
8.283097
 20
249.313427
 30
0.0
 10
8.289077
 20
249.193545
 30
0.0
 10
8.287040
 20
249.173246
 30
0.0
  0
SPLINE
  5
170
100
AcDbEntity
  8
Layer_1
 62
7
100
AcDbSpline
 70
8
 71
3
 72
8
 73
4
 74
0
 40
0
 40
0
 40
0
 40
0
 40
1
 40
1
 40
1
 40
1
 10
8.287040
 20
249.173246
 30
0.0
 10
8.284923
 20
249.152952
 30
0.0
 10
8.290612
 20
249.138223
 30
0.0
 10
8.299502
 20
249.140522
 30
0.0
  0
SPLINE
  5
171
100
AcDbEntity
  8
Layer_1
 62
7
100
AcDbSpline
 70
8
 71
3
 72
8
 73
4
 74
0
 40
0
 40
0
 40
0
 40
0
 40
1
 40
1
 40
1
 40
1
 10
8.299502
 20
249.140522
 30
0.0
 10
8.308392
 20
249.142903
 30
0.0
 10
8.459934
 20
249.325050
 30
0.0
 10
8.636263
 20
249.545466
 30
0.0
  0
LINE
  5
172
100
AcDbEntity
  8
Layer_1
 62
7
100
AcDbLine
 10
8.636263
 20
249.545466
 30
0.0
 11
8.636268
 21
249.545466
 31
0.0
  0
SPLINE
  5
173
100
AcDbEntity
  8
Layer_1
 62
7
100
AcDbSpline
 70
8
 71
3
 72
8
 73
4
 74
0
 40
0
 40
0
 40
0
 40
0
 40
1
 40
1
 40
1
 40
1
 10
3.918026
 20
251.783894
 30
0.0
 10
3.884413
 20
251.801568
 30
0.0
 10
3.601645
 20
251.963057
 30
0.0
 10
3.289654
 20
252.142748
 30
0.0
  0
SPLINE
  5
174
100
AcDbEntity
  8
Layer_1
 62
7
100
AcDbSpline
 70
8
 71
3
 72
8
 73
4
 74
0
 40
0
 40
0
 40
0
 40
0
 40
1
 40
1
 40
1
 40
1
 10
3.289654
 20
252.142748
 30
0.0
 10
2.912269
 20
252.360100
 30
0.0
 10
2.715266
 20
252.485103
 30
0.0
 10
2.701097
 20
252.516199
 30
0.0
  0
SPLINE
  5
175
100
AcDbEntity
  8
Layer_1
 62
7
100
AcDbSpline
 70
8
 71
3
 72
8
 73
4
 74
0
 40
0
 40
0
 40
0
 40
0
 40
1
 40
1
 40
1
 40
1
 10
2.701097
 20
252.516199
 30
0.0
 10
2.671512
 20
252.581133
 30
0.0
 10
2.727852
 20
252.666464
 30
0.0
 10
2.800313
 20
252.666464
 30
0.0
  0
SPLINE
  5
176
100
AcDbEntity
  8
Layer_1
 62
7
100
AcDbSpline
 70
8
 71
3
 72
8
 73
4
 74
0
 40
0
 40
0
 40
0
 40
0
 40
1
 40
1
 40
1
 40
1
 10
2.800313
 20
252.666464
 30
0.0
 10
2.857238
 20
252.666464
 30
0.0
 10
4.042652
 20
251.995106
 30
0.0
 10
4.086086
 20
251.938270
 30
0.0
  0
SPLINE
  5
177
100
AcDbEntity
  8
Layer_1
 62
7
100
AcDbSpline
 70
8
 71
3
 72
8
 73
4
 74
0
 40
0
 40
0
 40
0
 40
0
 40
1
 40
1
 40
1
 40
1
 10
4.086086
 20
251.938270
 30
0.0
 10
4.167022
 20
251.832358
 30
0.0
 10
4.042808
 20
251.718256
 30
0.0
 10
3.918026
 20
251.783894
 30
0.0
  0
LINE
  5
178
100
AcDbEntity
  8
Layer_1
 62
7
100
AcDbLine
 10
3.918026
 20
251.783894
 30
0.0
 11
3.918026
 21
251.783894
 31
0.0
  0
SPLINE
  5
179
100
AcDbEntity
  8
Layer_1
 62
7
100
AcDbSpline
 70
8
 71
3
 72
8
 73
4
 74
0
 40
0
 40
0
 40
0
 40
0
 40
1
 40
1
 40
1
 40
1
 10
11.634160
 20
251.770559
 30
0.0
 10
11.581058
 20
251.791938
 30
0.0
 10
11.555209
 20
251.872688
 30
0.0
 10
11.584363
 20
251.926129
 30
0.0
  0
SPLINE
  5
17a
100
AcDbEntity
  8
Layer_1
 62
7
100
AcDbSpline
 70
8
 71
3
 72
8
 73
4
 74
0
 40
0
 40
0
 40
0
 40
0
 40
1
 40
1
 40
1
 40
1
 10
11.584363
 20
251.926129
 30
0.0
 10
11.613552
 20
251.979627
 30
0.0
 10
12.814470
 20
252.666477
 30
0.0
 10
12.878825
 20
252.666477
 30
0.0
  0
SPLINE
  5
17b
100
AcDbEntity
  8
Layer_1
 62
7
100
AcDbSpline
 70
8
 71
3
 72
8
 73
4
 74
0
 40
0
 40
0
 40
0
 40
0
 40
1
 40
1
 40
1
 40
1
 10
12.878825
 20
252.666477
 30
0.0
 10
12.951043
 20
252.666477
 30
0.0
 10
13.007327
 20
252.581022
 30
0.0
 10
12.977797
 20
252.516212
 30
0.0
  0
SPLINE
  5
17c
100
AcDbEntity
  8
Layer_1
 62
7
100
AcDbSpline
 70
8
 71
3
 72
8
 73
4
 74
0
 40
0
 40
0
 40
0
 40
0
 40
1
 40
1
 40
1
 40
1
 10
12.977797
 20
252.516212
 30
0.0
 10
12.963642
 20
252.485121
 30
0.0
 10
12.766560
 20
252.360048
 30
0.0
 10
12.389240
 20
252.142679
 30
0.0
  0
SPLINE
  5
17d
100
AcDbEntity
  8
Layer_1
 62
7
100
AcDbSpline
 70
8
 71
3
 72
8
 73
4
 74
0
 40
0
 40
0
 40
0
 40
0
 40
1
 40
1
 40
1
 40
1
 10
12.389240
 20
252.142679
 30
0.0
 10
11.849827
 20
251.831932
 30
0.0
 10
11.699277
 20
251.748154
 30
0.0
 10
11.685489
 20
251.751073
 30
0.0
  0
SPLINE
  5
17e
100
AcDbEntity
  8
Layer_1
 62
7
100
AcDbSpline
 70
8
 71
3
 72
8
 73
4
 74
0
 40
0
 40
0
 40
0
 40
0
 40
1
 40
1
 40
1
 40
1
 10
11.685489
 20
251.751073
 30
0.0
 10
11.682129
 20
251.751866
 30
0.0
 10
11.659031
 20
251.760545
 30
0.0
 10
11.634160
 20
251.770572
 30
0.0
  0
LINE
  5
17f
100
AcDbEntity
  8
Layer_1
 62
7
100
AcDbLine
 10
11.634160
 20
251.770572
 30
0.0
 11
11.634160
 21
251.770559
 31
0.0
  0
SPLINE
  5
180
100
AcDbEntity
  8
Layer_1
 62
7
100
AcDbSpline
 70
8
 71
3
 72
8
 73
4
 74
0
 40
0
 40
0
 40
0
 40
0
 40
1
 40
1
 40
1
 40
1
 10
5.553373
 20
253.404925
 30
0.0
 10
5.535408
 20
253.418922
 30
0.0
 10
5.363440
 20
253.702983
 30
0.0
 10
5.171239
 20
254.036157
 30
0.0
  0
SPLINE
  5
181
100
AcDbEntity
  8
Layer_1
 62
7
100
AcDbSpline
 70
8
 71
3
 72
8
 73
4
 74
0
 40
0
 40
0
 40
0
 40
0
 40
1
 40
1
 40
1
 40
1
 10
5.171239
 20
254.036157
 30
0.0
 10
4.795624
 20
254.687264
 30
0.0
 10
4.780185
 20
254.728187
 30
0.0
 10
4.890352
 20
254.780744
 30
0.0
  0
SPLINE
  5
182
100
AcDbEntity
  8
Layer_1
 62
7
100
AcDbSpline
 70
8
 71
3
 72
8
 73
4
 74
0
 40
0
 40
0
 40
0
 40
0
 40
1
 40
1
 40
1
 40
1
 10
4.890352
 20
254.780744
 30
0.0
 10
4.929825
 20
254.799582
 30
0.0
 10
4.957234
 20
254.801249
 30
0.0
 10
4.984711
 20
254.786565
 30
0.0
  0
SPLINE
  5
183
100
AcDbEntity
  8
Layer_1
 62
7
100
AcDbSpline
 70
8
 71
3
 72
8
 73
4
 74
0
 40
0
 40
0
 40
0
 40
0
 40
1
 40
1
 40
1
 40
1
 10
4.984711
 20
254.786565
 30
0.0
 10
5.042339
 20
254.755725
 30
0.0
 10
5.725289
 20
253.565567
 30
0.0
 10
5.726588
 20
253.493720
 30
0.0
  0
SPLINE
  5
184
100
AcDbEntity
  8
Layer_1
 62
7
100
AcDbSpline
 70
8
 71
3
 72
8
 73
4
 74
0
 40
0
 40
0
 40
0
 40
0
 40
1
 40
1
 40
1
 40
1
 10
5.726588
 20
253.493720
 30
0.0
 10
5.728176
 20
253.399507
 30
0.0
 10
5.626978
 20
253.347577
 30
0.0
 10
5.553373
 20
253.404933
 30
0.0
  0
LINE
  5
185
100
AcDbEntity
  8
Layer_1
 62
7
100
AcDbLine
 10
5.553373
 20
253.404933
 30
0.0
 11
5.553373
 21
253.404925
 31
0.0
  0
SPLINE
  5
186
100
AcDbEntity
  8
Layer_1
 62
7
100
AcDbSpline
 70
8
 71
3
 72
8
 73
4
 74
0
 40
0
 40
0
 40
0
 40
0
 40
1
 40
1
 40
1
 40
1
 10
9.989089
 20
253.407042
 30
0.0
 10
9.966705
 20
253.423420
 30
0.0
 10
9.951677
 20
253.458771
 30
0.0
 10
9.952307
 20
253.493619
 30
0.0
  0
SPLINE
  5
187
100
AcDbEntity
  8
Layer_1
 62
7
100
AcDbSpline
 70
8
 71
3
 72
8
 73
4
 74
0
 40
0
 40
0
 40
0
 40
0
 40
1
 40
1
 40
1
 40
1
 10
9.952307
 20
253.493619
 30
0.0
 10
9.953630
 20
253.565466
 30
0.0
 10
10.636555
 20
254.755624
 30
0.0
 10
10.694184
 20
254.786464
 30
0.0
  0
SPLINE
  5
188
100
AcDbEntity
  8
Layer_1
 62
7
100
AcDbSpline
 70
8
 71
3
 72
8
 73
4
 74
0
 40
0
 40
0
 40
0
 40
0
 40
1
 40
1
 40
1
 40
1
 10
10.694184
 20
254.786464
 30
0.0
 10
10.753305
 20
254.818106
 30
0.0
 10
10.842594
 20
254.767811
 30
0.0
 10
10.850611
 20
254.698334
 30
0.0
  0
SPLINE
  5
189
100
AcDbEntity
  8
Layer_1
 62
7
100
AcDbSpline
 70
8
 71
3
 72
8
 73
4
 74
0
 40
0
 40
0
 40
0
 40
0
 40
1
 40
1
 40
1
 40
1
 10
10.850611
 20
254.698334
 30
0.0
 10
10.856908
 20
254.643722
 30
0.0
 10
10.789241
 20
254.518164
 30
0.0
 10
10.298942
 20
253.674750
 30
0.0
  0
SPLINE
  5
18a
100
AcDbEntity
  8
Layer_1
 62
7
100
AcDbSpline
 70
8
 71
3
 72
8
 73
4
 74
0
 40
0
 40
0
 40
0
 40
0
 40
1
 40
1
 40
1
 40
1
 10
10.298942
 20
253.674750
 30
0.0
 10
10.121764
 20
253.369969
 30
0.0
 10
10.084188
 20
253.337502
 30
0.0
 10
9.989089
 20
253.407042
 30
0.0
  0
LINE
  5
18b
100
AcDbEntity
  8
Layer_1
 62
7
100
AcDbLine
 10
9.989089
 20
253.407042
 30
0.0
 11
9.989089
 21
253.407042
 31
0.0
  0
LINE
  5
18c
100
AcDbEntity
  8
Layer_1
 62
7
100
AcDbLine
 10
7.770169
 20
254.012921
 30
0.0
 11
7.715765
 21
254.055715
 31
0.0
  0
LINE
  5
18d
100
AcDbEntity
  8
Layer_1
 62
7
100
AcDbLine
 10
7.715765
 20
254.055715
 30
0.0
 11
7.721586
 21
254.788679
 31
0.0
  0
SPLINE
  5
18e
100
AcDbEntity
  8
Layer_1
 62
7
100
AcDbSpline
 70
8
 71
3
 72
8
 73
4
 74
0
 40
0
 40
0
 40
0
 40
0
 40
1
 40
1
 40
1
 40
1
 10
7.721586
 20
254.788679
 30
0.0
 10
7.727142
 20
255.487112
 30
0.0
 10
7.729259
 20
255.523005
 30
0.0
 10
7.766952
 20
255.550543
 30
0.0
  0
SPLINE
  5
18f
100
AcDbEntity
  8
Layer_1
 62
7
100
AcDbSpline
 70
8
 71
3
 72
8
 73
4
 74
0
 40
0
 40
0
 40
0
 40
0
 40
1
 40
1
 40
1
 40
1
 10
7.766952
 20
255.550543
 30
0.0
 10
7.817103
 20
255.587193
 30
0.0
 10
7.861794
 20
255.587193
 30
0.0
 10
7.911946
 20
255.550543
 30
0.0
  0
SPLINE
  5
190
100
AcDbEntity
  8
Layer_1
 62
7
100
AcDbSpline
 70
8
 71
3
 72
8
 73
4
 74
0
 40
0
 40
0
 40
0
 40
0
 40
1
 40
1
 40
1
 40
1
 10
7.911946
 20
255.550543
 30
0.0
 10
7.949625
 20
255.523005
 30
0.0
 10
7.951763
 20
255.487112
 30
0.0
 10
7.957308
 20
254.788679
 30
0.0
  0
LINE
  5
191
100
AcDbEntity
  8
Layer_1
 62
7
100
AcDbLine
 10
7.957308
 20
254.788679
 30
0.0
 11
7.963129
 21
254.055715
 31
0.0
  0
LINE
  5
192
100
AcDbEntity
  8
Layer_1
 62
7
100
AcDbLine
 10
7.963129
 20
254.055715
 30
0.0
 11
7.908728
 21
254.012921
 31
0.0
  0
SPLINE
  5
193
100
AcDbEntity
  8
Layer_1
 62
7
100
AcDbSpline
 70
8
 71
3
 72
8
 73
4
 74
0
 40
0
 40
0
 40
0
 40
0
 40
1
 40
1
 40
1
 40
1
 10
7.908728
 20
254.012921
 30
0.0
 10
7.878807
 20
253.989400
 30
0.0
 10
7.847631
 20
253.970128
 30
0.0
 10
7.839447
 20
253.970128
 30
0.0
  0
SPLINE
  5
194
100
AcDbEntity
  8
Layer_1
 62
7
100
AcDbSpline
 70
8
 71
3
 72
8
 73
4
 74
0
 40
0
 40
0
 40
0
 40
0
 40
1
 40
1
 40
1
 40
1
 10
7.839447
 20
253.970128
 30
0.0
 10
7.831272
 20
253.970128
 30
0.0
 10
7.800091
 20
253.989389
 30
0.0
 10
7.770169
 20
254.012921
 30
0.0
  0
LINE
  5
195
100
AcDbEntity
  8
Layer_1
 62
7
100
AcDbLine
 10
7.770169
 20
254.012921
 30
0.0
 11
7.770169
 21
254.012921
 31
0.0
  0
ENDSEC
  0
SECTION
  2
OBJECTS
  0
DICTIONARY
  5
C
330
0
100
AcDbDictionary
  3
ACAD_GROUP
350
D
  3
ACAD_MLINESTYLE
350
17
  0
DICTIONARY
  5
D
330
C
100
AcDbDictionary
  0
DICTIONARY
  5
1A
330
C
100
AcDbDictionary
  0
DICTIONARY
  5
17
330
C
100
AcDbDictionary
  3
STANDARD
350
18
  0
DICTIONARY
  5
19
330
C
100
AcDbDictionary
  0
ENDSEC
  0
EOF
