<?xml version="1.0" encoding="UTF-8" standalone="no"?>
<svg
   xmlns:dc="http://purl.org/dc/elements/1.1/"
   xmlns:cc="http://creativecommons.org/ns#"
   xmlns:rdf="http://www.w3.org/1999/02/22-rdf-syntax-ns#"
   xmlns:svg="http://www.w3.org/2000/svg"
   xmlns="http://www.w3.org/2000/svg"
   xmlns:sodipodi="http://sodipodi.sourceforge.net/DTD/sodipodi-0.dtd"
   xmlns:inkscape="http://www.inkscape.org/namespaces/inkscape"
   width="210mm"
   height="297mm"
   viewBox="0 0 210 297"
   version="1.1"
   id="svg8"
   sodipodi:docname="stopwatchLong.svg"
   inkscape:version="1.0.2 (e86c870879, 2021-01-15, custom)">
  <defs
     id="defs2">
    <marker
       id="DistanceX"
       orient="auto"
       refX="0.0"
       refY="0.0"
       style="overflow:visible">
      <path
         d="M 3,-3 L -3,3 M 0,-5 L  0,5"
         style="stroke:#000000; stroke-width:0.5"
         id="path646" />
    </marker>
    <pattern
       id="Hatch"
       patternUnits="userSpaceOnUse"
       width="8"
       height="8"
       x="0"
       y="0">
      <path
         d="M8 4 l-4,4"
         stroke="#000000"
         stroke-width="0.25"
         linecap="square"
         id="path649" />
      <path
         d="M6 2 l-4,4"
         stroke="#000000"
         stroke-width="0.25"
         linecap="square"
         id="path651" />
      <path
         d="M4 0 l-4,4"
         stroke="#000000"
         stroke-width="0.25"
         linecap="square"
         id="path653" />
    </pattern>
    <symbol
       id="*MODEL_SPACE" />
    <symbol
       id="*PAPER_SPACE" />
    <marker
       id="DistanceX-1"
       orient="auto"
       refX="0.0"
       refY="0.0"
       style="overflow:visible">
      <path
         d="M 3,-3 L -3,3 M 0,-5 L  0,5"
         style="stroke:#000000; stroke-width:0.5"
         id="path1686" />
    </marker>
    <pattern
       id="Hatch-8"
       patternUnits="userSpaceOnUse"
       width="8"
       height="8"
       x="0"
       y="0">
      <path
         d="M8 4 l-4,4"
         stroke="#000000"
         stroke-width="0.25"
         linecap="square"
         id="path1689" />
      <path
         d="M6 2 l-4,4"
         stroke="#000000"
         stroke-width="0.25"
         linecap="square"
         id="path1691" />
      <path
         d="M4 0 l-4,4"
         stroke="#000000"
         stroke-width="0.25"
         linecap="square"
         id="path1693" />
    </pattern>
    <symbol
       id="*MODEL_SPACE-6" />
    <symbol
       id="*PAPER_SPACE-9" />
  </defs>
  <sodipodi:namedview
     id="base"
     pagecolor="#ffffff"
     bordercolor="#666666"
     borderopacity="1.0"
     inkscape:pageopacity="0.0"
     inkscape:pageshadow="2"
     inkscape:zoom="11.2"
     inkscape:cx="36.395145"
     inkscape:cy="179.12604"
     inkscape:document-units="mm"
     inkscape:current-layer="g692"
     inkscape:document-rotation="0"
     showgrid="false"
     inkscape:window-width="1920"
     inkscape:window-height="986"
     inkscape:window-x="-11"
     inkscape:window-y="-11"
     inkscape:window-maximized="1" />
  <metadata
     id="metadata5">
    <rdf:RDF>
      <cc:Work
         rdf:about="">
        <dc:format>image/svg+xml</dc:format>
        <dc:type
           rdf:resource="http://purl.org/dc/dcmitype/StillImage" />
        <dc:title></dc:title>
      </cc:Work>
    </rdf:RDF>
  </metadata>
  <g
     inkscape:label="Layer 1"
     inkscape:groupmode="layer"
     id="layer1">
    <g
       inkscape:label="0"
       id="g692"
       transform="matrix(0.26458333,0,0,0.26458333,-72.456933,-153.25331)">
      <path
         style="fill:none;stroke:#000000;stroke-width:0.269977;stroke-miterlimit:4;stroke-dasharray:none"
         d="m 303.2208,741.69572 -0.20562,-0.16174 0.022,-2.77026 c 0.021,-2.63975 0.029,-2.77541 0.17146,-2.87949 0.18955,-0.13852 0.35846,-0.13852 0.54801,0 0.14241,0.10408 0.15049,0.23974 0.17145,2.87949 l 0.022,2.77026 -0.20561,0.16174 c -0.11309,0.0889 -0.23092,0.16174 -0.26185,0.16174 -0.0309,0 -0.14875,-0.0728 -0.26184,-0.16174 z"
         id="path59" />
      <path
         style="fill:none;stroke:#000000;stroke-width:0.269977;stroke-miterlimit:4;stroke-dasharray:none"
         d="m 311.60728,743.98566 c -0.0846,-0.0619 -0.1414,-0.19551 -0.13902,-0.32722 0.005,-0.27155 2.58614,-4.76979 2.80395,-4.88635 0.22345,-0.11959 0.56092,0.0705 0.59122,0.33309 0.0238,0.20641 -0.23195,0.68096 -2.08505,3.86867 -0.66965,1.15193 -0.81167,1.27464 -1.1711,1.01181 z"
         id="path57" />
      <path
         style="fill:none;stroke:#000000;stroke-width:0.269977;stroke-miterlimit:4;stroke-dasharray:none"
         d="m 294.84235,743.99366 c -0.0679,-0.0529 -0.71786,-1.12652 -1.44429,-2.38576 -1.41965,-2.46088 -1.478,-2.61555 -1.06162,-2.81419 0.14919,-0.0712 0.25278,-0.0775 0.35663,-0.022 0.21781,0.11656 2.79904,4.6148 2.80395,4.88635 0.006,0.35608 -0.37648,0.55235 -0.65467,0.33557 z"
         id="path55" />
      <path
         style="fill:none;stroke:#000000;stroke-width:0.269977;stroke-miterlimit:4;stroke-dasharray:none"
         d="m 317.82488,750.1708 c -0.2007,-0.0808 -0.2984,-0.386 -0.18821,-0.58798 0.11032,-0.2022 4.64923,-2.79817 4.89246,-2.79817 0.27295,0 0.48568,0.32298 0.37407,0.56793 -0.0535,0.11751 -0.79838,0.59023 -2.22447,1.41178 -2.03873,1.17448 -2.60774,1.49112 -2.65985,1.48009 -0.0127,-0.003 -0.1,-0.0358 -0.194,-0.0737 z"
         id="path53" />
      <path
         style="fill:none;stroke:#000000;stroke-width:0.269977;stroke-miterlimit:4;stroke-dasharray:none"
         d="m 288.6615,750.1204 c -0.12704,-0.0668 -1.19577,-0.67715 -2.37495,-1.3563 -1.42634,-0.82149 -2.17092,-1.29394 -2.22447,-1.41147 -0.11182,-0.24542 0.10112,-0.56793 0.37499,-0.56793 0.21515,0 4.69546,2.53742 4.85962,2.75223 0.3059,0.4003 -0.16357,0.83155 -0.63519,0.58347 z"
         id="path51" />
      <path
         style="fill:none;stroke:#000000;stroke-width:0.269977;stroke-miterlimit:4;stroke-dasharray:none"
         d="m 299.67482,759.06085 c -1.05647,-0.1484 -3.16216,-0.43955 -4.67932,-0.64698 -1.51715,-0.20744 -2.85572,-0.39058 -2.97459,-0.40701 -0.36248,-0.0501 0.24112,-0.0739 4.43115,-0.17516 l 3.94497,-0.0953 0.5487,0.67489 c 0.30178,0.37118 0.59635,0.7162 0.65461,0.76671 0.0585,0.0503 0.081,0.10553 0.0506,0.12227 -0.0306,0.0165 -0.91968,-0.091 -1.97614,-0.23941 z"
         id="path49" />
      <path
         style="fill:none;stroke:#000000;stroke-width:0.269977;stroke-miterlimit:4;stroke-dasharray:none"
         d="m 319.96342,758.43703 c -0.17474,-0.22216 -0.15049,-0.45523 0.0647,-0.622 0.0943,-0.073 0.77721,-0.0914 2.8823,-0.0773 2.63058,0.0176 2.76384,0.0254 2.86798,0.1679 0.15139,0.20716 0.1365,0.40072 -0.0448,0.58198 -0.14819,0.14819 -0.25664,0.15399 -2.88165,0.15399 h -2.72766 z"
         id="path47" />
      <path
         style="fill:none;stroke:#000000;stroke-width:0.269977;stroke-miterlimit:4;stroke-dasharray:none"
         d="m 281.23174,758.48763 c -0.18126,-0.18126 -0.19615,-0.37482 -0.0448,-0.58198 0.10415,-0.14251 0.2374,-0.15031 2.86799,-0.1679 3.04342,-0.0204 3.05391,-0.0188 3.05391,0.44191 0,0.45359 -0.0211,0.45681 -3.00914,0.45951 -2.61307,0.002 -2.71973,-0.003 -2.86799,-0.15154 z"
         id="path45" />
      <path
         style="fill:none;stroke:#000000;stroke-width:0.269977;stroke-miterlimit:4;stroke-dasharray:none"
         d="m 306.21043,759.0516 c -0.23454,0.0887 -0.45208,0.15581 -0.48341,0.14918 -0.0489,-0.0104 -0.26386,-0.47266 -0.5123,-1.10175 -0.0659,-0.16704 -0.0617,-0.17188 0.0936,-0.10688 0.50496,0.21134 1.49807,0.80557 1.41874,0.84891 -0.0496,0.0271 -0.28209,0.12184 -0.51663,0.21051 z"
         id="path43" />
      <path
         style="fill:none;stroke:#000000;stroke-width:0.269977;stroke-miterlimit:4;stroke-dasharray:none"
         d="m 304.02694,762.5976 0.58529,-1.58029 -0.0548,-0.99193 c -0.056,-1.0152 -0.30376,-5.12408 -0.62447,-10.357 -0.0991,-1.61746 -0.24237,-3.96521 -0.31832,-5.2172 -0.0759,-1.25198 -0.15396,-2.28733 -0.17336,-2.30077 -0.0194,-0.0134 -0.061,0.43114 -0.0925,0.98793 -0.0315,0.5568 -0.29903,4.80652 -0.59456,9.44383 l -0.53734,8.43147 0.5753,1.55825 c 0.31643,0.85705 0.59199,1.569 0.61238,1.58213 0.0204,0.0131 0.30044,-0.68726 0.62235,-1.55642 z"
         id="path41" />
      <path
         style="fill:none;stroke:#000000;stroke-width:0.269977;stroke-miterlimit:4;stroke-dasharray:none"
         d="m 320.00884,768.23916 c -1.26421,-0.73158 -2.33273,-1.39119 -2.37448,-1.46579 -0.11469,-0.20495 -0.006,-0.50547 0.21394,-0.58891 0.23998,-0.0912 0.11958,-0.15124 2.83043,1.41045 1.42609,0.82154 2.17093,1.29427 2.22447,1.41177 0.11488,0.25213 -0.10131,0.56887 -0.38583,0.56528 -0.12841,-0.002 -1.1028,-0.51932 -2.50853,-1.3328 z"
         id="path39" />
      <path
         style="fill:none;stroke:#000000;stroke-width:0.269977;stroke-miterlimit:4;stroke-dasharray:none"
         d="m 284.10977,769.37897 c -0.0989,-0.15099 -0.10982,-0.23594 -0.0477,-0.37229 0.0535,-0.1175 0.79838,-0.59023 2.22447,-1.41177 2.71085,-1.56169 2.59045,-1.50169 2.83043,-1.41045 0.22078,0.0839 0.32693,0.38022 0.2121,0.59199 -0.10958,0.2021 -4.64886,2.79816 -4.89265,2.79816 -0.12759,0 -0.24424,-0.0699 -0.32666,-0.19564 z"
         id="path37" />
      <path
         style="fill:none;stroke:#000000;stroke-width:0.269977;stroke-miterlimit:4;stroke-dasharray:none"
         d="m 314.20312,777.52591 c -0.26771,-0.2328 -2.73076,-4.57775 -2.73503,-4.82474 -0.006,-0.3561 0.37671,-0.5523 0.65484,-0.33556 0.21041,0.16396 2.75466,4.64381 2.75466,4.85034 0,0.34069 -0.41816,0.53286 -0.67447,0.30996 z"
         id="path35" />
      <path
         style="fill:none;stroke:#000000;stroke-width:0.269977;stroke-miterlimit:4;stroke-dasharray:none"
         d="m 292.31867,777.55971 c -0.39338,-0.19802 -0.32729,-0.36997 1.07939,-2.80835 0.72643,-1.25923 1.37637,-2.33283 1.44429,-2.38575 0.27813,-0.21674 0.661,-0.0205 0.65484,0.33556 -0.004,0.24568 -2.46651,4.59114 -2.73282,4.82296 -0.18337,0.15962 -0.1971,0.16071 -0.4457,0.0356 z"
         id="path33" />
      <path
         style="fill:none;stroke:#000000;stroke-width:0.269977;stroke-miterlimit:4;stroke-dasharray:none"
         d="m 303.20863,780.47536 c -0.14318,-0.10465 -0.14945,-0.22628 -0.14945,-2.89811 v -2.78888 l 0.21173,-0.15814 0.21173,-0.15814 0.21173,0.15814 0.21173,0.15814 v 2.78888 c 0,2.67183 -0.006,2.79346 -0.14945,2.89811 -0.0822,0.0601 -0.2055,0.10924 -0.27401,0.10924 -0.0685,0 -0.19181,-0.0492 -0.27401,-0.10924 z"
         id="path31" />
      <path
         style="fill:none;stroke:#000000;stroke-width:0.269977;stroke-miterlimit:4;stroke-dasharray:none"
         d="m 305.44596,780.96961 c 11.87144,-1.07679 20.90345,-10.92393 20.90345,-22.78995 0,-12.62246 -10.24432,-22.86677 -22.86677,-22.86677 -12.61781,0 -22.86677,10.24895 -22.86677,22.86677 0,11.23598 8.16211,20.79709 19.2866,22.59237 1.64455,0.26539 3.90688,0.34603 5.54349,0.19758 z"
         id="path29" />
      <path
         style="fill:none;stroke:#000000;stroke-width:0.269977;stroke-miterlimit:4;stroke-dasharray:none"
         d="m 301.82729,782.77295 c -1.97541,-0.18923 -3.34675,-0.42197 -4.77356,-0.81012 -5.4249,-1.47582 -10.08304,-4.68057 -13.48596,-9.27818 -2.07729,-2.80658 -3.61246,-6.35906 -4.28852,-9.92391 -0.32283,-1.70232 -0.39596,-2.57299 -0.3912,-4.65808 0.005,-2.08187 0.0994,-3.08237 0.45937,-4.8571 1.95564,-9.64089 9.55642,-17.23756 19.21511,-19.2047 1.84362,-0.37548 2.67022,-0.4513 4.92011,-0.4513 2.63645,0 4.30226,0.21284 6.55095,0.83702 5.9228,1.64403 11.06523,5.47454 14.3287,10.67322 1.88233,2.99853 3.06338,6.32284 3.58017,10.07714 0.18829,1.36787 0.18514,4.65789 -0.006,6.04394 -0.78189,5.67605 -3.11555,10.43239 -7.04798,14.36482 -3.9155,3.9155 -8.72183,6.28192 -14.29913,7.04025 -0.86006,0.11694 -4.04862,0.21537 -4.76227,0.147 z"
         id="path27" />
      <path
         style="fill:none;stroke:#000000;stroke-width:0.269977;stroke-miterlimit:4;stroke-dasharray:none"
         d="m 304.36648,731.74191 a 25.759916,25.755163 0 0 1 25.75991,25.75282 v 1.4019 a 25.760168,25.755414 0 0 1 -25.76017,25.75579 h -1.40217 a 25.75518,25.750427 0 0 1 -25.75517,-25.75579 v -0.70087 h -1.75272 v 0.70087 a 27.513219,27.508142 0 0 0 27.50789,27.5082 h 1.40217 a 27.513219,27.508142 0 0 0 27.51288,-27.5082 v -1.4019 a 27.512619,27.507541 0 0 0 -27.51262,-27.50524 h -0.7011 v 1.75242 z"
         id="path1700" />
    </g>
  </g>
</svg>
