<?xml version="1.0" encoding="UTF-8" standalone="no"?>
<svg
   xmlns:dc="http://purl.org/dc/elements/1.1/"
   xmlns:cc="http://creativecommons.org/ns#"
   xmlns:rdf="http://www.w3.org/1999/02/22-rdf-syntax-ns#"
   xmlns:svg="http://www.w3.org/2000/svg"
   xmlns="http://www.w3.org/2000/svg"
   xmlns:sodipodi="http://sodipodi.sourceforge.net/DTD/sodipodi-0.dtd"
   xmlns:inkscape="http://www.inkscape.org/namespaces/inkscape"
   width="210mm"
   height="297mm"
   viewBox="0 0 210 297"
   version="1.1"
   id="svg8"
   inkscape:version="1.0.2 (e86c870879, 2021-01-15, custom)"
   sodipodi:docname="stopwatch.svg">
  <defs
     id="defs2" />
  <sodipodi:namedview
     id="base"
     pagecolor="#ffffff"
     bordercolor="#666666"
     borderopacity="1.0"
     inkscape:pageopacity="0.0"
     inkscape:pageshadow="2"
     inkscape:zoom="0.7"
     inkscape:cx="427.28495"
     inkscape:cy="535.09432"
     inkscape:document-units="mm"
     inkscape:current-layer="layer1"
     inkscape:document-rotation="0"
     showgrid="false"
     inkscape:window-width="1920"
     inkscape:window-height="986"
     inkscape:window-x="-11"
     inkscape:window-y="-11"
     inkscape:window-maximized="1" />
  <metadata
     id="metadata5">
    <rdf:RDF>
      <cc:Work
         rdf:about="">
        <dc:format>image/svg+xml</dc:format>
        <dc:type
           rdf:resource="http://purl.org/dc/dcmitype/StillImage" />
        <dc:title></dc:title>
      </cc:Work>
    </rdf:RDF>
  </metadata>
  <g
     inkscape:label="Layer 1"
     inkscape:groupmode="layer"
     id="layer1">
    <path
       id="path24"
       style="fill:none;stroke-width:0.284156;stroke:#000000"
       d="M 98.214008,235.15898 C 90.923384,234.46056 85.862204,233.60163 80.596334,232.16907 60.574771,226.7223 43.383051,214.89461 30.823986,197.92632 23.157371,187.56812 17.491572,174.45707 14.996447,161.30033 c -1.191485,-6.28267 -1.461354,-9.49605 -1.443802,-17.19144 0.01756,-7.68353 0.36676,-11.37607 1.695402,-17.92601 7.217608,-35.581417 35.269672,-63.618279 70.916768,-70.878359 6.804219,-1.385784 9.854933,-1.665615 18.158545,-1.665615 9.73029,0 15.87827,0.785536 24.17745,3.089189 21.85915,6.067572 40.8382,20.204753 52.88263,39.391408 6.94707,11.066597 11.30595,23.335587 13.21325,37.191457 0.69493,5.04839 0.68329,17.1908 -0.0214,22.30626 -2.88569,20.94846 -11.49849,38.50259 -26.01183,53.01594 -14.45084,14.45083 -32.18946,23.18454 -52.77346,25.9833 -3.17422,0.43159 -14.94216,0.79483 -17.57601,0.54252 z m 13.355342,-6.65557 c 43.81366,-3.97409 77.1479,-40.31669 77.1479,-84.11037 0,-46.585408 -37.80847,-84.39388 -84.39389,-84.39388 -46.568291,0 -84.393877,37.825589 -84.393877,84.39388 0,41.46842 30.123698,76.75539 71.18062,83.38115 6.069505,0.97949 14.419057,1.27709 20.459247,0.72922 z m -8.25726,-1.82411 c -0.52844,-0.38624 -0.55158,-0.83512 -0.55158,-10.696 v -10.29283 l 0.78142,-0.58365 0.78143,-0.58365 0.78143,0.58365 0.78143,0.58365 v 10.29283 c 0,9.86088 -0.0232,10.30976 -0.55158,10.696 -0.30337,0.22174 -0.75844,0.40317 -1.01128,0.40317 -0.25282,0 -0.7079,-0.18143 -1.01127,-0.40317 z M 63.12073,215.91857 c -1.451809,-0.7308 -1.207893,-1.36542 3.983679,-10.3647 2.681047,-4.64742 5.079739,-8.60971 5.330437,-8.80506 1.026482,-0.7999 2.439523,-0.0758 2.416792,1.23847 -0.01571,0.90672 -9.103104,16.94442 -10.085969,17.79998 -0.676766,0.58911 -0.727439,0.59315 -1.644939,0.13131 z m 80.76846,-0.12473 c -0.98802,-0.8592 -10.07833,-16.89502 -10.0941,-17.80656 -0.0227,-1.31425 1.39031,-2.03837 2.41679,-1.23847 0.77656,0.60514 10.16659,17.13884 10.16659,17.90105 0,1.25738 -1.54331,1.96662 -2.48928,1.14398 z M 32.824352,185.72612 c -0.365141,-0.55728 -0.40531,-0.8708 -0.17603,-1.37402 0.197593,-0.43367 2.946565,-2.17833 8.209793,-5.2104 10.004889,-5.76369 9.560521,-5.54226 10.446229,-5.20551 0.814809,0.30979 1.206588,1.40326 0.782791,2.18483 -0.40444,0.74589 -17.157439,10.32713 -18.057194,10.32713 -0.470917,0 -0.901439,-0.25784 -1.205589,-0.72203 z m 132.491898,-4.20669 c -4.6658,-2.70003 -8.60936,-5.13442 -8.76344,-5.40976 -0.4233,-0.7564 -0.0204,-1.86553 0.78957,-2.17348 0.88571,-0.33675 0.44134,-0.55818 10.44623,5.20551 5.26323,3.03207 8.0122,4.77673 8.2098,5.2104 0.42397,0.93054 -0.37392,2.09952 -1.424,2.08627 -0.4739,-0.006 -4.07005,-1.91665 -9.25816,-4.91894 z m -58.98404,-20.82118 2.1601,-5.83235 -0.20205,-3.66087 c -0.20675,-3.74679 -1.1211,-18.91132 -2.30471,-38.22435 -0.36585,-5.96956 -0.89451,-14.634322 -1.17482,-19.255007 -0.28031,-4.620684 -0.56824,-8.441816 -0.63984,-8.491405 -0.0716,-0.04958 -0.22522,1.59117 -0.34138,3.64613 -0.11616,2.054962 -1.10361,17.739312 -2.19434,34.854122 l -1.983147,31.11785 2.123277,5.75101 c 1.16781,3.16306 2.18484,5.79066 2.26008,5.83911 0.0753,0.0484 1.10883,-2.53646 2.29688,-5.74425 z m -8.459057,1.70587 c 0.85415,-0.35611 1.60807,-0.72701 1.6754,-0.82421 0.10498,-0.15158 -0.48918,-1.93702 -1.41597,-4.25489 -0.24604,-0.61535 -0.26966,-0.6176 -0.521899,-0.0496 -0.819965,1.84638 -1.980153,5.95706 -1.657433,5.87242 0.201803,-0.0529 1.065764,-0.38759 1.919902,-0.74371 z M 22.202455,145.52967 c -0.668985,-0.66898 -0.723935,-1.38336 -0.165221,-2.1479 0.384368,-0.52596 0.876171,-0.55474 10.584812,-0.61965 11.232275,-0.0751 11.270986,-0.0695 11.270986,1.63092 0,1.67406 -0.07789,1.68596 -11.105766,1.69591 -9.643984,0.009 -10.037631,-0.0121 -10.584811,-0.55928 z m 142.946155,-0.18673 c -0.6449,-0.81987 -0.55541,-1.68009 0.23882,-2.29557 0.34789,-0.26961 2.86846,-0.33719 10.63765,-0.28525 9.70864,0.0649 10.20045,0.0937 10.58481,0.61965 0.55871,0.76454 0.50376,1.47892 -0.16522,2.1479 -0.54692,0.54693 -0.94718,0.56831 -10.63523,0.56831 h -10.06692 z m -49.71035,0.52995 c 2.45962,-3.07462 7.37378,-9.19024 10.92036,-13.59027 3.54658,-4.40003 6.67536,-8.2825 6.95281,-8.6277 0.84605,-1.05266 -0.83447,0.41236 -12.33699,10.75491 l -10.82979,9.73764 0.23708,3.20136 c 0.1304,1.76075 0.2138,3.43303 0.18534,3.71616 -0.0285,0.28315 0.0497,0.48856 0.17376,0.45645 0.12408,-0.0317 2.23787,-2.57396 4.69748,-5.64856 z M 49.62332,114.64894 c -0.468863,-0.24661 -4.413203,-2.49917 -8.765205,-5.00568 -5.264138,-3.03185 -8.01216,-4.77552 -8.209793,-5.20928 -0.412697,-0.90576 0.37322,-2.09604 1.383963,-2.09604 0.794044,0 17.329442,9.36477 17.935317,10.1576 1.128979,1.47735 -0.603693,3.06895 -2.344282,2.1534 z m 107.63262,0.18617 c -0.74069,-0.29805 -1.10129,-1.4246 -0.6946,-2.17004 0.40714,-0.74626 17.15882,-10.32713 18.05648,-10.32713 1.00736,0 1.79249,1.19201 1.38059,2.09604 -0.1976,0.43368 -2.94657,2.17833 -8.2098,5.21042 -7.5243,4.33464 -9.62436,5.50324 -9.81667,5.46256 -0.0468,-0.01 -0.36904,-0.13225 -0.716,-0.27185 z M 72.434846,92.037284 c -0.250698,-0.195357 -2.64939,-4.157638 -5.330437,-8.805068 -5.239474,-9.082319 -5.454811,-9.653154 -3.918073,-10.386272 0.550596,-0.262662 0.932918,-0.286219 1.316206,-0.08109 0.803839,0.430203 10.330336,17.031751 10.348452,18.033952 0.02376,1.314168 -1.38944,2.03855 -2.416148,1.23848 z m 61.873934,-0.03082 c -0.31232,-0.228379 -0.52184,-0.721549 -0.51305,-1.207664 0.0181,-1.002201 9.54461,-17.603748 10.34846,-18.033952 0.82468,-0.44136 2.07016,0.260336 2.18199,1.229319 0.0879,0.761797 -0.85604,2.513236 -7.69522,14.278046 -2.47146,4.251403 -2.99561,4.704261 -4.32218,3.734251 z m -30.95179,-8.451436 -0.75886,-0.596921 0.0812,-10.224152 c 0.0774,-9.742459 0.10717,-10.243143 0.63277,-10.627245 0.69958,-0.51125 1.32296,-0.51125 2.02254,0 0.52561,0.384102 0.55542,0.884786 0.63278,10.627245 l 0.0812,10.224152 -0.75886,0.596921 c -0.41738,0.328305 -0.85224,0.596921 -0.96638,0.596921 -0.11413,0 -0.549,-0.268616 -0.96637,-0.596921 z" />
  </g>
</svg>
