  0
SECTION
  2
HEADER
  9
$ACADVER
  1
AC1014
  9
$HANDSEED
  5
FFFF
  9
$MEASUREMENT
 70
     1
  0
ENDSEC
  0
SECTION
  2
TABLES
  0
TABLE
  2
VPORT
  5
8
330
0
100
AcDbSymbolTable
 70
     4
  0
VPORT
  5
2E
330
8
100
AcDbSymbolTableRecord
100
AcDbViewportTableRecord
  2
*ACTIVE
 70
     0
 10
0.0
 20
0.0
 11
1.0
 21
1.0
 12
210.0
 22
148.5
 13
0.0
 23
0.0
 14
10.0
 24
10.0
 15
10.0
 25
10.0
 16
0.0
 26
0.0
 36
1.0
 17
0.0
 27
0.0
 37
0.0
 40
341.0
 41
1.24
 42
50.0
 43
0.0
 44
0.0
 50
0.0
 51
0.0
 71
     0
 72
   100
 73
     1
 74
     3
 75
     0
 76
     0
 77
     0
 78
     0
  0
ENDTAB
  0
TABLE
  2
LTYPE
  5
5
330
0
100
AcDbSymbolTable
 70
     1
  0
LTYPE
  5
14
330
5
100
AcDbSymbolTableRecord
100
AcDbLinetypeTableRecord
  2
BYBLOCK
 70
     0
  3

 72
    65
 73
     0
 40
0.0
  0
LTYPE
  5
15
330
5
100
AcDbSymbolTableRecord
100
AcDbLinetypeTableRecord
  2
BYLAYER
 70
     0
  3

 72
    65
 73
     0
 40
0.0
  0
LTYPE
  5
16
330
5
100
AcDbSymbolTableRecord
100
AcDbLinetypeTableRecord
  2
CONTINUOUS
 70
     0
  3
Solid line
 72
    65
 73
     0
 40
0.0
  0
ENDTAB
  0
TABLE
  2
LAYER
  5
2
100
AcDbSymbolTable
 70
2
  0
LAYER
  5
50
100
AcDbSymbolTableRecord
100
AcDbLayerTableRecord
  2
0
 70
0
  6
CONTINUOUS
  0
LAYER
  5
51
100
AcDbSymbolTableRecord
100
AcDbLayerTableRecord
  2
Layer_1
 70
0
  6
CONTINUOUS
  0
ENDTAB
  0
TABLE
  2
STYLE
  5
3
330
0
100
AcDbSymbolTable
 70
     1
  0
STYLE
  5
11
330
3
100
AcDbSymbolTableRecord
100
AcDbTextStyleTableRecord
  2
STANDARD
 70
     0
 40
0.0
 41
1.0
 50
0.0
 71
     0
 42
2.5
  3
txt
  4

  0
ENDTAB
  0
TABLE
  2
VIEW
  5
6
330
0
100
AcDbSymbolTable
 70
     0
  0
ENDTAB
  0
TABLE
  2
UCS
  5
7
330
0
100
AcDbSymbolTable
 70
     0
  0
ENDTAB
  0
TABLE
  2
APPID
  5
9
330
0
100
AcDbSymbolTable
 70
     2
  0
APPID
  5
12
330
9
100
AcDbSymbolTableRecord
100
AcDbRegAppTableRecord
  2
ACAD
 70
     0
  0
ENDTAB
  0
TABLE
  2
DIMSTYLE
  5
A
330
0
100
AcDbSymbolTable
 70
     1
  0
DIMSTYLE
105
27
330
A
100
AcDbSymbolTableRecord
100
AcDbDimStyleTableRecord
  2
ISO-25
 70
     0
  3

  4

  5

  6

  7

 40
1.0
 41
2.5
 42
0.625
 43
3.75
 44
1.25
 45
0.0
 46
0.0
 47
0.0
 48
0.0
140
2.5
141
2.5
142
0.0
143
0.03937007874016
144
1.0
145
0.0
146
1.0
147
0.625
 71
     0
 72
     0
 73
     0
 74
     0
 75
     0
 76
     0
 77
     1
 78
     8
170
     0
171
     3
172
     1
173
     0
174
     0
175
     0
176
     0
177
     0
178
     0
270
     2
271
     2
272
     2
273
     2
274
     3
340
11
275
     0
280
     0
281
     0
282
     0
283
     0
284
     8
285
     0
286
     0
287
     3
288
     0
  0
ENDTAB
  0
TABLE
  2
BLOCK_RECORD
  5
1
330
0
100
AcDbSymbolTable
 70
     1
  0
BLOCK_RECORD
  5
1F
330
1
100
AcDbSymbolTableRecord
100
AcDbBlockTableRecord
  2
*MODEL_SPACE
  0
BLOCK_RECORD
  5
1B
330
1
100
AcDbSymbolTableRecord
100
AcDbBlockTableRecord
  2
*PAPER_SPACE
  0
ENDTAB
  0
ENDSEC
  0
SECTION
  2
BLOCKS
  0
BLOCK
  5
20
330
1F
100
AcDbEntity
  8
0
100
AcDbBlockBegin
  2
*MODEL_SPACE
 70
     0
 10
0.0
 20
0.0
 30
0.0
  3
*MODEL_SPACE
  1

  0
ENDBLK
  5
21
330
1F
100
AcDbEntity
  8
0
100
AcDbBlockEnd
  0
BLOCK
  5
1C
330
1B
100
AcDbEntity
 67
     1
  8
0
100
AcDbBlockBegin
  2
*PAPER_SPACE
  1

  0
ENDBLK
  5
1D
330
1B
100
AcDbEntity
 67
     1
  8
0
100
AcDbBlockEnd
  0
ENDSEC
  0
SECTION
  2
ENTITIES
  0
LINE
  5
100
100
AcDbEntity
  8
Layer_1
 62
7
100
AcDbLine
 10
28.013216
 20
248.300069
 30
0.0
 11
28.013216
 21
248.497363
 31
0.0
  0
SPLINE
  5
101
100
AcDbEntity
  8
Layer_1
 62
7
100
AcDbSpline
 70
8
 71
3
 72
8
 73
4
 74
0
 40
0
 40
0
 40
0
 40
0
 40
1
 40
1
 40
1
 40
1
 10
28.013216
 20
248.497363
 30
0.0
 10
28.012858
 20
252.772583
 30
0.0
 10
24.568127
 20
256.238142
 30
0.0
 10
20.318960
 20
256.238141
 30
0.0
  0
LINE
  5
102
100
AcDbEntity
  8
Layer_1
 62
7
100
AcDbLine
 10
20.318960
 20
256.238141
 30
0.0
 11
20.122893
 21
256.238141
 31
0.0
  0
LINE
  5
103
100
AcDbEntity
  8
Layer_1
 62
7
100
AcDbLine
 10
20.122893
 20
256.238141
 30
0.0
 11
20.122893
 21
255.744961
 31
0.0
  0
LINE
  5
104
100
AcDbEntity
  8
Layer_1
 62
7
100
AcDbLine
 10
20.122893
 20
255.744961
 30
0.0
 11
20.318960
 21
255.744961
 31
0.0
  0
SPLINE
  5
105
100
AcDbEntity
  8
Layer_1
 62
7
100
AcDbSpline
 70
8
 71
3
 72
8
 73
4
 74
0
 40
0
 40
0
 40
0
 40
0
 40
1
 40
1
 40
1
 40
1
 10
20.318960
 20
255.744961
 30
0.0
 10
22.229543
 20
255.745137
 30
0.0
 10
24.061933
 20
254.981630
 30
0.0
 10
25.412981
 20
253.622423
 30
0.0
  0
SPLINE
  5
106
100
AcDbEntity
  8
Layer_1
 62
7
100
AcDbSpline
 70
8
 71
3
 72
8
 73
4
 74
0
 40
0
 40
0
 40
0
 40
0
 40
1
 40
1
 40
1
 40
1
 10
25.412981
 20
253.622423
 30
0.0
 10
26.764029
 20
252.263216
 30
0.0
 10
27.523050
 20
250.419660
 30
0.0
 10
27.523049
 20
248.497363
 30
0.0
  0
LINE
  5
107
100
AcDbEntity
  8
Layer_1
 62
7
100
AcDbLine
 10
27.523049
 20
248.497363
 30
0.0
 11
27.523049
 21
248.300069
 31
0.0
  0
LINE
  5
108
100
AcDbEntity
  8
Layer_1
 62
7
100
AcDbLine
 10
27.523049
 20
248.300069
 30
0.0
 11
28.013216
 21
248.300069
 31
0.0
  0
SPLINE
  5
109
100
AcDbEntity
  8
Layer_1
 62
7
100
AcDbSpline
 70
8
 71
3
 72
8
 73
4
 74
0
 40
0
 40
0
 40
0
 40
0
 40
1
 40
1
 40
1
 40
1
 10
19.620090
 20
241.280473
 30
0.0
 10
19.057788
 20
241.334339
 30
0.0
 10
18.667433
 20
241.400588
 30
0.0
 10
18.261292
 20
241.511078
 30
0.0
  0
SPLINE
  5
10a
100
AcDbEntity
  8
Layer_1
 62
7
100
AcDbSpline
 70
8
 71
3
 72
8
 73
4
 74
0
 40
0
 40
0
 40
0
 40
0
 40
1
 40
1
 40
1
 40
1
 10
18.261292
 20
241.511078
 30
0.0
 10
16.717091
 20
241.931170
 30
0.0
 10
15.391146
 20
242.843404
 30
0.0
 10
14.422505
 20
244.152114
 30
0.0
  0
SPLINE
  5
10b
100
AcDbEntity
  8
Layer_1
 62
7
100
AcDbSpline
 70
8
 71
3
 72
8
 73
4
 74
0
 40
0
 40
0
 40
0
 40
0
 40
1
 40
1
 40
1
 40
1
 10
14.422505
 20
244.152114
 30
0.0
 10
13.831202
 20
244.951012
 30
0.0
 10
13.394217
 20
245.962227
 30
0.0
 10
13.201775
 20
246.976963
 30
0.0
  0
SPLINE
  5
10c
100
AcDbEntity
  8
Layer_1
 62
7
100
AcDbSpline
 70
8
 71
3
 72
8
 73
4
 74
0
 40
0
 40
0
 40
0
 40
0
 40
1
 40
1
 40
1
 40
1
 10
13.201775
 20
246.976963
 30
0.0
 10
13.109880
 20
247.461529
 30
0.0
 10
13.089065
 20
247.709366
 30
0.0
 10
13.090420
 20
248.302889
 30
0.0
  0
SPLINE
  5
10d
100
AcDbEntity
  8
Layer_1
 62
7
100
AcDbSpline
 70
8
 71
3
 72
8
 73
4
 74
0
 40
0
 40
0
 40
0
 40
0
 40
1
 40
1
 40
1
 40
1
 10
13.090420
 20
248.302889
 30
0.0
 10
13.091743
 20
248.895495
 30
0.0
 10
13.118706
 20
249.180289
 30
0.0
 10
13.221182
 20
249.685465
 30
0.0
  0
SPLINE
  5
10e
100
AcDbEntity
  8
Layer_1
 62
7
100
AcDbSpline
 70
8
 71
3
 72
8
 73
4
 74
0
 40
0
 40
0
 40
0
 40
0
 40
1
 40
1
 40
1
 40
1
 10
13.221182
 20
249.685465
 30
0.0
 10
13.777854
 20
252.429749
 30
0.0
 10
15.941423
 20
254.592146
 30
0.0
 10
18.690774
 20
255.152094
 30
0.0
  0
SPLINE
  5
10f
100
AcDbEntity
  8
Layer_1
 62
7
100
AcDbSpline
 70
8
 71
3
 72
8
 73
4
 74
0
 40
0
 40
0
 40
0
 40
0
 40
1
 40
1
 40
1
 40
1
 10
18.690774
 20
255.152094
 30
0.0
 10
19.215561
 20
255.258975
 30
0.0
 10
19.450855
 20
255.280560
 30
0.0
 10
20.091286
 20
255.280560
 30
0.0
  0
SPLINE
  5
110
100
AcDbEntity
  8
Layer_1
 62
7
100
AcDbSpline
 70
8
 71
3
 72
8
 73
4
 74
0
 40
0
 40
0
 40
0
 40
0
 40
1
 40
1
 40
1
 40
1
 10
20.091286
 20
255.280560
 30
0.0
 10
20.841752
 20
255.280560
 30
0.0
 10
21.315927
 20
255.219973
 30
0.0
 10
21.956017
 20
255.042300
 30
0.0
  0
SPLINE
  5
111
100
AcDbEntity
  8
Layer_1
 62
7
100
AcDbSpline
 70
8
 71
3
 72
8
 73
4
 74
0
 40
0
 40
0
 40
0
 40
0
 40
1
 40
1
 40
1
 40
1
 10
21.956017
 20
255.042300
 30
0.0
 10
23.641947
 20
254.574327
 30
0.0
 10
25.105742
 20
253.483970
 30
0.0
 10
26.034693
 20
252.004162
 30
0.0
  0
SPLINE
  5
112
100
AcDbEntity
  8
Layer_1
 62
7
100
AcDbSpline
 70
8
 71
3
 72
8
 73
4
 74
0
 40
0
 40
0
 40
0
 40
0
 40
1
 40
1
 40
1
 40
1
 10
26.034693
 20
252.004162
 30
0.0
 10
26.570498
 20
251.150628
 30
0.0
 10
26.906685
 20
250.204360
 30
0.0
 10
27.053788
 20
249.135699
 30
0.0
  0
SPLINE
  5
113
100
AcDbEntity
  8
Layer_1
 62
7
100
AcDbSpline
 70
8
 71
3
 72
8
 73
4
 74
0
 40
0
 40
0
 40
0
 40
0
 40
1
 40
1
 40
1
 40
1
 10
27.053788
 20
249.135699
 30
0.0
 10
27.107387
 20
248.746331
 30
0.0
 10
27.106490
 20
247.809823
 30
0.0
 10
27.052200
 20
247.415285
 30
0.0
  0
SPLINE
  5
114
100
AcDbEntity
  8
Layer_1
 62
7
100
AcDbSpline
 70
8
 71
3
 72
8
 73
4
 74
0
 40
0
 40
0
 40
0
 40
0
 40
1
 40
1
 40
1
 40
1
 10
27.052200
 20
247.415285
 30
0.0
 10
26.829633
 20
245.799596
 30
0.0
 10
26.165355
 20
244.445698
 30
0.0
 10
25.045986
 20
243.326329
 30
0.0
  0
SPLINE
  5
115
100
AcDbEntity
  8
Layer_1
 62
7
100
AcDbSpline
 70
8
 71
3
 72
8
 73
4
 74
0
 40
0
 40
0
 40
0
 40
0
 40
1
 40
1
 40
1
 40
1
 10
25.045986
 20
243.326329
 30
0.0
 10
23.931438
 20
242.211781
 30
0.0
 10
22.563311
 20
241.538177
 30
0.0
 10
20.975731
 20
241.322317
 30
0.0
  0
SPLINE
  5
116
100
AcDbEntity
  8
Layer_1
 62
7
100
AcDbSpline
 70
8
 71
3
 72
8
 73
4
 74
0
 40
0
 40
0
 40
0
 40
0
 40
1
 40
1
 40
1
 40
1
 10
20.975731
 20
241.322317
 30
0.0
 10
20.730913
 20
241.289030
 30
0.0
 10
19.823290
 20
241.261013
 30
0.0
 10
19.620148
 20
241.280473
 30
0.0
  0
LINE
  5
117
100
AcDbEntity
  8
Layer_1
 62
7
100
AcDbLine
 10
19.620148
 20
241.280473
 30
0.0
 11
19.620090
 21
241.280473
 31
0.0
  0
SPLINE
  5
118
100
AcDbEntity
  8
Layer_1
 62
7
100
AcDbSpline
 70
8
 71
3
 72
8
 73
4
 74
0
 40
0
 40
0
 40
0
 40
0
 40
1
 40
1
 40
1
 40
1
 10
20.650146
 20
241.793796
 30
0.0
 10
24.029358
 20
242.100307
 30
0.0
 10
26.600327
 20
244.903300
 30
0.0
 10
26.600327
 20
248.280971
 30
0.0
  0
SPLINE
  5
119
100
AcDbEntity
  8
Layer_1
 62
7
100
AcDbSpline
 70
8
 71
3
 72
8
 73
4
 74
0
 40
0
 40
0
 40
0
 40
0
 40
1
 40
1
 40
1
 40
1
 10
26.600327
 20
248.280971
 30
0.0
 10
26.600327
 20
251.873961
 30
0.0
 10
23.684275
 20
254.790012
 30
0.0
 10
20.091286
 20
254.790012
 30
0.0
  0
SPLINE
  5
11a
100
AcDbEntity
  8
Layer_1
 62
7
100
AcDbSpline
 70
8
 71
3
 72
8
 73
4
 74
0
 40
0
 40
0
 40
0
 40
0
 40
1
 40
1
 40
1
 40
1
 10
20.091286
 20
254.790012
 30
0.0
 10
16.499617
 20
254.790012
 30
0.0
 10
13.582245
 20
251.872641
 30
0.0
 10
13.582245
 20
248.280971
 30
0.0
  0
SPLINE
  5
11b
100
AcDbEntity
  8
Layer_1
 62
7
100
AcDbSpline
 70
8
 71
3
 72
8
 73
4
 74
0
 40
0
 40
0
 40
0
 40
0
 40
1
 40
1
 40
1
 40
1
 10
13.582245
 20
248.280971
 30
0.0
 10
13.582245
 20
245.082642
 30
0.0
 10
15.905593
 20
242.361064
 30
0.0
 10
19.072189
 20
241.850038
 30
0.0
  0
SPLINE
  5
11c
100
AcDbEntity
  8
Layer_1
 62
7
100
AcDbSpline
 70
8
 71
3
 72
8
 73
4
 74
0
 40
0
 40
0
 40
0
 40
0
 40
1
 40
1
 40
1
 40
1
 10
19.072189
 20
241.850038
 30
0.0
 10
19.540310
 20
241.774494
 30
0.0
 10
20.184284
 20
241.751542
 30
0.0
 10
20.650146
 20
241.793796
 30
0.0
  0
LINE
  5
11d
100
AcDbEntity
  8
Layer_1
 62
7
100
AcDbLine
 10
20.650146
 20
241.793796
 30
0.0
 11
20.650146
 21
241.793796
 31
0.0
  0
SPLINE
  5
11e
100
AcDbEntity
  8
Layer_1
 62
7
100
AcDbSpline
 70
8
 71
3
 72
8
 73
4
 74
0
 40
0
 40
0
 40
0
 40
0
 40
1
 40
1
 40
1
 40
1
 10
20.013290
 20
241.934485
 30
0.0
 10
19.972533
 20
241.964275
 30
0.0
 10
19.970747
 20
241.998898
 30
0.0
 10
19.970747
 20
242.759434
 30
0.0
  0
LINE
  5
11f
100
AcDbEntity
  8
Layer_1
 62
7
100
AcDbLine
 10
19.970747
 20
242.759434
 30
0.0
 11
19.970747
 21
243.553291
 31
0.0
  0
LINE
  5
120
100
AcDbEntity
  8
Layer_1
 62
7
100
AcDbLine
 10
19.970747
 20
243.553291
 30
0.0
 11
20.031017
 21
243.598305
 31
0.0
  0
LINE
  5
121
100
AcDbEntity
  8
Layer_1
 62
7
100
AcDbLine
 10
20.031017
 20
243.598305
 30
0.0
 11
20.091286
 21
243.643318
 31
0.0
  0
LINE
  5
122
100
AcDbEntity
  8
Layer_1
 62
7
100
AcDbLine
 10
20.091286
 20
243.643318
 30
0.0
 11
20.151555
 21
243.598305
 31
0.0
  0
LINE
  5
123
100
AcDbEntity
  8
Layer_1
 62
7
100
AcDbLine
 10
20.151555
 20
243.598305
 30
0.0
 11
20.211825
 21
243.553291
 31
0.0
  0
LINE
  5
124
100
AcDbEntity
  8
Layer_1
 62
7
100
AcDbLine
 10
20.211825
 20
243.553291
 30
0.0
 11
20.211825
 21
242.759434
 31
0.0
  0
SPLINE
  5
125
100
AcDbEntity
  8
Layer_1
 62
7
100
AcDbSpline
 70
8
 71
3
 72
8
 73
4
 74
0
 40
0
 40
0
 40
0
 40
0
 40
1
 40
1
 40
1
 40
1
 10
20.211825
 20
242.759434
 30
0.0
 10
20.211825
 20
241.998898
 30
0.0
 10
20.209973
 20
241.964275
 30
0.0
 10
20.169282
 20
241.934485
 30
0.0
  0
SPLINE
  5
126
100
AcDbEntity
  8
Layer_1
 62
7
100
AcDbSpline
 70
8
 71
3
 72
8
 73
4
 74
0
 40
0
 40
0
 40
0
 40
0
 40
1
 40
1
 40
1
 40
1
 10
20.169282
 20
241.934485
 30
0.0
 10
20.145893
 20
241.917393
 30
0.0
 10
20.110786
 20
241.903391
 30
0.0
 10
20.091286
 20
241.903391
 30
0.0
  0
SPLINE
  5
127
100
AcDbEntity
  8
Layer_1
 62
7
100
AcDbSpline
 70
8
 71
3
 72
8
 73
4
 74
0
 40
0
 40
0
 40
0
 40
0
 40
1
 40
1
 40
1
 40
1
 10
20.091286
 20
241.903391
 30
0.0
 10
20.071786
 20
241.903391
 30
0.0
 10
20.036687
 20
241.917388
 30
0.0
 10
20.013290
 20
241.934485
 30
0.0
  0
LINE
  5
128
100
AcDbEntity
  8
Layer_1
 62
7
100
AcDbLine
 10
20.013290
 20
241.934485
 30
0.0
 11
20.013290
 21
241.934485
 31
0.0
  0
SPLINE
  5
129
100
AcDbEntity
  8
Layer_1
 62
7
100
AcDbSpline
 70
8
 71
3
 72
8
 73
4
 74
0
 40
0
 40
0
 40
0
 40
0
 40
1
 40
1
 40
1
 40
1
 10
16.913454
 20
242.764429
 30
0.0
 10
16.801479
 20
242.820793
 30
0.0
 10
16.820294
 20
242.869738
 30
0.0
 10
17.220703
 20
243.563827
 30
0.0
  0
SPLINE
  5
12a
100
AcDbEntity
  8
Layer_1
 62
7
100
AcDbSpline
 70
8
 71
3
 72
8
 73
4
 74
0
 40
0
 40
0
 40
0
 40
0
 40
1
 40
1
 40
1
 40
1
 10
17.220703
 20
243.563827
 30
0.0
 10
17.427483
 20
243.922265
 30
0.0
 10
17.612487
 20
244.227867
 30
0.0
 10
17.631823
 20
244.242932
 30
0.0
  0
SPLINE
  5
12b
100
AcDbEntity
  8
Layer_1
 62
7
100
AcDbSpline
 70
8
 71
3
 72
8
 73
4
 74
0
 40
0
 40
0
 40
0
 40
0
 40
1
 40
1
 40
1
 40
1
 10
17.631823
 20
244.242932
 30
0.0
 10
17.710991
 20
244.304628
 30
0.0
 10
17.819976
 20
244.248779
 30
0.0
 10
17.818222
 20
244.147412
 30
0.0
  0
SPLINE
  5
12c
100
AcDbEntity
  8
Layer_1
 62
7
100
AcDbSpline
 70
8
 71
3
 72
8
 73
4
 74
0
 40
0
 40
0
 40
0
 40
0
 40
1
 40
1
 40
1
 40
1
 10
17.818222
 20
244.147412
 30
0.0
 10
17.816899
 20
244.077480
 30
0.0
 10
17.116127
 20
242.840542
 30
0.0
 10
17.040324
 20
242.774555
 30
0.0
  0
SPLINE
  5
12d
100
AcDbEntity
  8
Layer_1
 62
7
100
AcDbSpline
 70
8
 71
3
 72
8
 73
4
 74
0
 40
0
 40
0
 40
0
 40
0
 40
1
 40
1
 40
1
 40
1
 10
17.040324
 20
242.774555
 30
0.0
 10
16.988127
 20
242.729118
 30
0.0
 10
16.984219
 20
242.728808
 30
0.0
 10
16.913454
 20
242.764421
 30
0.0
  0
LINE
  5
12e
100
AcDbEntity
  8
Layer_1
 62
7
100
AcDbLine
 10
16.913454
 20
242.764421
 30
0.0
 11
16.913454
 21
242.764429
 31
0.0
  0
SPLINE
  5
12f
100
AcDbEntity
  8
Layer_1
 62
7
100
AcDbSpline
 70
8
 71
3
 72
8
 73
4
 74
0
 40
0
 40
0
 40
0
 40
0
 40
1
 40
1
 40
1
 40
1
 10
23.142875
 20
242.774033
 30
0.0
 10
23.066673
 20
242.840304
 30
0.0
 10
22.365565
 20
244.077094
 30
0.0
 10
22.364350
 20
244.147399
 30
0.0
  0
SPLINE
  5
130
100
AcDbEntity
  8
Layer_1
 62
7
100
AcDbSpline
 70
8
 71
3
 72
8
 73
4
 74
0
 40
0
 40
0
 40
0
 40
0
 40
1
 40
1
 40
1
 40
1
 10
22.364350
 20
244.147399
 30
0.0
 10
22.362498
 20
244.248764
 30
0.0
 10
22.471580
 20
244.304614
 30
0.0
 10
22.550749
 20
244.242919
 30
0.0
  0
SPLINE
  5
131
100
AcDbEntity
  8
Layer_1
 62
7
100
AcDbSpline
 70
8
 71
3
 72
8
 73
4
 74
0
 40
0
 40
0
 40
0
 40
0
 40
1
 40
1
 40
1
 40
1
 10
22.550749
 20
244.242919
 30
0.0
 10
22.610643
 20
244.196246
 30
0.0
 10
23.334867
 20
242.921054
 30
0.0
 10
23.334867
 20
242.862267
 30
0.0
  0
SPLINE
  5
132
100
AcDbEntity
  8
Layer_1
 62
7
100
AcDbSpline
 70
8
 71
3
 72
8
 73
4
 74
0
 40
0
 40
0
 40
0
 40
0
 40
1
 40
1
 40
1
 40
1
 10
23.334867
 20
242.862267
 30
0.0
 10
23.334867
 20
242.765289
 30
0.0
 10
23.215837
 20
242.710586
 30
0.0
 10
23.142875
 20
242.774033
 30
0.0
  0
LINE
  5
133
100
AcDbEntity
  8
Layer_1
 62
7
100
AcDbLine
 10
23.142875
 20
242.774033
 30
0.0
 11
23.142875
 21
242.774033
 31
0.0
  0
SPLINE
  5
134
100
AcDbEntity
  8
Layer_1
 62
7
100
AcDbSpline
 70
8
 71
3
 72
8
 73
4
 74
0
 40
0
 40
0
 40
0
 40
0
 40
1
 40
1
 40
1
 40
1
 10
14.576786
 20
245.093066
 30
0.0
 10
14.548624
 20
245.136045
 30
0.0
 10
14.545526
 20
245.160228
 30
0.0
 10
14.563213
 20
245.199037
 30
0.0
  0
SPLINE
  5
135
100
AcDbEntity
  8
Layer_1
 62
7
100
AcDbSpline
 70
8
 71
3
 72
8
 73
4
 74
0
 40
0
 40
0
 40
0
 40
0
 40
1
 40
1
 40
1
 40
1
 10
14.563213
 20
245.199037
 30
0.0
 10
14.578453
 20
245.232486
 30
0.0
 10
14.790474
 20
245.367047
 30
0.0
 10
15.196410
 20
245.600902
 30
0.0
  0
SPLINE
  5
136
100
AcDbEntity
  8
Layer_1
 62
7
100
AcDbSpline
 70
8
 71
3
 72
8
 73
4
 74
0
 40
0
 40
0
 40
0
 40
0
 40
1
 40
1
 40
1
 40
1
 10
15.196410
 20
245.600902
 30
0.0
 10
15.968056
 20
246.045436
 30
0.0
 10
15.933782
 20
246.028359
 30
0.0
 10
16.002095
 20
246.002388
 30
0.0
  0
SPLINE
  5
137
100
AcDbEntity
  8
Layer_1
 62
7
100
AcDbSpline
 70
8
 71
3
 72
8
 73
4
 74
0
 40
0
 40
0
 40
0
 40
0
 40
1
 40
1
 40
1
 40
1
 10
16.002095
 20
246.002388
 30
0.0
 10
16.064939
 20
245.978496
 30
0.0
 10
16.095157
 20
245.894158
 30
0.0
 10
16.062470
 20
245.833878
 30
0.0
  0
SPLINE
  5
138
100
AcDbEntity
  8
Layer_1
 62
7
100
AcDbSpline
 70
8
 71
3
 72
8
 73
4
 74
0
 40
0
 40
0
 40
0
 40
0
 40
1
 40
1
 40
1
 40
1
 10
16.062470
 20
245.833878
 30
0.0
 10
16.031276
 20
245.776349
 30
0.0
 10
14.739169
 20
245.037377
 30
0.0
 10
14.669774
 20
245.037377
 30
0.0
  0
SPLINE
  5
139
100
AcDbEntity
  8
Layer_1
 62
7
100
AcDbSpline
 70
8
 71
3
 72
8
 73
4
 74
0
 40
0
 40
0
 40
0
 40
0
 40
1
 40
1
 40
1
 40
1
 10
14.669774
 20
245.037377
 30
0.0
 10
14.633452
 20
245.037377
 30
0.0
 10
14.600249
 20
245.057274
 30
0.0
 10
14.576789
 20
245.093066
 30
0.0
  0
LINE
  5
13a
100
AcDbEntity
  8
Layer_1
 62
7
100
AcDbLine
 10
14.576789
 20
245.093066
 30
0.0
 11
14.576786
 21
245.093066
 31
0.0
  0
SPLINE
  5
13b
100
AcDbEntity
  8
Layer_1
 62
7
100
AcDbSpline
 70
8
 71
3
 72
8
 73
4
 74
0
 40
0
 40
0
 40
0
 40
0
 40
1
 40
1
 40
1
 40
1
 10
24.795479
 20
245.417514
 30
0.0
 10
24.435620
 20
245.625759
 30
0.0
 10
24.131466
 20
245.813518
 30
0.0
 10
24.119583
 20
245.834751
 30
0.0
  0
SPLINE
  5
13c
100
AcDbEntity
  8
Layer_1
 62
7
100
AcDbSpline
 70
8
 71
3
 72
8
 73
4
 74
0
 40
0
 40
0
 40
0
 40
0
 40
1
 40
1
 40
1
 40
1
 10
24.119583
 20
245.834751
 30
0.0
 10
24.086934
 20
245.893091
 30
0.0
 10
24.117996
 20
245.978634
 30
0.0
 10
24.180480
 20
246.002388
 30
0.0
  0
SPLINE
  5
13d
100
AcDbEntity
  8
Layer_1
 62
7
100
AcDbSpline
 70
8
 71
3
 72
8
 73
4
 74
0
 40
0
 40
0
 40
0
 40
0
 40
1
 40
1
 40
1
 40
1
 10
24.180480
 20
246.002388
 30
0.0
 10
24.248792
 20
246.028370
 30
0.0
 10
24.214518
 20
246.045436
 30
0.0
 10
24.986164
 20
245.600902
 30
0.0
  0
SPLINE
  5
13e
100
AcDbEntity
  8
Layer_1
 62
7
100
AcDbSpline
 70
8
 71
3
 72
8
 73
4
 74
0
 40
0
 40
0
 40
0
 40
0
 40
1
 40
1
 40
1
 40
1
 10
24.986164
 20
245.600902
 30
0.0
 10
25.392101
 20
245.367047
 30
0.0
 10
25.604121
 20
245.232486
 30
0.0
 10
25.619361
 20
245.199037
 30
0.0
  0
SPLINE
  5
13f
100
AcDbEntity
  8
Layer_1
 62
7
100
AcDbSpline
 70
8
 71
3
 72
8
 73
4
 74
0
 40
0
 40
0
 40
0
 40
0
 40
1
 40
1
 40
1
 40
1
 10
25.619361
 20
245.199037
 30
0.0
 10
25.652061
 20
245.127269
 30
0.0
 10
25.590522
 20
245.037110
 30
0.0
 10
25.509533
 20
245.038131
 30
0.0
  0
SPLINE
  5
140
100
AcDbEntity
  8
Layer_1
 62
7
100
AcDbSpline
 70
8
 71
3
 72
8
 73
4
 74
0
 40
0
 40
0
 40
0
 40
0
 40
1
 40
1
 40
1
 40
1
 10
25.509533
 20
245.038131
 30
0.0
 10
25.472984
 20
245.038660
 30
0.0
 10
25.195621
 20
245.185956
 30
0.0
 10
24.795479
 20
245.417514
 30
0.0
  0
LINE
  5
141
100
AcDbEntity
  8
Layer_1
 62
7
100
AcDbLine
 10
24.795479
 20
245.417514
 30
0.0
 11
24.795479
 21
245.417514
 31
0.0
  0
LINE
  5
142
100
AcDbEntity
  8
Layer_1
 62
7
100
AcDbLine
 10
20.246223
 20
247.023387
 30
0.0
 11
20.412823
 21
247.473218
 31
0.0
  0
LINE
  5
143
100
AcDbEntity
  8
Layer_1
 62
7
100
AcDbLine
 10
20.412823
 20
247.473218
 30
0.0
 11
20.397239
 21
247.755570
 31
0.0
  0
SPLINE
  5
144
100
AcDbEntity
  8
Layer_1
 62
7
100
AcDbSpline
 70
8
 71
3
 72
8
 73
4
 74
0
 40
0
 40
0
 40
0
 40
0
 40
1
 40
1
 40
1
 40
1
 10
20.397239
 20
247.755570
 30
0.0
 10
20.381285
 20
248.044548
 30
0.0
 10
20.310771
 20
249.214142
 30
0.0
 10
20.219482
 20
250.703697
 30
0.0
  0
SPLINE
  5
145
100
AcDbEntity
  8
Layer_1
 62
7
100
AcDbSpline
 70
8
 71
3
 72
8
 73
4
 74
0
 40
0
 40
0
 40
0
 40
0
 40
1
 40
1
 40
1
 40
1
 10
20.219482
 20
250.703697
 30
0.0
 10
20.191267
 20
251.164111
 30
0.0
 10
20.150492
 20
251.832398
 30
0.0
 10
20.128873
 20
252.188778
 30
0.0
  0
SPLINE
  5
146
100
AcDbEntity
  8
Layer_1
 62
7
100
AcDbSpline
 70
8
 71
3
 72
8
 73
4
 74
0
 40
0
 40
0
 40
0
 40
0
 40
1
 40
1
 40
1
 40
1
 10
20.128873
 20
252.188778
 30
0.0
 10
20.107256
 20
252.545155
 30
0.0
 10
20.085047
 20
252.839869
 30
0.0
 10
20.079523
 20
252.843692
 30
0.0
  0
SPLINE
  5
147
100
AcDbEntity
  8
Layer_1
 62
7
100
AcDbSpline
 70
8
 71
3
 72
8
 73
4
 74
0
 40
0
 40
0
 40
0
 40
0
 40
1
 40
1
 40
1
 40
1
 10
20.079523
 20
252.843692
 30
0.0
 10
20.073993
 20
252.847528
 30
0.0
 10
20.062139
 20
252.720970
 30
0.0
 10
20.053197
 20
252.562477
 30
0.0
  0
SPLINE
  5
148
100
AcDbEntity
  8
Layer_1
 62
7
100
AcDbSpline
 70
8
 71
3
 72
8
 73
4
 74
0
 40
0
 40
0
 40
0
 40
0
 40
1
 40
1
 40
1
 40
1
 10
20.053197
 20
252.562477
 30
0.0
 10
20.044227
 20
252.403984
 30
0.0
 10
19.968078
 20
251.194300
 30
0.0
 10
19.883953
 20
249.874285
 30
0.0
  0
LINE
  5
149
100
AcDbEntity
  8
Layer_1
 62
7
100
AcDbLine
 10
19.883953
 20
249.874285
 30
0.0
 11
19.731001
 21
247.474263
 31
0.0
  0
LINE
  5
14a
100
AcDbEntity
  8
Layer_1
 62
7
100
AcDbLine
 10
19.731001
 20
247.474263
 30
0.0
 11
19.894762
 21
247.030706
 31
0.0
  0
SPLINE
  5
14b
100
AcDbEntity
  8
Layer_1
 62
7
100
AcDbSpline
 70
8
 71
3
 72
8
 73
4
 74
0
 40
0
 40
0
 40
0
 40
0
 40
1
 40
1
 40
1
 40
1
 10
19.894762
 20
247.030706
 30
0.0
 10
19.984831
 20
246.786747
 30
0.0
 10
20.063272
 20
246.584089
 30
0.0
 10
20.069074
 20
246.580351
 30
0.0
  0
SPLINE
  5
14c
100
AcDbEntity
  8
Layer_1
 62
7
100
AcDbSpline
 70
8
 71
3
 72
8
 73
4
 74
0
 40
0
 40
0
 40
0
 40
0
 40
1
 40
1
 40
1
 40
1
 10
20.069074
 20
246.580351
 30
0.0
 10
20.074895
 20
246.576620
 30
0.0
 10
20.154595
 20
246.775981
 30
0.0
 10
20.246226
 20
247.023387
 30
0.0
  0
LINE
  5
14d
100
AcDbEntity
  8
Layer_1
 62
7
100
AcDbLine
 10
20.246226
 20
247.023387
 30
0.0
 11
20.246223
 21
247.023387
 31
0.0
  0
SPLINE
  5
14e
100
AcDbEntity
  8
Layer_1
 62
7
100
AcDbSpline
 70
8
 71
3
 72
8
 73
4
 74
0
 40
0
 40
0
 40
0
 40
0
 40
1
 40
1
 40
1
 40
1
 10
19.593801
 20
246.891818
 30
0.0
 10
19.659680
 20
246.919287
 30
0.0
 10
19.717827
 20
246.947891
 30
0.0
 10
19.723018
 20
246.955389
 30
0.0
  0
SPLINE
  5
14f
100
AcDbEntity
  8
Layer_1
 62
7
100
AcDbSpline
 70
8
 71
3
 72
8
 73
4
 74
0
 40
0
 40
0
 40
0
 40
0
 40
1
 40
1
 40
1
 40
1
 10
19.723018
 20
246.955389
 30
0.0
 10
19.731114
 20
246.967084
 30
0.0
 10
19.685291
 20
247.104786
 30
0.0
 10
19.613809
 20
247.283554
 30
0.0
  0
SPLINE
  5
150
100
AcDbEntity
  8
Layer_1
 62
7
100
AcDbSpline
 70
8
 71
3
 72
8
 73
4
 74
0
 40
0
 40
0
 40
0
 40
0
 40
1
 40
1
 40
1
 40
1
 10
19.613809
 20
247.283554
 30
0.0
 10
19.594838
 20
247.331015
 30
0.0
 10
19.593013
 20
247.331190
 30
0.0
 10
19.573558
 20
247.287391
 30
0.0
  0
SPLINE
  5
151
100
AcDbEntity
  8
Layer_1
 62
7
100
AcDbSpline
 70
8
 71
3
 72
8
 73
4
 74
0
 40
0
 40
0
 40
0
 40
0
 40
1
 40
1
 40
1
 40
1
 10
19.573558
 20
247.287391
 30
0.0
 10
19.510317
 20
247.144984
 30
0.0
 10
19.420835
 20
246.827940
 30
0.0
 10
19.445725
 20
246.834470
 30
0.0
  0
SPLINE
  5
152
100
AcDbEntity
  8
Layer_1
 62
7
100
AcDbSpline
 70
8
 71
3
 72
8
 73
4
 74
0
 40
0
 40
0
 40
0
 40
0
 40
1
 40
1
 40
1
 40
1
 10
19.445725
 20
246.834470
 30
0.0
 10
19.461282
 20
246.838544
 30
0.0
 10
19.527925
 20
246.864362
 30
0.0
 10
19.593801
 20
246.891829
 30
0.0
  0
LINE
  5
153
100
AcDbEntity
  8
Layer_1
 62
7
100
AcDbLine
 10
19.593801
 20
246.891829
 30
0.0
 11
19.593801
 21
246.891818
 31
0.0
  0
SPLINE
  5
154
100
AcDbEntity
  8
Layer_1
 62
7
100
AcDbSpline
 70
8
 71
3
 72
8
 73
4
 74
0
 40
0
 40
0
 40
0
 40
0
 40
1
 40
1
 40
1
 40
1
 10
13.757553
 20
248.193294
 30
0.0
 10
13.705956
 20
248.244890
 30
0.0
 10
13.701718
 20
248.299987
 30
0.0
 10
13.744800
 20
248.358955
 30
0.0
  0
SPLINE
  5
155
100
AcDbEntity
  8
Layer_1
 62
7
100
AcDbSpline
 70
8
 71
3
 72
8
 73
4
 74
0
 40
0
 40
0
 40
0
 40
0
 40
1
 40
1
 40
1
 40
1
 10
13.744800
 20
248.358955
 30
0.0
 10
13.774444
 20
248.399520
 30
0.0
 10
13.812377
 20
248.401740
 30
0.0
 10
14.561173
 20
248.406746
 30
0.0
  0
SPLINE
  5
156
100
AcDbEntity
  8
Layer_1
 62
7
100
AcDbSpline
 70
8
 71
3
 72
8
 73
4
 74
0
 40
0
 40
0
 40
0
 40
0
 40
1
 40
1
 40
1
 40
1
 10
14.561173
 20
248.406746
 30
0.0
 10
15.427484
 20
248.412541
 30
0.0
 10
15.430469
 20
248.412117
 30
0.0
 10
15.430469
 20
248.280958
 30
0.0
  0
SPLINE
  5
157
100
AcDbEntity
  8
Layer_1
 62
7
100
AcDbSpline
 70
8
 71
3
 72
8
 73
4
 74
0
 40
0
 40
0
 40
0
 40
0
 40
1
 40
1
 40
1
 40
1
 10
15.430469
 20
248.280958
 30
0.0
 10
15.430469
 20
248.151842
 30
0.0
 10
15.424463
 20
248.150926
 30
0.0
 10
14.573915
 20
248.150159
 30
0.0
  0
SPLINE
  5
158
100
AcDbEntity
  8
Layer_1
 62
7
100
AcDbSpline
 70
8
 71
3
 72
8
 73
4
 74
0
 40
0
 40
0
 40
0
 40
0
 40
1
 40
1
 40
1
 40
1
 10
14.573915
 20
248.150159
 30
0.0
 10
13.830107
 20
248.149365
 30
0.0
 10
13.799746
 20
248.151217
 30
0.0
 10
13.757542
 20
248.193294
 30
0.0
  0
LINE
  5
159
100
AcDbEntity
  8
Layer_1
 62
7
100
AcDbLine
 10
13.757542
 20
248.193294
 30
0.0
 11
13.757553
 21
248.193294
 31
0.0
  0
SPLINE
  5
15a
100
AcDbEntity
  8
Layer_1
 62
7
100
AcDbSpline
 70
8
 71
3
 72
8
 73
4
 74
0
 40
0
 40
0
 40
0
 40
0
 40
1
 40
1
 40
1
 40
1
 10
24.782549
 20
248.207687
 30
0.0
 10
24.732810
 20
248.270923
 30
0.0
 10
24.739713
 20
248.337269
 30
0.0
 10
24.800964
 20
248.384738
 30
0.0
  0
SPLINE
  5
15b
100
AcDbEntity
  8
Layer_1
 62
7
100
AcDbSpline
 70
8
 71
3
 72
8
 73
4
 74
0
 40
0
 40
0
 40
0
 40
0
 40
1
 40
1
 40
1
 40
1
 10
24.800964
 20
248.384738
 30
0.0
 10
24.827795
 20
248.405534
 30
0.0
 10
25.022200
 20
248.410747
 30
0.0
 10
25.621412
 20
248.406725
 30
0.0
  0
SPLINE
  5
15c
100
AcDbEntity
  8
Layer_1
 62
7
100
AcDbSpline
 70
8
 71
3
 72
8
 73
4
 74
0
 40
0
 40
0
 40
0
 40
0
 40
1
 40
1
 40
1
 40
1
 10
25.621412
 20
248.406725
 30
0.0
 10
26.370211
 20
248.401724
 30
0.0
 10
26.408142
 20
248.399502
 30
0.0
 10
26.437788
 20
248.358933
 30
0.0
  0
SPLINE
  5
15d
100
AcDbEntity
  8
Layer_1
 62
7
100
AcDbSpline
 70
8
 71
3
 72
8
 73
4
 74
0
 40
0
 40
0
 40
0
 40
0
 40
1
 40
1
 40
1
 40
1
 10
26.437788
 20
248.358933
 30
0.0
 10
26.480878
 20
248.299966
 30
0.0
 10
26.476639
 20
248.244869
 30
0.0
 10
26.425035
 20
248.193273
 30
0.0
  0
SPLINE
  5
15e
100
AcDbEntity
  8
Layer_1
 62
7
100
AcDbSpline
 70
8
 71
3
 72
8
 73
4
 74
0
 40
0
 40
0
 40
0
 40
0
 40
1
 40
1
 40
1
 40
1
 10
26.425035
 20
248.193273
 30
0.0
 10
26.382853
 20
248.151088
 30
0.0
 10
26.351984
 20
248.149439
 30
0.0
 10
25.604772
 20
248.149439
 30
0.0
  0
LINE
  5
15f
100
AcDbEntity
  8
Layer_1
 62
7
100
AcDbLine
 10
25.604772
 20
248.149439
 30
0.0
 11
24.828343
 21
248.149439
 31
0.0
  0
LINE
  5
160
100
AcDbEntity
  8
Layer_1
 62
7
100
AcDbLine
 10
24.828343
 20
248.149439
 30
0.0
 11
24.782549
 21
248.207687
 31
0.0
  0
SPLINE
  5
161
100
AcDbEntity
  8
Layer_1
 62
7
100
AcDbSpline
 70
8
 71
3
 72
8
 73
4
 74
0
 40
0
 40
0
 40
0
 40
0
 40
1
 40
1
 40
1
 40
1
 10
20.948543
 20
248.166814
 30
0.0
 10
21.138246
 20
248.403950
 30
0.0
 10
21.517261
 20
248.875630
 30
0.0
 10
21.790798
 20
249.214992
 30
0.0
  0
SPLINE
  5
162
100
AcDbEntity
  8
Layer_1
 62
7
100
AcDbSpline
 70
8
 71
3
 72
8
 73
4
 74
0
 40
0
 40
0
 40
0
 40
0
 40
1
 40
1
 40
1
 40
1
 10
21.790798
 20
249.214992
 30
0.0
 10
22.064334
 20
249.554351
 30
0.0
 10
22.305647
 20
249.853793
 30
0.0
 10
22.327047
 20
249.880418
 30
0.0
  0
SPLINE
  5
163
100
AcDbEntity
  8
Layer_1
 62
7
100
AcDbSpline
 70
8
 71
3
 72
8
 73
4
 74
0
 40
0
 40
0
 40
0
 40
0
 40
1
 40
1
 40
1
 40
1
 10
22.327047
 20
249.880418
 30
0.0
 10
22.392301
 20
249.961608
 30
0.0
 10
22.262687
 20
249.848615
 30
0.0
 10
21.375532
 20
249.050924
 30
0.0
  0
LINE
  5
164
100
AcDbEntity
  8
Layer_1
 62
7
100
AcDbLine
 10
21.375532
 20
249.050924
 30
0.0
 11
20.540265
 21
248.299889
 31
0.0
  0
LINE
  5
165
100
AcDbEntity
  8
Layer_1
 62
7
100
AcDbLine
 10
20.540265
 20
248.299889
 30
0.0
 11
20.558547
 21
248.052980
 31
0.0
  0
SPLINE
  5
166
100
AcDbEntity
  8
Layer_1
 62
7
100
AcDbSpline
 70
8
 71
3
 72
8
 73
4
 74
0
 40
0
 40
0
 40
0
 40
0
 40
1
 40
1
 40
1
 40
1
 10
20.558547
 20
248.052980
 30
0.0
 10
20.568602
 20
247.917178
 30
0.0
 10
20.575031
 20
247.788201
 30
0.0
 10
20.572835
 20
247.766363
 30
0.0
  0
SPLINE
  5
167
100
AcDbEntity
  8
Layer_1
 62
7
100
AcDbSpline
 70
8
 71
3
 72
8
 73
4
 74
0
 40
0
 40
0
 40
0
 40
0
 40
1
 40
1
 40
1
 40
1
 10
20.572835
 20
247.766363
 30
0.0
 10
20.570718
 20
247.744535
 30
0.0
 10
20.576671
 20
247.728683
 30
0.0
 10
20.586223
 20
247.731157
 30
0.0
  0
SPLINE
  5
168
100
AcDbEntity
  8
Layer_1
 62
7
100
AcDbSpline
 70
8
 71
3
 72
8
 73
4
 74
0
 40
0
 40
0
 40
0
 40
0
 40
1
 40
1
 40
1
 40
1
 10
20.586223
 20
247.731157
 30
0.0
 10
20.595801
 20
247.733539
 30
0.0
 10
20.758824
 20
247.929682
 30
0.0
 10
20.948527
 20
248.166814
 30
0.0
  0
LINE
  5
169
100
AcDbEntity
  8
Layer_1
 62
7
100
AcDbLine
 10
20.948527
 20
248.166814
 30
0.0
 11
20.948543
 21
248.166814
 31
0.0
  0
SPLINE
  5
16a
100
AcDbEntity
  8
Layer_1
 62
7
100
AcDbSpline
 70
8
 71
3
 72
8
 73
4
 74
0
 40
0
 40
0
 40
0
 40
0
 40
1
 40
1
 40
1
 40
1
 10
15.872441
 20
250.575022
 30
0.0
 10
15.836278
 20
250.594046
 30
0.0
 10
15.532063
 20
250.767774
 30
0.0
 10
15.196408
 20
250.961094
 30
0.0
  0
SPLINE
  5
16b
100
AcDbEntity
  8
Layer_1
 62
7
100
AcDbSpline
 70
8
 71
3
 72
8
 73
4
 74
0
 40
0
 40
0
 40
0
 40
0
 40
1
 40
1
 40
1
 40
1
 10
15.196408
 20
250.961094
 30
0.0
 10
14.790400
 20
251.194932
 30
0.0
 10
14.578453
 20
251.329415
 30
0.0
 10
14.563210
 20
251.362869
 30
0.0
  0
SPLINE
  5
16c
100
AcDbEntity
  8
Layer_1
 62
7
100
AcDbSpline
 70
8
 71
3
 72
8
 73
4
 74
0
 40
0
 40
0
 40
0
 40
0
 40
1
 40
1
 40
1
 40
1
 10
14.563210
 20
251.362869
 30
0.0
 10
14.531381
 20
251.432729
 30
0.0
 10
14.591997
 20
251.524531
 30
0.0
 10
14.669951
 20
251.524531
 30
0.0
  0
SPLINE
  5
16d
100
AcDbEntity
  8
Layer_1
 62
7
100
AcDbSpline
 70
8
 71
3
 72
8
 73
4
 74
0
 40
0
 40
0
 40
0
 40
0
 40
1
 40
1
 40
1
 40
1
 10
14.669951
 20
251.524531
 30
0.0
 10
14.731194
 20
251.524531
 30
0.0
 10
16.006519
 20
250.802254
 30
0.0
 10
16.053247
 20
250.741106
 30
0.0
  0
SPLINE
  5
16e
100
AcDbEntity
  8
Layer_1
 62
7
100
AcDbSpline
 70
8
 71
3
 72
8
 73
4
 74
0
 40
0
 40
0
 40
0
 40
0
 40
1
 40
1
 40
1
 40
1
 10
16.053247
 20
250.741106
 30
0.0
 10
16.140321
 20
250.627164
 30
0.0
 10
16.006685
 20
250.504408
 30
0.0
 10
15.872441
 20
250.575022
 30
0.0
  0
LINE
  5
16f
100
AcDbEntity
  8
Layer_1
 62
7
100
AcDbLine
 10
15.872441
 20
250.575022
 30
0.0
 11
15.872441
 21
250.575022
 31
0.0
  0
SPLINE
  5
170
100
AcDbEntity
  8
Layer_1
 62
7
100
AcDbSpline
 70
8
 71
3
 72
8
 73
4
 74
0
 40
0
 40
0
 40
0
 40
0
 40
1
 40
1
 40
1
 40
1
 10
24.173812
 20
250.560656
 30
0.0
 10
24.116686
 20
250.583648
 30
0.0
 10
24.088873
 20
250.670529
 30
0.0
 10
24.120239
 20
250.728023
 30
0.0
  0
SPLINE
  5
171
100
AcDbEntity
  8
Layer_1
 62
7
100
AcDbSpline
 70
8
 71
3
 72
8
 73
4
 74
0
 40
0
 40
0
 40
0
 40
0
 40
1
 40
1
 40
1
 40
1
 10
24.120239
 20
250.728023
 30
0.0
 10
24.151643
 20
250.785580
 30
0.0
 10
25.443647
 20
251.524523
 30
0.0
 10
25.512880
 20
251.524523
 30
0.0
  0
SPLINE
  5
172
100
AcDbEntity
  8
Layer_1
 62
7
100
AcDbSpline
 70
8
 71
3
 72
8
 73
4
 74
0
 40
0
 40
0
 40
0
 40
0
 40
1
 40
1
 40
1
 40
1
 10
25.512880
 20
251.524523
 30
0.0
 10
25.590575
 20
251.524523
 30
0.0
 10
25.651130
 20
251.432586
 30
0.0
 10
25.619361
 20
251.362861
 30
0.0
  0
SPLINE
  5
173
100
AcDbEntity
  8
Layer_1
 62
7
100
AcDbSpline
 70
8
 71
3
 72
8
 73
4
 74
0
 40
0
 40
0
 40
0
 40
0
 40
1
 40
1
 40
1
 40
1
 10
25.619361
 20
251.362861
 30
0.0
 10
25.604121
 20
251.329415
 30
0.0
 10
25.392101
 20
251.194853
 30
0.0
 10
24.986164
 20
250.960999
 30
0.0
  0
SPLINE
  5
174
100
AcDbEntity
  8
Layer_1
 62
7
100
AcDbSpline
 70
8
 71
3
 72
8
 73
4
 74
0
 40
0
 40
0
 40
0
 40
0
 40
1
 40
1
 40
1
 40
1
 10
24.986164
 20
250.960999
 30
0.0
 10
24.405838
 20
250.626682
 30
0.0
 10
24.243869
 20
250.536549
 30
0.0
 10
24.229036
 20
250.539687
 30
0.0
  0
SPLINE
  5
175
100
AcDbEntity
  8
Layer_1
 62
7
100
AcDbSpline
 70
8
 71
3
 72
8
 73
4
 74
0
 40
0
 40
0
 40
0
 40
0
 40
1
 40
1
 40
1
 40
1
 10
24.229036
 20
250.539687
 30
0.0
 10
24.225438
 20
250.540481
 30
0.0
 10
24.200572
 20
250.549874
 30
0.0
 10
24.173812
 20
250.560669
 30
0.0
  0
LINE
  5
176
100
AcDbEntity
  8
Layer_1
 62
7
100
AcDbLine
 10
24.173812
 20
250.560669
 30
0.0
 11
24.173812
 21
250.560656
 31
0.0
  0
SPLINE
  5
177
100
AcDbEntity
  8
Layer_1
 62
7
100
AcDbSpline
 70
8
 71
3
 72
8
 73
4
 74
0
 40
0
 40
0
 40
0
 40
0
 40
1
 40
1
 40
1
 40
1
 10
17.631823
 20
252.318982
 30
0.0
 10
17.612482
 20
252.334036
 30
0.0
 10
17.427483
 20
252.639646
 30
0.0
 10
17.220703
 20
252.998089
 30
0.0
  0
SPLINE
  5
178
100
AcDbEntity
  8
Layer_1
 62
7
100
AcDbSpline
 70
8
 71
3
 72
8
 73
4
 74
0
 40
0
 40
0
 40
0
 40
0
 40
1
 40
1
 40
1
 40
1
 10
17.220703
 20
252.998089
 30
0.0
 10
16.816598
 20
253.698581
 30
0.0
 10
16.799990
 20
253.742607
 30
0.0
 10
16.918512
 20
253.799149
 30
0.0
  0
SPLINE
  5
179
100
AcDbEntity
  8
Layer_1
 62
7
100
AcDbSpline
 70
8
 71
3
 72
8
 73
4
 74
0
 40
0
 40
0
 40
0
 40
0
 40
1
 40
1
 40
1
 40
1
 10
16.918512
 20
253.799149
 30
0.0
 10
16.960981
 20
253.819416
 30
0.0
 10
16.990466
 20
253.821215
 30
0.0
 10
17.020028
 20
253.805393
 30
0.0
  0
SPLINE
  5
17a
100
AcDbEntity
  8
Layer_1
 62
7
100
AcDbSpline
 70
8
 71
3
 72
8
 73
4
 74
0
 40
0
 40
0
 40
0
 40
0
 40
1
 40
1
 40
1
 40
1
 10
17.020028
 20
253.805393
 30
0.0
 10
17.082027
 20
253.772214
 30
0.0
 10
17.816774
 20
252.491786
 30
0.0
 10
17.818174
 20
252.414491
 30
0.0
  0
SPLINE
  5
17b
100
AcDbEntity
  8
Layer_1
 62
7
100
AcDbSpline
 70
8
 71
3
 72
8
 73
4
 74
0
 40
0
 40
0
 40
0
 40
0
 40
1
 40
1
 40
1
 40
1
 10
17.818174
 20
252.414491
 30
0.0
 10
17.820026
 20
252.313132
 30
0.0
 10
17.711010
 20
252.257262
 30
0.0
 10
17.631823
 20
252.318971
 30
0.0
  0
LINE
  5
17c
100
AcDbEntity
  8
Layer_1
 62
7
100
AcDbLine
 10
17.631823
 20
252.318971
 30
0.0
 11
17.631823
 21
252.318982
 31
0.0
  0
SPLINE
  5
17d
100
AcDbEntity
  8
Layer_1
 62
7
100
AcDbSpline
 70
8
 71
3
 72
8
 73
4
 74
0
 40
0
 40
0
 40
0
 40
0
 40
1
 40
1
 40
1
 40
1
 10
22.403969
 20
252.321363
 30
0.0
 10
22.379892
 20
252.338984
 30
0.0
 10
22.363721
 20
252.377015
 30
0.0
 10
22.364398
 20
252.414507
 30
0.0
  0
SPLINE
  5
17e
100
AcDbEntity
  8
Layer_1
 62
7
100
AcDbSpline
 70
8
 71
3
 72
8
 73
4
 74
0
 40
0
 40
0
 40
0
 40
0
 40
1
 40
1
 40
1
 40
1
 10
22.364398
 20
252.414507
 30
0.0
 10
22.365721
 20
252.491802
 30
0.0
 10
23.100545
 20
253.772230
 30
0.0
 10
23.162544
 20
253.805409
 30
0.0
  0
SPLINE
  5
17f
100
AcDbEntity
  8
Layer_1
 62
7
100
AcDbSpline
 70
8
 71
3
 72
8
 73
4
 74
0
 40
0
 40
0
 40
0
 40
0
 40
1
 40
1
 40
1
 40
1
 10
23.162544
 20
253.805409
 30
0.0
 10
23.226147
 20
253.839450
 30
0.0
 10
23.322209
 20
253.785327
 30
0.0
 10
23.330835
 20
253.710596
 30
0.0
  0
SPLINE
  5
180
100
AcDbEntity
  8
Layer_1
 62
7
100
AcDbSpline
 70
8
 71
3
 72
8
 73
4
 74
0
 40
0
 40
0
 40
0
 40
0
 40
1
 40
1
 40
1
 40
1
 10
23.330835
 20
253.710596
 30
0.0
 10
23.337608
 20
253.651842
 30
0.0
 10
23.264811
 20
253.516757
 30
0.0
 10
22.737325
 20
252.609375
 30
0.0
  0
SPLINE
  5
181
100
AcDbEntity
  8
Layer_1
 62
7
100
AcDbSpline
 70
8
 71
3
 72
8
 73
4
 74
0
 40
0
 40
0
 40
0
 40
0
 40
1
 40
1
 40
1
 40
1
 10
22.737325
 20
252.609375
 30
0.0
 10
22.546709
 20
252.281477
 30
0.0
 10
22.506283
 20
252.246549
 30
0.0
 10
22.403969
 20
252.321363
 30
0.0
  0
LINE
  5
182
100
AcDbEntity
  8
Layer_1
 62
7
100
AcDbLine
 10
22.403969
 20
252.321363
 30
0.0
 11
22.403969
 21
252.321363
 31
0.0
  0
LINE
  5
183
100
AcDbEntity
  8
Layer_1
 62
7
100
AcDbLine
 10
20.016753
 20
252.973197
 30
0.0
 11
19.958225
 21
253.019235
 31
0.0
  0
LINE
  5
184
100
AcDbEntity
  8
Layer_1
 62
7
100
AcDbLine
 10
19.958225
 20
253.019235
 30
0.0
 11
19.964495
 21
253.807793
 31
0.0
  0
SPLINE
  5
185
100
AcDbEntity
  8
Layer_1
 62
7
100
AcDbSpline
 70
8
 71
3
 72
8
 73
4
 74
0
 40
0
 40
0
 40
0
 40
0
 40
1
 40
1
 40
1
 40
1
 10
19.964495
 20
253.807793
 30
0.0
 10
19.970475
 20
254.559198
 30
0.0
 10
19.972750
 20
254.597814
 30
0.0
 10
20.013297
 20
254.627439
 30
0.0
  0
SPLINE
  5
186
100
AcDbEntity
  8
Layer_1
 62
7
100
AcDbSpline
 70
8
 71
3
 72
8
 73
4
 74
0
 40
0
 40
0
 40
0
 40
0
 40
1
 40
1
 40
1
 40
1
 10
20.013297
 20
254.627439
 30
0.0
 10
20.067254
 20
254.666870
 30
0.0
 10
20.115334
 20
254.666870
 30
0.0
 10
20.169290
 20
254.627439
 30
0.0
  0
SPLINE
  5
187
100
AcDbEntity
  8
Layer_1
 62
7
100
AcDbSpline
 70
8
 71
3
 72
8
 73
4
 74
0
 40
0
 40
0
 40
0
 40
0
 40
1
 40
1
 40
1
 40
1
 10
20.169290
 20
254.627439
 30
0.0
 10
20.209830
 20
254.597814
 30
0.0
 10
20.212129
 20
254.559198
 30
0.0
 10
20.218095
 20
253.807793
 30
0.0
  0
LINE
  5
188
100
AcDbEntity
  8
Layer_1
 62
7
100
AcDbLine
 10
20.218095
 20
253.807793
 30
0.0
 11
20.224366
 21
253.019235
 31
0.0
  0
LINE
  5
189
100
AcDbEntity
  8
Layer_1
 62
7
100
AcDbLine
 10
20.224366
 20
253.019235
 30
0.0
 11
20.165837
 21
252.973197
 31
0.0
  0
SPLINE
  5
18a
100
AcDbEntity
  8
Layer_1
 62
7
100
AcDbSpline
 70
8
 71
3
 72
8
 73
4
 74
0
 40
0
 40
0
 40
0
 40
0
 40
1
 40
1
 40
1
 40
1
 10
20.165837
 20
252.973197
 30
0.0
 10
20.133646
 20
252.947877
 30
0.0
 10
20.100107
 20
252.927157
 30
0.0
 10
20.091302
 20
252.927157
 30
0.0
  0
SPLINE
  5
18b
100
AcDbEntity
  8
Layer_1
 62
7
100
AcDbSpline
 70
8
 71
3
 72
8
 73
4
 74
0
 40
0
 40
0
 40
0
 40
0
 40
1
 40
1
 40
1
 40
1
 10
20.091302
 20
252.927157
 30
0.0
 10
20.082491
 20
252.927157
 30
0.0
 10
20.048961
 20
252.947874
 30
0.0
 10
20.016769
 20
252.973197
 30
0.0
  0
LINE
  5
18c
100
AcDbEntity
  8
Layer_1
 62
7
100
AcDbLine
 10
20.016769
 20
252.973197
 30
0.0
 11
20.016753
 21
252.973197
 31
0.0
  0
ENDSEC
  0
SECTION
  2
OBJECTS
  0
DICTIONARY
  5
C
330
0
100
AcDbDictionary
  3
ACAD_GROUP
350
D
  3
ACAD_MLINESTYLE
350
17
  0
DICTIONARY
  5
D
330
C
100
AcDbDictionary
  0
DICTIONARY
  5
1A
330
C
100
AcDbDictionary
  0
DICTIONARY
  5
17
330
C
100
AcDbDictionary
  3
STANDARD
350
18
  0
DICTIONARY
  5
19
330
C
100
AcDbDictionary
  0
ENDSEC
  0
EOF
