<?xml version="1.0" encoding="UTF-8" standalone="no"?>
<svg
   xmlns:dc="http://purl.org/dc/elements/1.1/"
   xmlns:cc="http://creativecommons.org/ns#"
   xmlns:rdf="http://www.w3.org/1999/02/22-rdf-syntax-ns#"
   xmlns:svg="http://www.w3.org/2000/svg"
   xmlns="http://www.w3.org/2000/svg"
   xmlns:sodipodi="http://sodipodi.sourceforge.net/DTD/sodipodi-0.dtd"
   xmlns:inkscape="http://www.inkscape.org/namespaces/inkscape"
   width="210mm"
   height="297mm"
   viewBox="0 0 210 297"
   version="1.1"
   id="svg8"
   sodipodi:docname="stopwatchShort.svg"
   inkscape:version="1.0.2 (e86c870879, 2021-01-15, custom)">
  <defs
     id="defs2">
    <marker
       id="DistanceX"
       orient="auto"
       refX="0.0"
       refY="0.0"
       style="overflow:visible">
      <path
         d="M 3,-3 L -3,3 M 0,-5 L  0,5"
         style="stroke:#000000; stroke-width:0.5"
         id="path646" />
    </marker>
    <pattern
       id="Hatch"
       patternUnits="userSpaceOnUse"
       width="8"
       height="8"
       x="0"
       y="0">
      <path
         d="M8 4 l-4,4"
         stroke="#000000"
         stroke-width="0.25"
         linecap="square"
         id="path649" />
      <path
         d="M6 2 l-4,4"
         stroke="#000000"
         stroke-width="0.25"
         linecap="square"
         id="path651" />
      <path
         d="M4 0 l-4,4"
         stroke="#000000"
         stroke-width="0.25"
         linecap="square"
         id="path653" />
    </pattern>
    <symbol
       id="*MODEL_SPACE" />
    <symbol
       id="*PAPER_SPACE" />
  </defs>
  <sodipodi:namedview
     id="base"
     pagecolor="#ffffff"
     bordercolor="#666666"
     borderopacity="1.0"
     inkscape:pageopacity="0.0"
     inkscape:pageshadow="2"
     inkscape:zoom="11.2"
     inkscape:cx="86.198888"
     inkscape:cy="185.29336"
     inkscape:document-units="mm"
     inkscape:current-layer="g692"
     inkscape:document-rotation="0"
     showgrid="false"
     inkscape:window-width="1920"
     inkscape:window-height="986"
     inkscape:window-x="-11"
     inkscape:window-y="-11"
     inkscape:window-maximized="1" />
  <metadata
     id="metadata5">
    <rdf:RDF>
      <cc:Work
         rdf:about="">
        <dc:format>image/svg+xml</dc:format>
        <dc:type
           rdf:resource="http://purl.org/dc/dcmitype/StillImage" />
        <dc:title></dc:title>
      </cc:Work>
    </rdf:RDF>
  </metadata>
  <g
     inkscape:label="Layer 1"
     inkscape:groupmode="layer"
     id="layer1">
    <g
       inkscape:label="0"
       id="g692"
       transform="matrix(0.26458333,0,0,0.26458333,-72.456933,-153.25331)">
      <path
         style="opacity:0.83;fill:none;stroke:#000000;stroke-width:0.291504;stroke-miterlimit:4;stroke-dasharray:none"
         d="m 349.50716,745.62539 -0.22121,-0.174 0.0237,-2.98038 c 0.0226,-2.83996 0.0312,-2.98591 0.18445,-3.09788 0.20393,-0.14903 0.38565,-0.14903 0.58958,0 0.15322,0.11197 0.16191,0.25792 0.18446,3.09788 l 0.0237,2.98038 -0.22121,0.174 c -0.12167,0.0957 -0.24843,0.17401 -0.28171,0.17401 -0.0333,0 -0.16003,-0.0783 -0.2817,-0.17401 z"
         id="path51" />
      <path
         style="opacity:0.83;fill:none;stroke:#000000;stroke-width:0.291504;stroke-miterlimit:4;stroke-dasharray:none"
         d="m 358.52972,748.08902 c -0.091,-0.0666 -0.15212,-0.21034 -0.14956,-0.35204 0.005,-0.29214 2.78229,-5.13156 3.01662,-5.25696 0.24039,-0.12866 0.60346,0.0759 0.63606,0.35835 0.0256,0.22206 -0.24954,0.73262 -2.24319,4.1621 -0.72044,1.2393 -0.87323,1.37131 -1.25993,1.08855 z"
         id="path49" />
      <path
         style="opacity:0.83;fill:none;stroke:#000000;stroke-width:0.291504;stroke-miterlimit:4;stroke-dasharray:none"
         d="m 340.49324,748.09802 c -0.0731,-0.0569 -0.77231,-1.21196 -1.55384,-2.56671 -1.52733,-2.64753 -1.5901,-2.81393 -1.14214,-3.02763 0.16051,-0.0766 0.27195,-0.0834 0.38368,-0.0236 0.23433,0.1254 3.01133,4.96482 3.01662,5.25696 0.007,0.38309 -0.40503,0.59425 -0.70432,0.36102 z"
         id="path47" />
      <path
         style="opacity:0.83;fill:none;stroke:#000000;stroke-width:0.291504;stroke-miterlimit:4;stroke-dasharray:none"
         d="m 365.2189,754.74367 c -0.21591,-0.0869 -0.32103,-0.41527 -0.20248,-0.63257 0.11869,-0.21754 5.00186,-3.0104 5.26353,-3.0104 0.29365,0 0.52252,0.34748 0.40245,0.61101 -0.0576,0.12641 -0.85894,0.63499 -2.39319,1.51885 -2.19336,1.26356 -2.80553,1.60422 -2.86159,1.59236 -0.0136,-0.003 -0.10758,-0.0385 -0.20872,-0.0793 z"
         id="path45" />
      <path
         style="opacity:0.83;fill:none;stroke:#000000;stroke-width:0.291504;stroke-miterlimit:4;stroke-dasharray:none"
         d="m 333.8436,754.68937 c -0.13668,-0.0719 -1.28647,-0.72851 -2.55509,-1.45917 -1.53452,-0.8838 -2.33558,-1.39208 -2.39319,-1.51852 -0.1203,-0.26404 0.1088,-0.61101 0.40343,-0.61101 0.23147,0 5.0516,2.72987 5.22821,2.96098 0.3291,0.43065 -0.17598,0.89461 -0.68336,0.62772 z"
         id="path43" />
      <path
         style="opacity:0.83;fill:none;stroke:#000000;stroke-width:0.291504;stroke-miterlimit:4;stroke-dasharray:none"
         d="m 353.49578,764.88019 c 1.14114,-0.12311 3.41543,-0.36348 5.05398,-0.53415 1.63854,-0.17067 3.08421,-0.32139 3.2126,-0.33494 0.39151,-0.0413 -0.25671,-0.0878 -4.75873,-0.34135 l -4.2387,-0.2387 -0.61328,0.70678 c -0.33732,0.38873 -0.66598,0.74955 -0.73038,0.80184 -0.0642,0.0525 -0.0908,0.11066 -0.0587,0.12968 0.0319,0.0193 0.99206,-0.0661 2.1332,-0.18921 z"
         id="path41"
         inkscape:transform-center-x="-0.71877457"
         inkscape:transform-center-y="0.047745639" />
      <path
         style="opacity:0.83;fill:none;stroke:#000000;stroke-width:0.291504;stroke-miterlimit:4;stroke-dasharray:none"
         d="m 367.51964,763.63679 c -0.18799,-0.239 -0.1619,-0.48976 0.0696,-0.66917 0.10141,-0.0786 0.83617,-0.0983 3.10091,-0.0831 2.83011,0.0189 2.97347,0.0273 3.08552,0.18063 0.16286,0.22287 0.14684,0.43111 -0.0482,0.62612 -0.15943,0.15944 -0.2761,0.16567 -3.10021,0.16567 h -2.93454 z"
         id="path39" />
      <path
         style="opacity:0.83;fill:none;stroke:#000000;stroke-width:0.291504;stroke-miterlimit:4;stroke-dasharray:none"
         d="m 325.85031,763.69119 c -0.19501,-0.19501 -0.21103,-0.40325 -0.0482,-0.62612 0.11204,-0.15332 0.25541,-0.16171 3.08551,-0.18063 3.27425,-0.0219 3.28553,-0.0203 3.28553,0.47542 0,0.488 -0.0227,0.49146 -3.23737,0.49436 -2.81125,0.003 -2.926,-0.004 -3.08551,-0.16303 z"
         id="path37" />
      <path
         style="opacity:0.83;fill:none;stroke:#000000;stroke-width:0.291504;stroke-miterlimit:4;stroke-dasharray:none"
         d="m 346.46844,764.64455 c 0.24914,0.10345 0.48073,0.18315 0.51466,0.17709 0.0529,-0.009 0.30005,-0.49913 0.58891,-1.16701 0.0767,-0.1773 0.0723,-0.18266 -0.0969,-0.11814 -0.55027,0.20981 -1.63867,0.8145 -1.55486,0.86383 0.0524,0.0309 0.29912,0.14076 0.54825,0.2442 z"
         id="path35"
         inkscape:transform-center-x="1.8837303"
         inkscape:transform-center-y="0.023612131" />
      <path
         style="opacity:0.83;fill:none;stroke:#000000;stroke-width:0.291504;stroke-miterlimit:4;stroke-dasharray:none"
         d="m 350.37445,768.11289 0.62967,-1.70015 -0.0589,-1.06716 c -0.0603,-1.0922 -0.32681,-5.51272 -0.67184,-11.14254 -0.10664,-1.74015 -0.26075,-4.26596 -0.34246,-5.61291 -0.0817,-1.34694 -0.16564,-2.46082 -0.18652,-2.47527 -0.0209,-0.0145 -0.0657,0.46383 -0.0995,1.06286 -0.0339,0.59903 -0.32171,5.17107 -0.63966,10.16011 l -0.57809,9.07096 0.61894,1.67644 c 0.34042,0.92205 0.63689,1.688 0.65882,1.70213 0.022,0.0141 0.32323,-0.73939 0.66955,-1.67447 z"
         id="path33" />
      <path
         style="opacity:0.83;fill:none;stroke:#000000;stroke-width:0.291504;stroke-miterlimit:4;stroke-dasharray:none"
         d="m 367.56851,774.18234 c -1.3601,-0.78707 -2.50966,-1.49671 -2.55457,-1.57696 -0.1234,-0.2205 -0.006,-0.54381 0.23016,-0.63359 0.25819,-0.0982 0.12865,-0.1627 3.04511,1.51743 1.53425,0.88386 2.33559,1.39244 2.39319,1.51886 0.12359,0.27125 -0.109,0.61201 -0.4151,0.60815 -0.13814,-0.002 -1.18644,-0.55871 -2.69879,-1.43389 z"
         id="path31" />
      <path
         style="opacity:0.83;fill:none;stroke:#000000;stroke-width:0.291504;stroke-miterlimit:4;stroke-dasharray:none"
         d="m 328.94663,775.4086 c -0.10644,-0.16244 -0.11815,-0.25384 -0.0513,-0.40052 0.0576,-0.12642 0.85894,-0.635 2.39319,-1.51886 2.91646,-1.68013 2.78692,-1.61559 3.04511,-1.51743 0.23752,0.0903 0.35173,0.40906 0.22819,0.63689 -0.1179,0.21743 -5.00146,3.0104 -5.26374,3.0104 -0.13728,0 -0.26277,-0.0752 -0.35144,-0.21048 z"
         id="path29" />
      <path
         style="opacity:0.83;fill:none;stroke:#000000;stroke-width:0.291504;stroke-miterlimit:4;stroke-dasharray:none"
         d="m 361.32244,784.17346 c -0.28801,-0.25047 -2.93787,-4.92496 -2.94246,-5.19068 -0.007,-0.38311 0.40528,-0.5942 0.7045,-0.36102 0.22637,0.1764 2.9636,4.99603 2.9636,5.21822 0,0.36653 -0.44988,0.57328 -0.72564,0.33348 z"
         id="path27" />
      <path
         style="opacity:0.83;fill:none;stroke:#000000;stroke-width:0.291504;stroke-miterlimit:4;stroke-dasharray:none"
         d="m 337.77814,784.20976 c -0.42321,-0.21303 -0.3521,-0.39802 1.16126,-3.02135 0.78153,-1.35473 1.48076,-2.50976 1.55384,-2.5667 0.29922,-0.23318 0.71113,-0.0221 0.7045,0.36102 -0.005,0.26431 -2.65359,4.93936 -2.94009,5.18876 -0.19728,0.17173 -0.21205,0.1729 -0.47951,0.0383 z"
         id="path25" />
      <path
         style="opacity:0.83;fill:none;stroke:#000000;stroke-width:0.291504;stroke-miterlimit:4;stroke-dasharray:none"
         d="m 349.49407,787.34656 c -0.15404,-0.11259 -0.16079,-0.24345 -0.16079,-3.11792 v -3.00041 l 0.22779,-0.17013 0.22779,-0.17013 0.22779,0.17013 0.22779,0.17013 v 3.00041 c 0,2.87447 -0.007,3.00533 -0.16079,3.11792 -0.0884,0.0646 -0.22109,0.11752 -0.29479,0.11752 -0.0737,0 -0.20636,-0.0529 -0.29479,-0.11752 z"
         id="path23" />
      <path
         style="opacity:0.83;fill:none;stroke:#000000;stroke-width:0.291504;stroke-miterlimit:4;stroke-dasharray:none"
         d="m 351.90109,787.8783 c 12.77184,-1.15847 22.4889,-11.75247 22.4889,-24.51849 0,-13.57982 -11.02131,-24.60113 -24.60113,-24.60113 -13.57483,0 -24.60113,11.0263 -24.60113,24.60113 0,12.08819 8.78117,22.37448 20.74942,24.30592 1.76928,0.28552 4.2032,0.37227 5.96394,0.21257 z"
         id="path21" />
      <path
         style="opacity:0.83;fill:none;stroke:#000000;stroke-width:0.291504;stroke-miterlimit:4;stroke-dasharray:none"
         d="m 348.00796,789.81842 c -2.12524,-0.20359 -3.6006,-0.45398 -5.13562,-0.87158 -5.83636,-1.58775 -10.84781,-5.03557 -14.50882,-9.98188 -2.23485,-3.01946 -3.88645,-6.84138 -4.61379,-10.67661 -0.34732,-1.83143 -0.42599,-2.76814 -0.42087,-5.01138 0.005,-2.23977 0.10691,-3.31616 0.49422,-5.22549 2.10396,-10.37211 10.28124,-18.54496 20.6725,-20.6613 1.98345,-0.40396 2.87275,-0.48554 5.29328,-0.48554 2.83641,0 4.62857,0.22899 7.04781,0.90051 6.37203,1.76872 11.90449,5.88976 15.41549,11.48274 2.02509,3.22596 3.29572,6.80241 3.8517,10.84145 0.20258,1.47163 0.19919,5.01119 -0.006,6.50236 -0.8412,6.10655 -3.35186,11.22365 -7.58255,15.45434 -4.21247,4.21247 -9.38335,6.75838 -15.38366,7.57423 -0.9253,0.12581 -4.35569,0.2317 -5.12347,0.15815 z"
         id="path19" />
      <path
         style="opacity:0.83;fill:none;stroke:#000000;stroke-width:0.291504;stroke-miterlimit:4;stroke-dasharray:none"
         d="m 379.73005,763.28763 v -0.74568 a 29.080685,29.258981 0 0 0 -29.08069,-29.25652 h -0.74104 v 1.86399 h 0.74104 a 27.225602,27.392526 0 0 1 27.22809,27.39253 v 0.74568 z"
         id="path660" />
    </g>
  </g>
</svg>
