0
SECTION
2
HEADER
9
$INSUNITS
70
1
9
$ACADVER
1
AC1014
9
$HANDSEED
5
FFFF
0
ENDSEC
0
SECTION
2
TABLES
0
TABLE
2
VPORT
5
8
100
AcDbSymbolTable
0
ENDTAB
0
TABLE
2
LTYPE
5
5
100
AcDbSymbolTable
0
LTYPE
5
14
100
AcDbSymbolTableRecord
100
AcDbLinetypeTableRecord
2
BYBLOCK
70
0
0
LTYPE
5
15
100
AcDbSymbolTableRecord
100
AcDbLinetypeTableRecord
2
BYLAYER
70
0
0
ENDTAB
0
TABLE
2
LAYER
5
2
100
AcDbSymbolTable
70
2
0
LAYER
5
50
100
AcDbSymbolTableRecord
100
AcDbLayerTableRecord
2
0
70
0
6
CONTINUOUS
0
ENDTAB
0
TABLE
2
STYLE
5
3
100
AcDbSymbolTable
70
1
0
STYLE
5
11
100
AcDbSymbolTableRecord
100
AcDbTextStyleTableRecord
2
STANDARD
70
0
0
ENDTAB
0
TABLE
2
VIEW
5
6
100
AcDbSymbolTable
70
0
0
ENDTAB
0
TABLE
2
UCS
5
7
100
AcDbSymbolTable
70
0
0
ENDTAB
0
TABLE
2
APPID
5
9
100
AcDbSymbolTable
70
2
0
APPID
5
12
100
AcDbSymbolTableRecord
100
AcDbRegAppTableRecord
2
ACAD
70
0
0
ENDTAB
0
TABLE
2
DIMSTYLE
5
A
100
AcDbSymbolTable
70
1
0
ENDTAB
0
TABLE
2
BLOCK_RECORD
5
1
100
AcDbSymbolTable
70
1
0
BLOCK_RECORD
5
1F
100
AcDbSymbolTableRecord
100
AcDbBlockTableRecord
2
*MODEL_SPACE
0
BLOCK_RECORD
5
1B
100
AcDbSymbolTableRecord
100
AcDbBlockTableRecord
2
*PAPER_SPACE
0
ENDTAB
0
ENDSEC
0
SECTION
2
BLOCKS
0
BLOCK
5
20
100
AcDbEntity
100
AcDbBlockBegin
2
*MODEL_SPACE
0
ENDBLK
5
21
100
AcDbEntity
100
AcDbBlockEnd
0
BLOCK
5
1C
100
AcDbEntity
100
AcDbBlockBegin
2
*PAPER_SPACE
0
ENDBLK
5
1D
100
AcDbEntity
100
AcDbBlockEnd
0
ENDSEC
0
SECTION
2
ENTITIES
0
LWPOLYLINE
5
100
100
AcDbEntity
8
0
100
AcDbPolyline
90
6
70
1
43
0.0
10
-1.0188976377952756
20
-1.2229203868697271
10
-0.88110236220472438
20
-0.98425196850393692
10
-0.88110236220472438
20
-0.39370078740157477
10
-2.0622047244094484
20
-0.39370078740157477
10
-2.0622047244094484
20
-0.98425196850393692
10
-1.9244094488188974
20
-1.2229203868697271
0
LWPOLYLINE
5
101
100
AcDbEntity
8
0
100
AcDbPolyline
90
6
70
1
43
0.0
10
2.0622047244094484
20
-0.98425196850393692
10
2.0622047244094484
20
-0.39370078740157477
10
0.88110236220472438
20
-0.39370078740157477
10
0.88110236220472438
20
-0.98425196850393692
10
1.0188976377952756
20
-1.2229203868697271
10
1.9244094488188974
20
-1.2229203868697271
0
LWPOLYLINE
5
102
100
AcDbEntity
8
0
100
AcDbPolyline
90
4
70
1
43
0.0
10
2.5249999999999999
20
-0.99999999999708655
10
2.6249999999999996
20
-0.99999999999595657
10
2.6249999999999996
20
-0.90000000001653091
10
2.5249999999999999
20
-0.8999999999960191
0
LWPOLYLINE
5
103
100
AcDbEntity
8
0
100
AcDbPolyline
90
4
70
1
43
0.0
10
2.5249999999999999
20
-0.80000000000827676
10
2.6249999999999996
20
-0.80000000000827676
10
2.6249999999999996
20
-0.70000000000826534
10
2.5249999999999999
20
-0.70000000000826534
0
LWPOLYLINE
5
104
100
AcDbEntity
8
0
100
AcDbPolyline
90
4
70
1
43
0.0
10
2.5249999999999999
20
-0.60000000000001152
10
2.6249999999999996
20
-0.60000000000001152
10
2.6249999999999996
20
-0.49999999999999994
10
2.5249999999999999
20
-0.49999999999999994
0
LWPOLYLINE
5
105
100
AcDbEntity
8
0
100
AcDbPolyline
90
4
70
1
43
0.0
10
-2.625
20
-0.91141263849236598
10
-2.5249999999999999
20
-0.91141263848805976
10
-2.5249999999999999
20
-0.81141263848699219
10
-2.625
20
-0.81141263851294021
0
LWPOLYLINE
5
106
100
AcDbEntity
8
0
100
AcDbPolyline
90
4
70
1
43
0.0
10
-2.625
20
-0.71141263850468628
10
-2.5249999999999999
20
-0.71141263850468583
10
-2.5249999999999999
20
-0.61141263850467431
10
-2.625
20
-0.61141263850467464
0
LWPOLYLINE
5
107
100
AcDbEntity
8
0
100
AcDbPolyline
90
4
70
1
43
0.0
10
-2.625
20
-0.51141263849642082
10
-2.5249999999999999
20
-0.51141263849367358
10
-2.5249999999999999
20
-0.411412638493662
10
-2.625
20
-0.4114126384964093
0
CIRCLE
5
108
100
AcDbEntity
8
0
100
AcDbCircle
10
2.3749999999999996
20
-0.24999999999999997
30
0
40
0.040000000000000133
210
0
220
0
230
1
0
CIRCLE
5
109
100
AcDbEntity
8
0
100
AcDbCircle
10
0.50000000000000033
20
-1.2199999999999998
30
0
40
0.039999999999999959
210
0
220
0
230
1
0
CIRCLE
5
110
100
AcDbEntity
8
0
100
AcDbCircle
10
-0.49999999999999961
20
-1.2199999999999998
30
0
40
0.039999999999999959
210
0
220
0
230
1
0
CIRCLE
5
111
100
AcDbEntity
8
0
100
AcDbCircle
10
-2.3749999999999996
20
-0.24999999999999997
30
0
40
0.040000000000000133
210
0
220
0
230
1
0
LWPOLYLINE
5
112
100
AcDbEntity
8
0
100
AcDbPolyline
90
10
70
1
43
0.0
10
2.2515727792645071
20
-1.8199999999999998
10
0.50000000000000011
20
-1.8199999999999994
10
0.14000184093045839
20
-0.88400478641919222
42
0.68679909824493313
10
-0.14000184093045931
20
-0.88400478641919245
10
-0.50000000000000011
20
-1.8199999999999994
10
-2.2515727792645062
20
-1.8199999999999994
10
-2.7250000000000001
20
-0.99999999999999989
10
-2.7249999999999996
20
0
10
2.7249999999999996
20
0
10
2.7250000000000001
20
-0.99999999999999989
0
ENDSEC
0
SECTION
2
OBJECTS
0
DICTIONARY
5
C
100
AcDbDictionary
3
ACAD_GROUP
350
D
3
ACAD_MLINESTYLE
350
17
0
DICTIONARY
5
D
100
AcDbDictionary
0
DICTIONARY
5
1A
330
C
100
AcDbDictionary
0
DICTIONARY
5
17
100
AcDbDictionary
0
ENDSEC
0
EOF
