0
SECTION
2
HEADER
9
$INSUNITS
70
4
9
$ACADVER
1
AC1014
9
$HANDSEED
5
FFFF
0
ENDSEC
0
SECTION
2
TABLES
0
TABLE
2
VPORT
5
8
100
AcDbSymbolTable
0
ENDTAB
0
TABLE
2
LTYPE
5
5
100
AcDbSymbolTable
0
LTYPE
5
14
100
AcDbSymbolTableRecord
100
AcDbLinetypeTableRecord
2
BYBLOCK
70
0
0
LTYPE
5
15
100
AcDbSymbolTableRecord
100
AcDbLinetypeTableRecord
2
BYLAYER
70
0
0
ENDTAB
0
TABLE
2
LAYER
5
2
100
AcDbSymbolTable
70
2
0
LAYER
5
50
100
AcDbSymbolTableRecord
100
AcDbLayerTableRecord
2
0
70
0
6
CONTINUOUS
0
ENDTAB
0
TABLE
2
STYLE
5
3
100
AcDbSymbolTable
70
1
0
STYLE
5
11
100
AcDbSymbolTableRecord
100
AcDbTextStyleTableRecord
2
STANDARD
70
0
0
ENDTAB
0
TABLE
2
VIEW
5
6
100
AcDbSymbolTable
70
0
0
ENDTAB
0
TABLE
2
UCS
5
7
100
AcDbSymbolTable
70
0
0
ENDTAB
0
TABLE
2
APPID
5
9
100
AcDbSymbolTable
70
2
0
APPID
5
12
100
AcDbSymbolTableRecord
100
AcDbRegAppTableRecord
2
ACAD
70
0
0
ENDTAB
0
TABLE
2
DIMSTYLE
5
A
100
AcDbSymbolTable
70
1
0
ENDTAB
0
TABLE
2
BLOCK_RECORD
5
1
100
AcDbSymbolTable
70
1
0
BLOCK_RECORD
5
1F
100
AcDbSymbolTableRecord
100
AcDbBlockTableRecord
2
*MODEL_SPACE
0
BLOCK_RECORD
5
1B
100
AcDbSymbolTableRecord
100
AcDbBlockTableRecord
2
*PAPER_SPACE
0
ENDTAB
0
ENDSEC
0
SECTION
2
BLOCKS
0
BLOCK
5
20
100
AcDbEntity
100
AcDbBlockBegin
2
*MODEL_SPACE
0
ENDBLK
5
21
100
AcDbEntity
100
AcDbBlockEnd
0
BLOCK
5
1C
100
AcDbEntity
100
AcDbBlockBegin
2
*PAPER_SPACE
0
ENDBLK
5
1D
100
AcDbEntity
100
AcDbBlockEnd
0
ENDSEC
0
SECTION
2
ENTITIES
0
LWPOLYLINE
5
100
100
AcDbEntity
8
0
100
AcDbPolyline
90
6
70
1
43
0.0
10
-25.880000000000003
20
-31.062177826491073
10
-22.379999999999999
20
-25
10
-22.379999999999999
20
-10
10
-52.379999999999995
20
-10
10
-52.379999999999995
20
-25
10
-48.879999999999995
20
-31.062177826491073
0
LWPOLYLINE
5
101
100
AcDbEntity
8
0
100
AcDbPolyline
90
6
70
1
43
0.0
10
52.379999999999995
20
-25
10
52.379999999999995
20
-10
10
22.379999999999999
20
-10
10
22.379999999999999
20
-25
10
25.880000000000003
20
-31.062177826491073
10
48.879999999999995
20
-31.062177826491073
0
LWPOLYLINE
5
102
100
AcDbEntity
8
0
100
AcDbPolyline
90
4
70
1
43
0.0
10
61.594999999999999
20
-25.3999999998973
10
66.674999999999997
20
-25.3999999998973
10
66.674999999999997
20
-22.860000000419888
10
61.594999999999999
20
-22.860000000419888
0
LWPOLYLINE
5
103
100
AcDbEntity
8
0
100
AcDbPolyline
90
4
70
1
43
0.0
10
61.594999999999999
20
-20.320000000210232
10
66.674999999999997
20
-20.320000000210232
10
66.674999999999997
20
-17.780000000209942
10
61.594999999999999
20
-17.780000000209942
0
LWPOLYLINE
5
104
100
AcDbEntity
8
0
100
AcDbPolyline
90
4
70
1
43
0.0
10
61.594999999999999
20
-15.240000000000293
10
66.674999999999997
20
-15.240000000000293
10
66.674999999999997
20
-12.699999999999999
10
61.594999999999999
20
-12.699999999999999
0
LWPOLYLINE
5
105
100
AcDbEntity
8
0
100
AcDbPolyline
90
4
70
1
43
0.0
10
-66.675000000000011
20
-23.149881017706097
10
-61.595000000000006
20
-23.149881017706097
10
-61.595000000000006
20
-20.609881018228684
10
-66.675000000000011
20
-20.609881018228684
0
LWPOLYLINE
5
106
100
AcDbEntity
8
0
100
AcDbPolyline
90
4
70
1
43
0.0
10
-66.675000000000011
20
-18.069881018019032
10
-61.595000000000006
20
-18.069881018019032
10
-61.595000000000006
20
-15.529881018018738
10
-66.675000000000011
20
-15.529881018018738
0
LWPOLYLINE
5
107
100
AcDbEntity
8
0
100
AcDbPolyline
90
4
70
1
43
0.0
10
-66.675000000000011
20
-12.98988101780909
10
-61.595000000000006
20
-12.98988101780909
10
-61.595000000000006
20
-10.449881017808798
10
-66.675000000000011
20
-10.449881017808798
0
CIRCLE
5
108
100
AcDbEntity
8
0
100
AcDbCircle
10
60.324999999999996
20
-6.3499999999999996
30
0
40
2.2860000000000014
210
0
220
0
230
1
0
CIRCLE
5
109
100
AcDbEntity
8
0
100
AcDbCircle
10
12.70000000000001
20
-30.988
30
0
40
2.2859999999999991
210
0
220
0
230
1
0
CIRCLE
5
110
100
AcDbEntity
8
0
100
AcDbCircle
10
-12.699999999999992
20
-30.988
30
0
40
2.2860000000000014
210
0
220
0
230
1
0
CIRCLE
5
111
100
AcDbEntity
8
0
100
AcDbCircle
10
-60.324999999999996
20
-6.3499999999999996
30
0
40
2.2860000000000014
210
0
220
0
230
1
0
LWPOLYLINE
5
112
100
AcDbEntity
8
0
100
AcDbPolyline
90
10
70
1
43
0.0
10
57.189948593318491
20
-46.227999999999994
10
12.700000000000005
20
-46.227999999999987
10
3.5560467596336438
20
-22.453721575047485
42
0.68679909824493313
10
-3.5560467596336665
20
-22.453721575047489
10
-12.700000000000005
20
-46.227999999999987
10
-57.189948593318462
20
-46.227999999999987
10
-69.215000000000003
20
-25.399999999999999
10
-69.215000000000003
20
0
10
69.215000000000003
20
0
10
69.215000000000003
20
-25.399999999999999
0
ENDSEC
0
SECTION
2
OBJECTS
0
DICTIONARY
5
C
100
AcDbDictionary
3
ACAD_GROUP
350
D
3
ACAD_MLINESTYLE
350
17
0
DICTIONARY
5
D
100
AcDbDictionary
0
DICTIONARY
5
1A
330
C
100
AcDbDictionary
0
DICTIONARY
5
17
100
AcDbDictionary
0
ENDSEC
0
EOF
