0
SECTION
2
HEADER
9
$INSUNITS
70
1
9
$ACADVER
1
AC1014
9
$HANDSEED
5
FFFF
0
ENDSEC
0
SECTION
2
TABLES
0
TABLE
2
VPORT
5
8
100
AcDbSymbolTable
0
ENDTAB
0
TABLE
2
LTYPE
5
5
100
AcDbSymbolTable
0
LTYPE
5
14
100
AcDbSymbolTableRecord
100
AcDbLinetypeTableRecord
2
BYBLOCK
70
0
0
LTYPE
5
15
100
AcDbSymbolTableRecord
100
AcDbLinetypeTableRecord
2
BYLAYER
70
0
0
ENDTAB
0
TABLE
2
LAYER
5
2
100
AcDbSymbolTable
70
2
0
LAYER
5
50
100
AcDbSymbolTableRecord
100
AcDbLayerTableRecord
2
0
70
0
6
CONTINUOUS
0
ENDTAB
0
TABLE
2
STYLE
5
3
100
AcDbSymbolTable
70
1
0
STYLE
5
11
100
AcDbSymbolTableRecord
100
AcDbTextStyleTableRecord
2
STANDARD
70
0
0
ENDTAB
0
TABLE
2
VIEW
5
6
100
AcDbSymbolTable
70
0
0
ENDTAB
0
TABLE
2
UCS
5
7
100
AcDbSymbolTable
70
0
0
ENDTAB
0
TABLE
2
APPID
5
9
100
AcDbSymbolTable
70
2
0
APPID
5
12
100
AcDbSymbolTableRecord
100
AcDbRegAppTableRecord
2
ACAD
70
0
0
ENDTAB
0
TABLE
2
DIMSTYLE
5
A
100
AcDbSymbolTable
70
1
0
ENDTAB
0
TABLE
2
BLOCK_RECORD
5
1
100
AcDbSymbolTable
70
1
0
BLOCK_RECORD
5
1F
100
AcDbSymbolTableRecord
100
AcDbBlockTableRecord
2
*MODEL_SPACE
0
BLOCK_RECORD
5
1B
100
AcDbSymbolTableRecord
100
AcDbBlockTableRecord
2
*PAPER_SPACE
0
ENDTAB
0
ENDSEC
0
SECTION
2
BLOCKS
0
BLOCK
5
20
100
AcDbEntity
100
AcDbBlockBegin
2
*MODEL_SPACE
0
ENDBLK
5
21
100
AcDbEntity
100
AcDbBlockEnd
0
BLOCK
5
1C
100
AcDbEntity
100
AcDbBlockBegin
2
*PAPER_SPACE
0
ENDBLK
5
1D
100
AcDbEntity
100
AcDbBlockEnd
0
ENDSEC
0
SECTION
2
ENTITIES
0
LWPOLYLINE
5
100
100
AcDbEntity
8
0
100
AcDbPolyline
90
6
70
1
43
0.0
10
0.88110236220472438
20
-0.98425196850393692
10
1.0188976377952756
20
-1.2229203868697271
10
1.9244094488188974
20
-1.2229203868697271
10
2.0622047244094484
20
-0.98425196850393692
10
2.0622047244094484
20
-0.39370078740157477
10
0.88110236220472438
20
-0.39370078740157477
0
LWPOLYLINE
5
101
100
AcDbEntity
8
0
100
AcDbPolyline
90
6
70
1
43
0.0
10
-2.0622047244094484
20
-0.39370078740157477
10
-2.0622047244094484
20
-0.98425196850393692
10
-1.9244094488188974
20
-1.2229203868697271
10
-1.0188976377952756
20
-1.2229203868697271
10
-0.88110236220472438
20
-0.98425196850393692
10
-0.88110236220472438
20
-0.39370078740157477
0
LWPOLYLINE
5
102
100
AcDbEntity
8
0
100
AcDbPolyline
90
4
70
1
43
0.0
10
-2.625
20
-0.89999999998895142
10
-2.5249999999999999
20
-0.89999999998895142
10
-2.5249999999999999
20
-0.79999999998895122
10
-2.625
20
-0.79999999998895122
0
LWPOLYLINE
5
103
100
AcDbEntity
8
0
100
AcDbPolyline
90
4
70
1
43
0.0
10
-2.625
20
-0.69999999998428519
10
-2.5249999999999999
20
-0.69999999998428519
10
-2.5249999999999999
20
-0.59999999998428521
10
-2.625
20
-0.59999999998428521
0
LWPOLYLINE
5
104
100
AcDbEntity
8
0
100
AcDbPolyline
90
4
70
1
43
0.0
10
-2.625
20
-0.49999999999624445
10
-2.5249999999999999
20
-0.49999999999624445
10
-2.5249999999999999
20
-0.39999999999624453
10
-2.625
20
-0.39999999999624453
0
LWPOLYLINE
5
105
100
AcDbEntity
8
0
100
AcDbPolyline
90
4
70
1
43
0.0
10
2.5249999999999999
20
-0.91179100773008892
10
2.625
20
-0.91179100773008892
10
2.625
20
-0.81179100773008883
10
2.5249999999999999
20
-0.81179100773008883
0
LWPOLYLINE
5
106
100
AcDbEntity
8
0
100
AcDbPolyline
90
4
70
1
43
0.0
10
2.5249999999999999
20
-0.71179100772542281
10
2.625
20
-0.71179100772542281
10
2.625
20
-0.61179100772542283
10
2.5249999999999999
20
-0.61179100772542283
0
LWPOLYLINE
5
107
100
AcDbEntity
8
0
100
AcDbPolyline
90
4
70
1
43
0.0
10
2.5249999999999999
20
-0.51179100773738206
10
2.625
20
-0.51179100773738206
10
2.625
20
-0.41179100773738209
10
2.5249999999999999
20
-0.41179100773738209
0
CIRCLE
5
108
100
AcDbEntity
8
0
100
AcDbCircle
10
2.3749999999999996
20
-0.24999999999999997
30
0
40
0.040000000000000133
210
0
220
-0
230
1
0
CIRCLE
5
109
100
AcDbEntity
8
0
100
AcDbCircle
10
0.49999999999999961
20
-1.2199999999999998
30
0
40
0.039999999999999959
210
0
220
-0
230
1
0
CIRCLE
5
110
100
AcDbEntity
8
0
100
AcDbCircle
10
-0.50000000000000033
20
-1.2199999999999998
30
0
40
0.039999999999999959
210
0
220
-0
230
1
0
CIRCLE
5
111
100
AcDbEntity
8
0
100
AcDbCircle
10
-2.3749999999999996
20
-0.24999999999999997
30
0
40
0.040000000000000133
210
0
220
-0
230
1
0
LWPOLYLINE
5
112
100
AcDbEntity
8
0
100
AcDbPolyline
90
18
70
1
43
0.0
10
-0.14000184093045834
20
-0.88400478641919222
10
-0.45069069840837411
20
-1.6917958158617736
42
-0.31032880928881823
10
-0.63735981964898614
20
-1.8199999999999998
10
-2.2515727792645071
20
-1.8199999999999998
10
-2.7250000000000001
20
-0.99999999999999989
10
-2.9249999999999985
20
-1.0000000000000042
10
-3.2249999999999983
20
-0.78993773853709248
10
-3.2249999999999996
20
-0.21006226146291912
10
-2.9249999999999998
20
-4.2835376540655641e-15
10
2.9249999999999998
20
0
10
3.2249999999999996
20
-0.2100622614629144
10
3.2249999999999996
20
-0.78993773853708782
10
2.9249999999999998
20
-0.99999999999999989
10
2.7249999999999996
20
-0.99999999999999989
10
2.2515727792645066
20
-1.8199999999999994
10
0.63735981964898647
20
-1.8199999999999994
42
-0.31032880928881873
10
0.45069069840837478
20
-1.691795815861773
10
0.14000184093045939
20
-0.88400478641919245
42
0.6867990982449329
0
ENDSEC
0
SECTION
2
OBJECTS
0
DICTIONARY
5
C
100
AcDbDictionary
3
ACAD_GROUP
350
D
3
ACAD_MLINESTYLE
350
17
0
DICTIONARY
5
D
100
AcDbDictionary
0
DICTIONARY
5
1A
330
C
100
AcDbDictionary
0
DICTIONARY
5
17
100
AcDbDictionary
0
ENDSEC
0
EOF
